{"glyphs":{"0":{"ha":674,"x_min":0,"x_max":0,"o":"m 149 475 b 629 522 356 717 628 704 b 665 521 640 524 651 522 b 249 -49 708 374 475 -29 b 149 475 -15 -69 -60 235 m 271 510 b 353 96 133 350 161 63 b 569 464 433 111 569 308 b 511 431 547 449 528 438 b 271 510 494 558 361 611 "},"1":{"ha":472,"x_min":0,"x_max":0,"o":"m 307 661 b 478 663 379 697 465 700 b 226 -54 363 435 239 96 b 124 -81 196 -83 153 -85 b 233 497 150 181 190 368 b 99 350 199 451 150 397 b 57 456 74 363 54 404 b 269 590 104 468 176 507 b 307 661 283 619 296 643 "},"2":{"ha":622,"x_min":0,"x_max":0,"o":"m 181 50 b 482 78 293 50 415 88 b 392 -81 481 35 442 -46 b 74 -28 267 -32 181 -14 b -107 -26 -69 -97 -144 -72 b 69 40 -58 31 13 35 b 440 501 342 210 508 424 b 138 333 393 554 276 507 b 90 460 104 349 67 388 b 600 642 299 676 528 742 b 181 50 685 524 475 231 "},"3":{"ha":642,"x_min":0,"x_max":0,"o":"m 196 681 b 540 639 281 663 418 635 b 640 681 576 663 608 676 b 544 594 725 692 678 608 b 519 592 536 593 526 590 b 351 431 461 539 406 479 b 563 333 475 449 560 426 b 117 -68 567 154 299 -92 b -10 157 -29 -47 -33 89 b 154 240 42 206 126 240 b 199 -4 75 67 131 -7 b 389 265 265 -1 388 103 b 294 376 390 324 344 361 b 261 354 281 367 271 358 b 258 407 153 299 125 367 l 282 414 b 465 583 349 478 410 540 b 147 539 342 564 208 536 b 196 681 144 592 178 654 "},"4":{"ha":657,"x_min":0,"x_max":0,"o":"m 426 626 b 169 219 331 481 254 329 b 343 219 224 225 286 226 b 546 701 419 483 497 636 b 711 681 619 732 704 724 b 460 200 624 539 526 356 b 551 165 499 189 529 176 b 494 85 544 132 513 100 l 424 110 b 372 -57 399 44 381 -12 b 269 -74 339 -85 297 -81 b 318 133 286 1 301 68 b 111 154 240 149 169 154 b -4 74 74 117 36 89 b 42 189 -86 46 -85 132 b 182 526 121 324 174 486 b 426 626 275 617 393 638 "},"5":{"ha":619,"x_min":0,"x_max":0,"o":"m 592 679 b 608 557 613 658 622 614 b 240 549 524 518 354 528 b 221 404 246 503 238 453 b 326 425 253 413 286 418 b 214 -69 768 500 494 -26 b 10 181 32 -99 -28 22 b 149 242 53 218 106 249 b 231 -1 122 181 44 -22 b 201 353 424 21 535 381 b 108 346 167 290 104 308 b 178 393 110 363 129 375 b 164 565 179 444 171 514 l 144 576 b 197 629 75 625 133 681 b 219 604 206 622 211 614 b 592 679 308 614 450 638 "},"6":{"ha":597,"x_min":0,"x_max":0,"o":"m 547 547 b 181 369 483 558 296 560 b 290 418 228 392 257 404 b 374 42 631 543 614 250 b -7 147 183 -126 -60 -44 b 564 714 47 349 204 597 b 547 547 579 661 582 597 m 135 261 b 261 22 79 90 169 -7 b 281 360 372 60 436 382 b 135 261 213 349 165 307 "},"7":{"ha":543,"x_min":0,"x_max":0,"o":"m 550 643 b 568 575 731 743 774 608 b 129 -57 424 440 206 131 b -11 18 75 -69 8 -39 b 507 567 35 103 289 386 b 83 582 340 549 156 556 b 208 719 111 631 169 696 b 550 643 340 654 471 638 "},"8":{"ha":639,"x_min":0,"x_max":0,"o":"m 436 681 b 618 636 531 686 581 665 b 563 551 608 614 592 575 b 586 547 581 549 585 547 b 463 440 557 493 519 469 b 399 14 644 410 699 261 b 0 118 160 -185 -100 -135 b 207 350 46 228 121 297 b 436 681 85 429 229 671 m 251 328 b 282 4 53 199 97 -43 b 276 329 461 54 588 293 b 257 333 274 329 271 329 l 251 328 m 392 450 b 533 544 444 479 494 508 b 453 625 533 582 504 613 b 392 450 318 654 225 492 m 586 547 b 586 547 586 547 586 547 "},"9":{"ha":583,"x_min":0,"x_max":0,"o":"m 133 7 b 394 267 210 47 310 140 b 308 225 346 242 328 232 b 224 601 -33 100 -17 393 b 582 483 415 768 604 676 b 233 -74 557 257 385 46 b 133 7 182 -69 138 -49 m 317 283 b 435 346 367 289 406 317 b 336 619 508 519 431 653 b 317 283 225 583 161 261 "}," ":{"ha":414,"x_min":0,"x_max":0,"o":""},"A":{"ha":1376,"x_min":0,"x_max":0,"o":"m 60 -279 b -154 -168 -33 -294 -135 -235 b 358 388 -60 -26 135 183 b 35 350 250 386 139 374 b 99 485 33 382 50 429 b 450 471 178 503 306 494 b 1121 950 678 668 924 853 b 1153 897 1140 936 1150 917 l 1114 874 b 1144 876 1124 875 1135 876 b 999 126 961 557 890 194 b 1381 372 1104 60 1286 186 l 1424 343 b 847 13 1275 22 967 -68 b 831 322 786 54 785 167 b 522 383 753 353 644 375 b 60 -279 300 150 119 -100 m 583 446 b 849 383 672 428 763 406 b 1057 839 893 514 965 671 b 583 446 899 735 733 596 "},"Á":{"ha":1376,"x_min":0,"x_max":0,"o":"m 60 -279 b -154 -168 -33 -294 -135 -235 b 358 388 -60 -26 135 183 b 35 350 250 386 139 374 b 99 485 33 382 50 429 b 450 471 178 503 306 494 b 1121 950 678 668 924 853 b 1153 897 1140 936 1150 917 l 1114 874 b 1144 876 1124 875 1135 876 b 999 126 961 557 890 194 b 1381 372 1104 60 1286 186 l 1424 343 b 847 13 1275 22 967 -68 b 831 322 786 54 785 167 b 522 383 753 353 644 375 b 60 -279 300 150 119 -100 m 583 446 b 849 383 672 428 763 406 b 1057 839 893 514 965 671 b 583 446 899 735 733 596 m 1053 1022 b 1060 1071 1049 1029 1051 1051 b 1319 1304 1147 1126 1253 1208 b 1374 1174 1369 1307 1392 1244 b 1053 1022 1294 1096 1160 1046 "},"Ă":{"ha":1376,"x_min":0,"x_max":0,"o":"m 60 -279 b -154 -168 -33 -294 -135 -235 b 358 388 -60 -26 135 183 b 35 350 250 386 139 374 b 99 485 33 382 50 429 b 450 471 178 503 306 494 b 1121 950 678 668 924 853 b 1153 897 1140 936 1150 917 l 1114 874 b 1144 876 1124 875 1135 876 b 999 126 961 557 890 194 b 1381 372 1104 60 1286 186 l 1424 343 b 847 13 1275 22 967 -68 b 831 322 786 54 785 167 b 522 383 753 353 644 375 b 60 -279 300 150 119 -100 m 583 446 b 849 383 672 428 763 406 b 1057 839 893 514 965 671 b 583 446 899 735 733 596 m 974 1171 b 1135 1203 1044 1238 1129 1228 b 1338 1193 1126 1056 1249 1024 b 1424 1185 1389 1219 1428 1204 b 974 1171 1315 985 1021 956 "},"Ắ":{"ha":1376,"x_min":0,"x_max":0,"o":"m 60 -279 b -154 -168 -33 -294 -135 -235 b 358 388 -60 -26 135 183 b 35 350 250 386 139 374 b 99 485 33 382 50 429 b 450 471 178 503 306 494 b 1121 950 678 668 924 853 b 1153 897 1140 936 1150 917 l 1114 874 b 1144 876 1124 875 1135 876 b 999 126 961 557 890 194 b 1381 372 1104 60 1286 186 l 1424 343 b 847 13 1275 22 967 -68 b 831 322 786 54 785 167 b 522 383 753 353 644 375 b 60 -279 300 150 119 -100 m 583 446 b 849 383 672 428 763 406 b 1057 839 893 514 965 671 b 583 446 899 735 733 596 m 976 1169 b 1138 1201 1047 1236 1132 1226 b 1340 1192 1129 1054 1251 1022 b 1426 1183 1392 1218 1431 1203 b 976 1169 1318 983 1024 954 m 1129 1264 b 1136 1313 1125 1271 1128 1293 b 1396 1546 1224 1368 1329 1450 b 1450 1415 1446 1549 1468 1486 b 1129 1264 1371 1338 1236 1288 "},"Ặ":{"ha":1376,"x_min":0,"x_max":0,"o":"m 60 -279 b -154 -168 -33 -294 -135 -235 b 358 388 -60 -26 135 183 b 35 350 250 386 139 374 b 99 485 33 382 50 429 b 450 471 178 503 306 494 b 1121 950 678 668 924 853 b 1153 897 1140 936 1150 917 l 1114 874 b 1144 876 1124 875 1135 876 b 999 126 961 557 890 194 b 1381 372 1104 60 1286 186 l 1424 343 b 847 13 1275 22 967 -68 b 831 322 786 54 785 167 b 522 383 753 353 644 375 b 60 -279 300 150 119 -100 m 356 -207 b 494 -97 382 -187 435 -154 b 608 -178 515 -121 556 -156 b 450 -318 567 -226 508 -283 b 356 -207 417 -287 379 -246 m 583 446 b 849 383 672 428 763 406 b 1057 839 893 514 965 671 b 583 446 899 735 733 596 m 974 1171 b 1135 1203 1044 1238 1129 1228 b 1338 1193 1126 1056 1249 1024 b 1424 1185 1389 1219 1428 1204 b 974 1171 1315 985 1021 956 "},"Ằ":{"ha":1376,"x_min":0,"x_max":0,"o":"m 60 -279 b -154 -168 -33 -294 -135 -235 b 358 388 -60 -26 135 183 b 35 350 250 386 139 374 b 99 485 33 382 50 429 b 450 471 178 503 306 494 b 1121 950 678 668 924 853 b 1153 897 1140 936 1150 917 l 1114 874 b 1144 876 1124 875 1135 876 b 999 126 961 557 890 194 b 1381 372 1104 60 1286 186 l 1424 343 b 847 13 1275 22 967 -68 b 831 322 786 54 785 167 b 522 383 753 353 644 375 b 60 -279 300 150 119 -100 m 583 446 b 849 383 672 428 763 406 b 1057 839 893 514 965 671 b 583 446 899 735 733 596 m 981 1169 b 1142 1201 1051 1236 1136 1226 b 1344 1192 1133 1054 1256 1022 b 1431 1183 1396 1218 1435 1203 b 981 1169 1322 983 1028 954 m 1144 1367 b 1258 1478 1157 1419 1207 1474 b 1421 1311 1288 1407 1360 1350 b 1403 1274 1421 1297 1413 1281 b 1144 1367 1304 1285 1193 1313 "},"Ẳ":{"ha":1376,"x_min":0,"x_max":0,"o":"m 60 -279 b -154 -168 -33 -294 -135 -235 b 358 388 -60 -26 135 183 b 35 350 250 386 139 374 b 99 485 33 382 50 429 b 450 471 178 503 306 494 b 1121 950 678 668 924 853 b 1153 897 1140 936 1150 917 l 1114 874 b 1144 876 1124 875 1135 876 b 999 126 961 557 890 194 b 1381 372 1104 60 1286 186 l 1424 343 b 847 13 1275 22 967 -68 b 831 322 786 54 785 167 b 522 383 753 353 644 375 b 60 -279 300 150 119 -100 m 583 446 b 849 383 672 428 763 406 b 1057 839 893 514 965 671 b 583 446 899 735 733 596 m 996 1168 b 1157 1200 1067 1235 1151 1225 b 1360 1190 1149 1053 1271 1021 b 1446 1182 1411 1217 1450 1201 b 996 1168 1338 982 1043 953 m 1200 1229 b 1428 1490 1410 1307 1468 1440 b 1304 1510 1389 1535 1335 1522 b 1301 1525 1300 1513 1299 1518 b 1572 1575 1408 1619 1519 1638 b 1208 1214 1638 1499 1551 1321 l 1200 1229 "},"Ẵ":{"ha":1376,"x_min":0,"x_max":0,"o":"m 60 -279 b -154 -168 -33 -294 -135 -235 b 358 388 -60 -26 135 183 b 35 350 250 386 139 374 b 99 485 33 382 50 429 b 450 471 178 503 306 494 b 1121 950 678 668 924 853 b 1153 897 1140 936 1150 917 l 1114 874 b 1144 876 1124 875 1135 876 b 999 126 961 557 890 194 b 1381 372 1104 60 1286 186 l 1424 343 b 847 13 1275 22 967 -68 b 831 322 786 54 785 167 b 522 383 753 353 644 375 b 60 -279 300 150 119 -100 m 583 446 b 849 383 672 428 763 406 b 1057 839 893 514 965 671 b 583 446 899 735 733 596 m 976 1181 b 1138 1213 1047 1247 1132 1238 b 1340 1203 1129 1065 1251 1033 b 1426 1194 1392 1229 1431 1214 b 976 1181 1318 994 1024 965 m 1061 1400 b 1333 1392 1296 1607 1247 1358 b 1408 1471 1375 1407 1399 1442 b 1521 1425 1467 1493 1528 1488 b 1272 1300 1428 1322 1308 1292 b 1210 1421 1231 1307 1247 1425 b 1132 1296 1175 1417 1140 1347 b 1061 1400 1085 1292 1056 1357 "},"Ǎ":{"ha":1376,"x_min":0,"x_max":0,"o":"m 60 -279 b -154 -168 -33 -294 -135 -235 b 358 388 -60 -26 135 183 b 35 350 250 386 139 374 b 99 485 33 382 50 429 b 450 471 178 503 306 494 b 1121 950 678 668 924 853 b 1153 897 1140 936 1150 917 l 1114 874 b 1144 876 1124 875 1135 876 b 999 126 961 557 890 194 b 1381 372 1104 60 1286 186 l 1424 343 b 847 13 1275 22 967 -68 b 831 322 786 54 785 167 b 522 383 753 353 644 375 b 60 -279 300 150 119 -100 m 583 446 b 849 383 672 428 763 406 b 1057 839 893 514 965 671 b 583 446 899 735 733 596 m 1000 1196 b 1067 1261 1015 1222 1038 1250 b 1153 1089 1085 1219 1117 1156 b 1336 1261 1181 1119 1247 1182 b 1376 1185 1356 1242 1372 1215 b 1190 1010 1301 1133 1235 1069 b 1117 1036 1158 1015 1126 1025 b 1000 1196 1111 1081 1089 1115 "},"Â":{"ha":1376,"x_min":0,"x_max":0,"o":"m 60 -279 b -154 -168 -33 -294 -135 -235 b 358 388 -60 -26 135 183 b 35 350 250 386 139 374 b 99 485 33 382 50 429 b 450 471 178 503 306 494 b 1121 950 678 668 924 853 b 1153 897 1140 936 1150 917 l 1114 874 b 1144 876 1124 875 1135 876 b 999 126 961 557 890 194 b 1381 372 1104 60 1286 186 l 1424 343 b 847 13 1275 22 967 -68 b 831 322 786 54 785 167 b 522 383 753 353 644 375 b 60 -279 300 150 119 -100 m 583 446 b 849 383 672 428 763 406 b 1057 839 893 514 965 671 b 583 446 899 735 733 596 m 996 1065 b 1182 1240 1071 1117 1138 1181 b 1256 1214 1214 1235 1246 1225 b 1371 1054 1260 1169 1282 1135 b 1306 989 1356 1028 1333 1001 b 1219 1160 1288 1032 1256 1096 b 1036 989 1192 1131 1125 1068 b 996 1065 1017 1008 1000 1035 "},"Ấ":{"ha":1376,"x_min":0,"x_max":0,"o":"m 60 -279 b -154 -168 -33 -294 -135 -235 b 358 388 -60 -26 135 183 b 35 350 250 386 139 374 b 99 485 33 382 50 429 b 450 471 178 503 306 494 b 1121 950 678 668 924 853 b 1153 897 1140 936 1150 917 l 1114 874 b 1144 876 1124 875 1135 876 b 999 126 961 557 890 194 b 1381 372 1104 60 1286 186 l 1424 343 b 847 13 1275 22 967 -68 b 831 322 786 54 785 167 b 522 383 753 353 644 375 b 60 -279 300 150 119 -100 m 583 446 b 849 383 672 428 763 406 b 1057 839 893 514 965 671 b 583 446 899 735 733 596 m 968 1051 b 1154 1226 1043 1103 1110 1167 b 1228 1200 1186 1221 1218 1211 b 1343 1040 1232 1156 1254 1121 b 1278 975 1328 1014 1306 988 b 1192 1146 1260 1018 1228 1082 b 1008 975 1164 1117 1097 1054 b 968 1051 989 994 972 1021 m 1138 1275 b 1144 1324 1133 1282 1136 1304 b 1404 1557 1232 1379 1338 1461 b 1458 1426 1454 1560 1476 1497 b 1138 1275 1379 1349 1244 1299 "},"Ậ":{"ha":1376,"x_min":0,"x_max":0,"o":"m 60 -279 b -154 -168 -33 -294 -135 -235 b 358 388 -60 -26 135 183 b 35 350 250 386 139 374 b 99 485 33 382 50 429 b 450 471 178 503 306 494 b 1121 950 678 668 924 853 b 1153 897 1140 936 1150 917 l 1114 874 b 1144 876 1124 875 1135 876 b 999 126 961 557 890 194 b 1381 372 1104 60 1286 186 l 1424 343 b 847 13 1275 22 967 -68 b 831 322 786 54 785 167 b 522 383 753 353 644 375 b 60 -279 300 150 119 -100 m 356 -207 b 494 -97 382 -187 435 -154 b 608 -178 515 -121 556 -156 b 450 -318 567 -226 508 -283 b 356 -207 417 -287 379 -246 m 583 446 b 849 383 672 428 763 406 b 1057 839 893 514 965 671 b 583 446 899 735 733 596 m 996 1065 b 1182 1240 1071 1117 1138 1181 b 1256 1214 1214 1235 1246 1225 b 1371 1054 1260 1169 1282 1135 b 1306 989 1356 1028 1333 1001 b 1219 1160 1288 1032 1256 1096 b 1036 989 1192 1131 1125 1068 b 996 1065 1017 1008 1000 1035 "},"Ầ":{"ha":1376,"x_min":0,"x_max":0,"o":"m 60 -279 b -154 -168 -33 -294 -135 -235 b 358 388 -60 -26 135 183 b 35 350 250 386 139 374 b 99 485 33 382 50 429 b 450 471 178 503 306 494 b 1121 950 678 668 924 853 b 1153 897 1140 936 1150 917 l 1114 874 b 1144 876 1124 875 1135 876 b 999 126 961 557 890 194 b 1381 372 1104 60 1286 186 l 1424 343 b 847 13 1275 22 967 -68 b 831 322 786 54 785 167 b 522 383 753 353 644 375 b 60 -279 300 150 119 -100 m 583 446 b 849 383 672 428 763 406 b 1057 839 893 514 965 671 b 583 446 899 735 733 596 m 978 1071 b 1164 1246 1053 1122 1119 1186 b 1238 1219 1196 1240 1228 1231 b 1353 1060 1242 1175 1264 1140 b 1288 994 1338 1033 1315 1007 b 1201 1165 1269 1038 1238 1101 b 1018 994 1174 1136 1107 1074 b 978 1071 999 1014 982 1040 m 1158 1397 b 1272 1508 1171 1450 1221 1504 b 1435 1342 1301 1438 1374 1381 b 1417 1304 1435 1328 1426 1311 b 1158 1397 1318 1315 1207 1343 "},"Ẩ":{"ha":1376,"x_min":0,"x_max":0,"o":"m 60 -279 b -154 -168 -33 -294 -135 -235 b 358 388 -60 -26 135 183 b 35 350 250 386 139 374 b 99 485 33 382 50 429 b 450 471 178 503 306 494 b 1121 950 678 668 924 853 b 1153 897 1140 936 1150 917 l 1114 874 b 1144 876 1124 875 1135 876 b 999 126 961 557 890 194 b 1381 372 1104 60 1286 186 l 1424 343 b 847 13 1275 22 967 -68 b 831 322 786 54 785 167 b 522 383 753 353 644 375 b 60 -279 300 150 119 -100 m 583 446 b 849 383 672 428 763 406 b 1057 839 893 514 965 671 b 583 446 899 735 733 596 m 1001 1085 b 1188 1260 1076 1136 1143 1200 b 1261 1233 1219 1254 1251 1244 b 1376 1074 1265 1189 1288 1154 b 1311 1008 1361 1047 1339 1021 b 1225 1179 1293 1051 1261 1115 b 1042 1008 1197 1150 1131 1088 b 1001 1085 1022 1028 1006 1054 m 1153 1319 b 1381 1581 1363 1397 1421 1531 b 1257 1600 1342 1625 1288 1613 b 1254 1615 1253 1603 1251 1608 b 1525 1665 1361 1710 1472 1728 b 1161 1304 1590 1589 1504 1411 l 1153 1319 "},"Ẫ":{"ha":1376,"x_min":0,"x_max":0,"o":"m 60 -279 b -154 -168 -33 -294 -135 -235 b 358 388 -60 -26 135 183 b 35 350 250 386 139 374 b 99 485 33 382 50 429 b 450 471 178 503 306 494 b 1121 950 678 668 924 853 b 1153 897 1140 936 1150 917 l 1114 874 b 1144 876 1124 875 1135 876 b 999 126 961 557 890 194 b 1381 372 1104 60 1286 186 l 1424 343 b 847 13 1275 22 967 -68 b 831 322 786 54 785 167 b 522 383 753 353 644 375 b 60 -279 300 150 119 -100 m 583 446 b 849 383 672 428 763 406 b 1057 839 893 514 965 671 b 583 446 899 735 733 596 m 996 1096 b 1182 1271 1071 1147 1138 1211 b 1256 1244 1214 1265 1246 1256 b 1371 1085 1260 1200 1282 1165 b 1306 1019 1356 1058 1333 1032 b 1219 1190 1288 1063 1256 1126 b 1036 1019 1192 1161 1125 1099 b 996 1096 1017 1039 1000 1065 m 1097 1444 b 1369 1436 1332 1651 1283 1403 b 1444 1515 1411 1451 1435 1486 b 1557 1469 1503 1538 1564 1532 b 1308 1344 1464 1367 1344 1336 b 1246 1465 1267 1351 1283 1469 b 1168 1340 1211 1461 1176 1392 b 1097 1444 1121 1336 1092 1401 "},"Ä":{"ha":1376,"x_min":0,"x_max":0,"o":"m 60 -279 b -154 -168 -33 -294 -135 -235 b 358 388 -60 -26 135 183 b 35 350 250 386 139 374 b 99 485 33 382 50 429 b 450 471 178 503 306 494 b 1121 950 678 668 924 853 b 1153 897 1140 936 1150 917 l 1114 874 b 1144 876 1124 875 1135 876 b 999 126 961 557 890 194 b 1381 372 1104 60 1286 186 l 1424 343 b 847 13 1275 22 967 -68 b 831 322 786 54 785 167 b 522 383 753 353 644 375 b 60 -279 300 150 119 -100 m 583 446 b 849 383 672 428 763 406 b 1057 839 893 514 965 671 b 583 446 899 735 733 596 m 964 1121 b 1103 1231 990 1140 1044 1175 b 1203 1156 1122 1208 1158 1178 b 1319 1250 1231 1176 1274 1206 b 1433 1169 1340 1226 1381 1192 b 1275 1029 1392 1121 1333 1064 b 1192 1121 1249 1053 1215 1086 b 1058 1010 1158 1088 1113 1042 b 964 1121 1025 1040 986 1082 "},"Ǟ":{"ha":1376,"x_min":0,"x_max":0,"o":"m 60 -279 b -154 -168 -33 -294 -135 -235 b 358 388 -60 -26 135 183 b 35 350 250 386 139 374 b 99 485 33 382 50 429 b 450 471 178 503 306 494 b 1121 950 678 668 924 853 b 1153 897 1140 936 1150 917 l 1114 874 b 1144 876 1124 875 1135 876 b 999 126 961 557 890 194 b 1381 372 1104 60 1286 186 l 1424 343 b 847 13 1275 22 967 -68 b 831 322 786 54 785 167 b 522 383 753 353 644 375 b 60 -279 300 150 119 -100 m 583 446 b 849 383 672 428 763 406 b 1057 839 893 514 965 671 b 583 446 899 735 733 596 m 964 1121 b 1103 1231 990 1140 1044 1175 b 1203 1156 1122 1208 1158 1178 b 1319 1250 1231 1176 1274 1206 b 1433 1169 1340 1226 1381 1192 b 1275 1029 1392 1121 1333 1064 b 1192 1121 1249 1053 1215 1086 b 1058 1010 1158 1088 1113 1042 b 964 1121 1025 1040 986 1082 m 1069 1360 b 1104 1426 1074 1378 1088 1403 b 1450 1425 1228 1414 1360 1408 b 1431 1318 1467 1401 1449 1347 b 1069 1360 1281 1290 1117 1342 "},"Ạ":{"ha":1376,"x_min":0,"x_max":0,"o":"m 60 -279 b -154 -168 -33 -294 -135 -235 b 358 388 -60 -26 135 183 b 35 350 250 386 139 374 b 99 485 33 382 50 429 b 450 471 178 503 306 494 b 1121 950 678 668 924 853 b 1153 897 1140 936 1150 917 l 1114 874 b 1144 876 1124 875 1135 876 b 999 126 961 557 890 194 b 1381 372 1104 60 1286 186 l 1424 343 b 847 13 1275 22 967 -68 b 831 322 786 54 785 167 b 522 383 753 353 644 375 b 60 -279 300 150 119 -100 m 356 -207 b 494 -97 382 -187 435 -154 b 608 -178 515 -121 556 -156 b 450 -318 567 -226 508 -283 b 356 -207 417 -287 379 -246 m 583 446 b 849 383 672 428 763 406 b 1057 839 893 514 965 671 b 583 446 899 735 733 596 "},"À":{"ha":1376,"x_min":0,"x_max":0,"o":"m 60 -279 b -154 -168 -33 -294 -135 -235 b 358 388 -60 -26 135 183 b 35 350 250 386 139 374 b 99 485 33 382 50 429 b 450 471 178 503 306 494 b 1121 950 678 668 924 853 b 1153 897 1140 936 1150 917 l 1114 874 b 1144 876 1124 875 1135 876 b 999 126 961 557 890 194 b 1381 372 1104 60 1286 186 l 1424 343 b 847 13 1275 22 967 -68 b 831 322 786 54 785 167 b 522 383 753 353 644 375 b 60 -279 300 150 119 -100 m 583 446 b 849 383 672 428 763 406 b 1057 839 893 514 965 671 b 583 446 899 735 733 596 m 1064 1125 b 1178 1236 1076 1178 1126 1232 b 1340 1069 1207 1165 1279 1108 b 1322 1032 1340 1056 1332 1039 b 1064 1125 1224 1043 1113 1071 "},"Ả":{"ha":1376,"x_min":0,"x_max":0,"o":"m 60 -279 b -154 -168 -33 -294 -135 -235 b 358 388 -60 -26 135 183 b 35 350 250 386 139 374 b 99 485 33 382 50 429 b 450 471 178 503 306 494 b 1121 950 678 668 924 853 b 1153 897 1140 936 1150 917 l 1114 874 b 1144 876 1124 875 1135 876 b 999 126 961 557 890 194 b 1381 372 1104 60 1286 186 l 1424 343 b 847 13 1275 22 967 -68 b 831 322 786 54 785 167 b 522 383 753 353 644 375 b 60 -279 300 150 119 -100 m 583 446 b 849 383 672 428 763 406 b 1057 839 893 514 965 671 b 583 446 899 735 733 596 m 1035 1033 b 1263 1294 1244 1111 1303 1244 b 1139 1314 1224 1339 1169 1326 b 1136 1329 1135 1317 1133 1322 b 1407 1379 1243 1424 1354 1442 b 1043 1018 1472 1303 1386 1125 l 1035 1033 "},"Ā":{"ha":1376,"x_min":0,"x_max":0,"o":"m 60 -279 b -154 -168 -33 -294 -135 -235 b 358 388 -60 -26 135 183 b 35 350 250 386 139 374 b 99 485 33 382 50 429 b 450 471 178 503 306 494 b 1121 950 678 668 924 853 b 1153 897 1140 936 1150 917 l 1114 874 b 1144 876 1124 875 1135 876 b 999 126 961 557 890 194 b 1381 372 1104 60 1286 186 l 1424 343 b 847 13 1275 22 967 -68 b 831 322 786 54 785 167 b 522 383 753 353 644 375 b 60 -279 300 150 119 -100 m 583 446 b 849 383 672 428 763 406 b 1057 839 893 514 965 671 b 583 446 899 735 733 596 m 968 1078 b 1003 1144 972 1096 986 1121 b 1349 1143 1126 1132 1258 1126 b 1329 1036 1365 1119 1347 1065 b 968 1078 1179 1008 1015 1060 "},"Ą":{"ha":1376,"x_min":0,"x_max":0,"o":"m 60 -279 b -154 -168 -33 -294 -135 -235 b 358 388 -60 -26 135 183 b 35 350 250 386 139 374 b 99 485 33 382 50 429 b 450 471 178 503 306 494 b 1121 950 678 668 924 853 b 1153 897 1140 936 1150 917 l 1114 874 b 1144 876 1124 875 1135 876 b 999 126 961 557 890 194 b 1381 372 1104 60 1286 186 l 1424 343 b 1007 -11 1322 124 1146 13 b 813 -258 825 -90 775 -211 b 936 -278 851 -303 906 -290 b 939 -293 940 -281 942 -286 b 668 -343 832 -387 721 -406 b 939 -15 610 -274 674 -122 b 847 13 903 -12 871 -4 b 831 322 786 54 785 167 b 522 383 753 353 644 375 b 60 -279 300 150 119 -100 m 583 446 b 849 383 672 428 763 406 b 1057 839 893 514 965 671 b 583 446 899 735 733 596 "},"Å":{"ha":1376,"x_min":0,"x_max":0,"o":"m 60 -279 b -154 -168 -33 -294 -135 -235 b 358 388 -60 -26 135 183 b 35 350 250 386 139 374 b 99 485 33 382 50 429 b 450 471 178 503 306 494 b 1121 950 678 668 924 853 b 1153 897 1140 936 1150 917 l 1114 874 b 1144 876 1124 875 1135 876 b 999 126 961 557 890 194 b 1381 372 1104 60 1286 186 l 1424 343 b 847 13 1275 22 967 -68 b 831 322 786 54 785 167 b 522 383 753 353 644 375 b 60 -279 300 150 119 -100 m 583 446 b 849 383 672 428 763 406 b 1057 839 893 514 965 671 b 583 446 899 735 733 596 m 1188 1039 b 1303 1286 907 983 1014 1221 b 1188 1039 1575 1346 1488 1099 m 1200 1075 b 1261 1240 1272 1082 1435 1256 b 1200 1075 1129 1228 1088 1065 "},"Ã":{"ha":1376,"x_min":0,"x_max":0,"o":"m 60 -279 b -154 -168 -33 -294 -135 -235 b 358 388 -60 -26 135 183 b 35 350 250 386 139 374 b 99 485 33 382 50 429 b 450 471 178 503 306 494 b 1121 950 678 668 924 853 b 1153 897 1140 936 1150 917 l 1114 874 b 1144 876 1124 875 1135 876 b 999 126 961 557 890 194 b 1381 372 1104 60 1286 186 l 1424 343 b 847 13 1275 22 967 -68 b 831 322 786 54 785 167 b 522 383 753 353 644 375 b 60 -279 300 150 119 -100 m 583 446 b 849 383 672 428 763 406 b 1057 839 893 514 965 671 b 583 446 899 735 733 596 m 985 1147 b 1257 1139 1219 1354 1171 1106 b 1332 1218 1299 1154 1322 1189 b 1444 1172 1390 1240 1451 1235 b 1196 1047 1351 1069 1232 1039 b 1133 1168 1154 1054 1171 1172 b 1056 1043 1099 1164 1064 1094 b 985 1147 1008 1039 979 1104 "},"Æ":{"ha":1872,"x_min":0,"x_max":0,"o":"m 60 -279 b -154 -168 -33 -294 -135 -235 b 358 388 -60 -26 135 183 b 35 350 250 386 139 374 b 99 485 33 382 50 429 b 450 471 178 503 306 494 b 1121 950 678 668 924 853 b 1151 906 1138 938 1147 922 b 1669 925 1311 994 1539 1010 b 1669 563 1828 821 1674 676 b 1449 606 1608 549 1482 558 b 1604 869 1493 718 1675 774 b 1119 518 1508 997 1119 843 b 1393 446 1321 547 1414 514 b 1065 443 1372 374 1175 340 b 1063 8 890 358 865 108 b 1882 371 1286 -103 1740 65 l 1925 344 b 899 -75 1747 -46 1206 -226 b 776 342 682 32 686 215 b 522 383 706 361 618 376 b 60 -279 300 150 119 -100 m 583 446 b 819 392 663 431 742 411 b 1025 479 876 446 951 482 b 1064 843 933 629 969 756 b 583 446 904 739 736 599 "},"Ǣ":{"ha":1872,"x_min":0,"x_max":0,"o":"m 60 -279 b -154 -168 -33 -294 -135 -235 b 358 388 -60 -26 135 183 b 35 350 250 386 139 374 b 99 485 33 382 50 429 b 450 471 178 503 306 494 b 1121 950 678 668 924 853 b 1151 906 1138 938 1147 922 b 1669 925 1311 994 1539 1010 b 1669 563 1828 821 1674 676 b 1449 606 1608 549 1482 558 b 1604 869 1493 718 1675 774 b 1119 518 1508 997 1119 843 b 1393 446 1321 547 1414 514 b 1065 443 1372 374 1175 340 b 1063 8 890 358 865 108 b 1882 371 1286 -103 1740 65 l 1925 344 b 899 -75 1747 -46 1206 -226 b 776 342 682 32 686 215 b 522 383 706 361 618 376 b 60 -279 300 150 119 -100 m 583 446 b 819 392 663 431 742 411 b 1025 479 876 446 951 482 b 1064 843 933 629 969 756 b 583 446 904 739 736 599 m 968 1078 b 1003 1144 972 1096 986 1121 b 1349 1143 1126 1132 1258 1126 b 1329 1036 1365 1119 1347 1065 b 968 1078 1179 1008 1015 1060 "},"B":{"ha":1394,"x_min":0,"x_max":0,"o":"m 633 -168 b 82 194 393 -192 75 -89 b 243 219 117 217 190 235 b 732 -99 192 8 386 -174 b 899 367 1119 -14 1068 264 b 640 365 821 354 735 351 b 510 -14 582 257 532 133 b 367 65 457 -22 379 21 b 792 885 410 257 657 506 b 928 864 826 890 899 878 b 664 408 894 731 771 593 b 1060 900 1079 332 1299 714 b 279 701 825 1083 446 824 b 201 824 238 719 204 758 b 1188 949 471 946 857 1114 b 1092 432 1410 838 1342 565 b 633 -168 1336 271 1133 -126 "},"Ḅ":{"ha":1394,"x_min":0,"x_max":0,"o":"m 633 -168 b 82 194 393 -192 75 -89 b 243 219 117 217 190 235 b 732 -99 192 8 386 -174 b 899 367 1119 -14 1068 264 b 640 365 821 354 735 351 b 510 -14 582 257 532 133 b 367 65 457 -22 379 21 b 792 885 410 257 657 506 b 928 864 826 890 899 878 b 664 408 894 731 771 593 b 1060 900 1079 332 1299 714 b 279 701 825 1083 446 824 b 201 824 238 719 204 758 b 1188 949 471 946 857 1114 b 1092 432 1410 838 1342 565 b 633 -168 1336 271 1133 -126 m 364 -354 b 503 -244 390 -335 443 -301 b 617 -325 524 -268 564 -303 b 458 -465 575 -374 517 -431 b 364 -354 425 -435 388 -393 "},"Ƀ":{"ha":1394,"x_min":0,"x_max":0,"o":"m 633 -168 b 82 194 393 -192 75 -89 b 243 219 117 217 190 235 b 732 -99 192 8 386 -174 b 899 367 1119 -14 1068 264 b 640 365 821 354 735 351 b 608 301 629 344 618 324 b 814 267 692 300 765 288 b 779 138 813 208 803 178 b 551 161 724 154 642 165 b 510 -14 533 107 519 49 b 367 65 457 -22 379 21 b 390 138 372 89 381 113 b 290 103 357 129 322 118 b 385 281 293 172 339 239 b 476 294 415 286 446 292 b 792 885 571 450 706 640 b 928 864 826 890 899 878 b 664 408 894 731 771 593 b 1060 900 1079 332 1299 714 b 279 701 825 1083 446 824 b 201 824 238 719 204 758 b 1188 949 471 946 857 1114 b 1092 432 1410 838 1342 565 b 633 -168 1336 271 1133 -126 "},"C":{"ha":1156,"x_min":0,"x_max":0,"o":"m 226 -60 b 951 925 -356 278 471 1238 b 899 508 1107 822 908 622 b 678 553 839 494 711 503 b 883 869 726 668 951 775 b 363 683 782 1004 514 896 b 372 31 218 479 169 156 b 1163 372 585 -99 1021 65 l 1206 344 b 226 -60 1028 -47 521 -233 "},"Ć":{"ha":1156,"x_min":0,"x_max":0,"o":"m 226 -60 b 951 925 -356 278 471 1238 b 899 508 1107 822 908 622 b 678 553 839 494 711 503 b 883 869 726 668 951 775 b 363 683 782 1004 514 896 b 372 31 218 479 169 156 b 1163 372 585 -99 1021 65 l 1206 344 b 226 -60 1028 -47 521 -233 m 715 1028 b 722 1076 711 1035 714 1057 b 982 1310 810 1132 915 1214 b 1036 1179 1032 1313 1054 1250 b 715 1028 957 1101 822 1051 "},"Č":{"ha":1156,"x_min":0,"x_max":0,"o":"m 226 -60 b 951 925 -356 278 471 1238 b 899 508 1107 822 908 622 b 678 553 839 494 711 503 b 883 869 726 668 951 775 b 363 683 782 1004 514 896 b 372 31 218 479 169 156 b 1163 372 585 -99 1021 65 l 1206 344 b 226 -60 1028 -47 521 -233 m 663 1201 b 729 1267 678 1228 700 1256 b 815 1094 747 1225 779 1161 b 999 1267 843 1125 910 1188 b 1039 1190 1018 1247 1035 1221 b 853 1015 964 1139 897 1075 b 779 1042 821 1021 789 1031 b 663 1201 774 1086 751 1121 "},"Ç":{"ha":1156,"x_min":0,"x_max":0,"o":"m 226 -60 b 951 925 -356 278 471 1238 b 899 508 1107 822 908 622 b 678 553 839 494 711 503 b 883 869 726 668 951 775 b 363 683 782 1004 514 896 b 372 31 218 479 169 156 b 1163 372 585 -99 1021 65 l 1206 344 b 365 -112 1053 10 660 -175 l 276 -185 b 450 -404 464 -178 535 -300 b 71 -439 371 -499 175 -519 b 86 -411 72 -429 78 -419 b 306 -360 169 -442 254 -424 b 193 -217 354 -294 321 -217 l 208 -189 l 338 -106 b 226 -60 299 -96 261 -81 "},"Ĉ":{"ha":1156,"x_min":0,"x_max":0,"o":"m 226 -60 b 951 925 -356 278 471 1238 b 899 508 1107 822 908 622 b 678 553 839 494 711 503 b 883 869 726 668 951 775 b 363 683 782 1004 514 896 b 372 31 218 479 169 156 b 1163 372 585 -99 1021 65 l 1206 344 b 226 -60 1028 -47 521 -233 m 658 1071 b 844 1246 733 1122 800 1186 b 918 1219 876 1240 908 1231 b 1033 1060 922 1175 944 1140 b 968 994 1018 1033 996 1007 b 882 1165 950 1038 918 1101 b 699 994 854 1136 788 1074 b 658 1071 679 1014 663 1040 "},"Ċ":{"ha":1156,"x_min":0,"x_max":0,"o":"m 226 -60 b 951 925 -356 278 471 1238 b 899 508 1107 822 908 622 b 678 553 839 494 711 503 b 883 869 726 668 951 775 b 363 683 782 1004 514 896 b 372 31 218 479 169 156 b 1163 372 585 -99 1021 65 l 1206 344 b 226 -60 1028 -47 521 -233 m 746 1154 b 885 1264 772 1174 825 1207 b 999 1183 906 1240 946 1206 b 840 1043 957 1135 899 1078 b 746 1154 807 1074 769 1115 "},"D":{"ha":1529,"x_min":0,"x_max":0,"o":"m 524 -14 b 381 65 471 -22 393 21 b 804 885 424 257 671 506 b 942 864 839 890 911 878 b 524 -14 886 646 589 413 m 82 194 b 244 219 117 217 190 235 b 732 -99 192 8 388 -172 b 1043 933 1206 1 1394 757 b 279 701 779 1067 444 824 b 201 824 238 719 204 758 b 1188 949 471 946 857 1114 b 747 -151 1669 707 1313 -46 b 82 194 360 -225 75 -90 "},"Ɖ":{"ha":1529,"x_min":0,"x_max":0,"o":"m 524 -14 b 381 65 471 -22 393 21 b 538 372 400 153 463 253 b 365 322 479 363 421 347 b 460 500 368 392 414 458 b 629 521 518 511 575 518 b 804 885 693 626 756 747 b 942 864 839 890 911 878 b 746 518 915 758 832 650 b 889 486 803 513 853 501 b 854 357 888 428 878 397 b 663 381 807 371 739 382 b 524 -14 601 269 547 140 m 82 194 b 244 219 117 217 190 235 b 732 -99 192 8 388 -172 b 1043 933 1206 1 1394 757 b 279 701 779 1067 444 824 b 201 824 238 719 204 758 b 1188 949 471 946 857 1114 b 747 -151 1669 707 1313 -46 b 82 194 360 -225 75 -90 "},"Ð":{"ha":1529,"x_min":0,"x_max":0,"o":"m 524 -14 b 381 65 471 -22 393 21 b 538 372 400 153 463 253 b 365 322 479 363 421 347 b 460 500 368 392 414 458 b 629 521 518 511 575 518 b 804 885 693 626 756 747 b 942 864 839 890 911 878 b 746 518 915 758 832 650 b 889 486 803 513 853 501 b 854 357 888 428 878 397 b 663 381 807 371 739 382 b 524 -14 601 269 547 140 m 82 194 b 244 219 117 217 190 235 b 732 -99 192 8 388 -172 b 1043 933 1206 1 1394 757 b 279 701 779 1067 444 824 b 201 824 238 719 204 758 b 1188 949 471 946 857 1114 b 747 -151 1669 707 1313 -46 b 82 194 360 -225 75 -90 "},"Ď":{"ha":1529,"x_min":0,"x_max":0,"o":"m 524 -14 b 381 65 471 -22 393 21 b 804 885 424 257 671 506 b 942 864 839 890 911 878 b 524 -14 886 646 589 413 m 82 194 b 244 219 117 217 190 235 b 732 -99 192 8 388 -172 b 1043 933 1206 1 1394 757 b 279 701 779 1067 444 824 b 201 824 238 719 204 758 b 1188 949 471 946 857 1114 b 747 -151 1669 707 1313 -46 b 82 194 360 -225 75 -90 m 928 1204 b 994 1269 943 1231 965 1258 b 1081 1097 1013 1228 1044 1164 b 1264 1269 1108 1128 1175 1190 b 1304 1193 1283 1250 1300 1224 b 1118 1018 1229 1142 1163 1078 b 1044 1044 1086 1024 1054 1033 b 928 1204 1039 1089 1017 1124 "},"Đ":{"ha":1529,"x_min":0,"x_max":0,"o":"m 524 -14 b 381 65 471 -22 393 21 b 538 372 400 153 463 253 b 365 322 479 363 421 347 b 460 500 368 392 414 458 b 629 521 518 511 575 518 b 804 885 693 626 756 747 b 942 864 839 890 911 878 b 746 518 915 758 832 650 b 889 486 803 513 853 501 b 854 357 888 428 878 397 b 663 381 807 371 739 382 b 524 -14 601 269 547 140 m 82 194 b 244 219 117 217 190 235 b 732 -99 192 8 388 -172 b 1043 933 1206 1 1394 757 b 279 701 779 1067 444 824 b 201 824 238 719 204 758 b 1188 949 471 946 857 1114 b 747 -151 1669 707 1313 -46 b 82 194 360 -225 75 -90 "},"Ḍ":{"ha":1529,"x_min":0,"x_max":0,"o":"m 524 -14 b 381 65 471 -22 393 21 b 804 885 424 257 671 506 b 942 864 839 890 911 878 b 524 -14 886 646 589 413 m 82 194 b 244 219 117 217 190 235 b 732 -99 192 8 388 -172 b 1043 933 1206 1 1394 757 b 279 701 779 1067 444 824 b 201 824 238 719 204 758 b 1188 949 471 946 857 1114 b 747 -151 1669 707 1313 -46 b 82 194 360 -225 75 -90 m 269 -374 b 408 -264 296 -354 349 -321 b 522 -344 429 -287 469 -322 b 364 -485 481 -393 422 -450 b 269 -374 331 -454 293 -412 "},"Ḏ":{"ha":1529,"x_min":0,"x_max":0,"o":"m 524 -14 b 381 65 471 -22 393 21 b 804 885 424 257 671 506 b 942 864 839 890 911 878 b 524 -14 886 646 589 413 m 82 194 b 244 219 117 217 190 235 b 732 -99 192 8 388 -172 b 1043 933 1206 1 1394 757 b 279 701 779 1067 444 824 b 201 824 238 719 204 758 b 1188 949 471 946 857 1114 b 747 -151 1669 707 1313 -46 b 82 194 360 -225 75 -90 m 215 -339 b 250 -272 219 -321 233 -296 b 596 -274 374 -285 506 -290 b 576 -381 613 -297 594 -351 b 215 -339 426 -408 263 -357 "},"E":{"ha":1135,"x_min":0,"x_max":0,"o":"m 157 -75 b 283 479 -201 101 43 486 b 928 925 44 871 674 1092 b 928 563 1086 821 932 676 b 707 606 867 549 740 558 b 863 869 751 718 933 774 b 378 518 767 997 378 843 b 651 446 579 547 672 514 b 324 443 631 374 433 340 b 321 8 149 358 124 108 b 1140 371 544 -103 999 65 l 1183 344 b 157 -75 1006 -46 464 -226 "},"É":{"ha":1135,"x_min":0,"x_max":0,"o":"m 157 -75 b 283 479 -201 101 43 486 b 928 925 44 871 674 1092 b 928 563 1086 821 932 676 b 707 606 867 549 740 558 b 863 869 751 718 933 774 b 378 518 767 997 378 843 b 651 446 579 547 672 514 b 324 443 631 374 433 340 b 321 8 149 358 124 108 b 1140 371 544 -103 999 65 l 1183 344 b 157 -75 1006 -46 464 -226 m 668 1047 b 675 1096 664 1054 667 1076 b 935 1329 763 1151 868 1233 b 989 1199 985 1332 1007 1269 b 668 1047 910 1121 775 1071 "},"Ě":{"ha":1135,"x_min":0,"x_max":0,"o":"m 157 -75 b 283 479 -201 101 43 486 b 928 925 44 871 674 1092 b 928 563 1086 821 932 676 b 707 606 867 549 740 558 b 863 869 751 718 933 774 b 378 518 767 997 378 843 b 651 446 579 547 672 514 b 324 443 631 374 433 340 b 321 8 149 358 124 108 b 1140 371 544 -103 999 65 l 1183 344 b 157 -75 1006 -46 464 -226 m 615 1221 b 682 1286 631 1247 653 1275 b 768 1114 700 1244 732 1181 b 951 1286 796 1144 863 1207 b 992 1210 971 1267 988 1240 b 806 1035 917 1158 850 1094 b 732 1061 774 1040 742 1050 b 615 1221 726 1106 704 1140 "},"Ȩ":{"ha":1135,"x_min":0,"x_max":0,"o":"m 157 -75 b 283 479 -201 101 43 486 b 928 925 44 871 674 1092 b 928 563 1086 821 932 676 b 707 606 867 549 740 558 b 863 869 751 718 933 774 b 378 518 767 997 378 843 b 651 446 579 547 672 514 b 324 443 631 374 433 340 b 321 8 149 358 124 108 b 1140 371 544 -103 999 65 l 1183 344 b 304 -121 1032 11 614 -169 l 226 -183 b 400 -403 414 -176 485 -299 b 21 -437 321 -497 125 -518 b 36 -410 22 -428 28 -418 b 256 -358 119 -440 204 -422 b 143 -215 304 -293 271 -215 l 158 -187 l 272 -114 b 157 -75 232 -106 193 -93 "},"Ê":{"ha":1135,"x_min":0,"x_max":0,"o":"m 157 -75 b 283 479 -201 101 43 486 b 928 925 44 871 674 1092 b 928 563 1086 821 932 676 b 707 606 867 549 740 558 b 863 869 751 718 933 774 b 378 518 767 997 378 843 b 651 446 579 547 672 514 b 324 443 631 374 433 340 b 321 8 149 358 124 108 b 1140 371 544 -103 999 65 l 1183 344 b 157 -75 1006 -46 464 -226 m 611 1090 b 797 1265 686 1142 753 1206 b 871 1239 829 1260 861 1250 b 986 1079 875 1194 897 1160 b 921 1014 971 1053 949 1026 b 835 1185 903 1057 871 1121 b 651 1014 807 1156 740 1093 b 611 1090 632 1033 615 1060 "},"Ế":{"ha":1135,"x_min":0,"x_max":0,"o":"m 157 -75 b 283 479 -201 101 43 486 b 928 925 44 871 674 1092 b 928 563 1086 821 932 676 b 707 606 867 549 740 558 b 863 869 751 718 933 774 b 378 518 767 997 378 843 b 651 446 579 547 672 514 b 324 443 631 374 433 340 b 321 8 149 358 124 108 b 1140 371 544 -103 999 65 l 1183 344 b 157 -75 1006 -46 464 -226 m 583 1076 b 769 1251 658 1128 725 1192 b 843 1225 801 1246 833 1236 b 958 1065 847 1181 869 1146 b 893 1000 943 1039 921 1013 b 807 1171 875 1043 843 1107 b 624 1000 779 1142 713 1079 b 583 1076 604 1019 588 1046 m 753 1300 b 760 1349 749 1307 751 1329 b 1019 1582 847 1404 953 1486 b 1074 1451 1069 1585 1092 1522 b 753 1300 994 1374 860 1324 "},"Ệ":{"ha":1135,"x_min":0,"x_max":0,"o":"m 157 -75 b 283 479 -201 101 43 486 b 928 925 44 871 674 1092 b 928 563 1086 821 932 676 b 707 606 867 549 740 558 b 863 869 751 718 933 774 b 378 518 767 997 378 843 b 651 446 579 547 672 514 b 324 443 631 374 433 340 b 321 8 149 358 124 108 b 1140 371 544 -103 999 65 l 1183 344 b 157 -75 1006 -46 464 -226 m 129 -322 b 268 -212 156 -303 208 -269 b 382 -293 289 -236 329 -271 b 224 -433 340 -342 282 -399 b 129 -322 190 -403 153 -361 m 611 1090 b 797 1265 686 1142 753 1206 b 871 1239 829 1260 861 1250 b 986 1079 875 1194 897 1160 b 921 1014 971 1053 949 1026 b 835 1185 903 1057 871 1121 b 651 1014 807 1156 740 1093 b 611 1090 632 1033 615 1060 "},"Ề":{"ha":1135,"x_min":0,"x_max":0,"o":"m 157 -75 b 283 479 -201 101 43 486 b 928 925 44 871 674 1092 b 928 563 1086 821 932 676 b 707 606 867 549 740 558 b 863 869 751 718 933 774 b 378 518 767 997 378 843 b 651 446 579 547 672 514 b 324 443 631 374 433 340 b 321 8 149 358 124 108 b 1140 371 544 -103 999 65 l 1183 344 b 157 -75 1006 -46 464 -226 m 593 1096 b 779 1271 668 1147 735 1211 b 853 1244 811 1265 843 1256 b 968 1085 857 1200 879 1165 b 903 1019 953 1058 931 1032 b 817 1190 885 1063 853 1126 b 633 1019 789 1161 722 1099 b 593 1096 614 1039 597 1065 m 774 1422 b 888 1533 786 1475 836 1529 b 1050 1367 917 1463 989 1406 b 1032 1329 1050 1353 1042 1336 b 774 1422 933 1340 822 1368 "},"Ể":{"ha":1135,"x_min":0,"x_max":0,"o":"m 157 -75 b 283 479 -201 101 43 486 b 928 925 44 871 674 1092 b 928 563 1086 821 932 676 b 707 606 867 549 740 558 b 863 869 751 718 933 774 b 378 518 767 997 378 843 b 651 446 579 547 672 514 b 324 443 631 374 433 340 b 321 8 149 358 124 108 b 1140 371 544 -103 999 65 l 1183 344 b 157 -75 1006 -46 464 -226 m 617 1110 b 803 1285 692 1161 758 1225 b 876 1258 835 1279 867 1269 b 992 1099 881 1214 903 1179 b 926 1033 976 1072 954 1046 b 840 1204 908 1076 876 1140 b 657 1033 813 1175 746 1113 b 617 1110 638 1053 621 1079 m 768 1344 b 996 1606 978 1422 1036 1556 b 872 1625 957 1650 903 1638 b 869 1640 868 1628 867 1633 b 1140 1690 976 1735 1088 1753 b 776 1329 1206 1614 1119 1436 l 768 1344 "},"Ễ":{"ha":1135,"x_min":0,"x_max":0,"o":"m 157 -75 b 283 479 -201 101 43 486 b 928 925 44 871 674 1092 b 928 563 1086 821 932 676 b 707 606 867 549 740 558 b 863 869 751 718 933 774 b 378 518 767 997 378 843 b 651 446 579 547 672 514 b 324 443 631 374 433 340 b 321 8 149 358 124 108 b 1140 371 544 -103 999 65 l 1183 344 b 157 -75 1006 -46 464 -226 m 611 1121 b 797 1296 686 1172 753 1236 b 871 1269 829 1290 861 1281 b 986 1110 875 1225 897 1190 b 921 1044 971 1083 949 1057 b 835 1215 903 1088 871 1151 b 651 1044 807 1186 740 1124 b 611 1121 632 1064 615 1090 m 713 1469 b 985 1461 947 1676 899 1428 b 1060 1540 1026 1476 1050 1511 b 1172 1494 1118 1563 1179 1557 b 924 1369 1079 1392 960 1361 b 861 1490 882 1376 899 1494 b 783 1365 826 1486 792 1417 b 713 1469 736 1361 707 1426 "},"Ë":{"ha":1135,"x_min":0,"x_max":0,"o":"m 157 -75 b 283 479 -201 101 43 486 b 928 925 44 871 674 1092 b 928 563 1086 821 932 676 b 707 606 867 549 740 558 b 863 869 751 718 933 774 b 378 518 767 997 378 843 b 651 446 579 547 672 514 b 324 443 631 374 433 340 b 321 8 149 358 124 108 b 1140 371 544 -103 999 65 l 1183 344 b 157 -75 1006 -46 464 -226 m 579 1146 b 718 1256 606 1165 660 1200 b 818 1181 738 1233 774 1203 b 935 1275 846 1201 889 1231 b 1049 1194 956 1251 996 1217 b 890 1054 1007 1146 949 1089 b 807 1146 864 1078 831 1111 b 674 1035 774 1113 728 1067 b 579 1146 640 1065 601 1107 "},"Ė":{"ha":1135,"x_min":0,"x_max":0,"o":"m 157 -75 b 283 479 -201 101 43 486 b 928 925 44 871 674 1092 b 928 563 1086 821 932 676 b 707 606 867 549 740 558 b 863 869 751 718 933 774 b 378 518 767 997 378 843 b 651 446 579 547 672 514 b 324 443 631 374 433 340 b 321 8 149 358 124 108 b 1140 371 544 -103 999 65 l 1183 344 b 157 -75 1006 -46 464 -226 m 699 1174 b 838 1283 725 1193 778 1226 b 951 1203 858 1260 899 1225 b 793 1063 910 1154 851 1097 b 699 1174 760 1093 722 1135 "},"Ẹ":{"ha":1135,"x_min":0,"x_max":0,"o":"m 157 -75 b 283 479 -201 101 43 486 b 928 925 44 871 674 1092 b 928 563 1086 821 932 676 b 707 606 867 549 740 558 b 863 869 751 718 933 774 b 378 518 767 997 378 843 b 651 446 579 547 672 514 b 324 443 631 374 433 340 b 321 8 149 358 124 108 b 1140 371 544 -103 999 65 l 1183 344 b 157 -75 1006 -46 464 -226 m 129 -322 b 268 -212 156 -303 208 -269 b 382 -293 289 -236 329 -271 b 224 -433 340 -342 282 -399 b 129 -322 190 -403 153 -361 "},"È":{"ha":1135,"x_min":0,"x_max":0,"o":"m 157 -75 b 283 479 -201 101 43 486 b 928 925 44 871 674 1092 b 928 563 1086 821 932 676 b 707 606 867 549 740 558 b 863 869 751 718 933 774 b 378 518 767 997 378 843 b 651 446 579 547 672 514 b 324 443 631 374 433 340 b 321 8 149 358 124 108 b 1140 371 544 -103 999 65 l 1183 344 b 157 -75 1006 -46 464 -226 m 679 1150 b 793 1261 692 1203 742 1257 b 956 1094 822 1190 894 1133 b 938 1057 956 1081 947 1064 b 679 1150 839 1068 728 1096 "},"Ẻ":{"ha":1135,"x_min":0,"x_max":0,"o":"m 157 -75 b 283 479 -201 101 43 486 b 928 925 44 871 674 1092 b 928 563 1086 821 932 676 b 707 606 867 549 740 558 b 863 869 751 718 933 774 b 378 518 767 997 378 843 b 651 446 579 547 672 514 b 324 443 631 374 433 340 b 321 8 149 358 124 108 b 1140 371 544 -103 999 65 l 1183 344 b 157 -75 1006 -46 464 -226 m 650 1058 b 878 1319 860 1136 918 1269 b 754 1339 839 1364 785 1351 b 751 1354 750 1342 749 1347 b 1022 1404 858 1449 969 1467 b 658 1043 1088 1328 1001 1150 l 650 1058 "},"Ē":{"ha":1135,"x_min":0,"x_max":0,"o":"m 157 -75 b 283 479 -201 101 43 486 b 928 925 44 871 674 1092 b 928 563 1086 821 932 676 b 707 606 867 549 740 558 b 863 869 751 718 933 774 b 378 518 767 997 378 843 b 651 446 579 547 672 514 b 324 443 631 374 433 340 b 321 8 149 358 124 108 b 1140 371 544 -103 999 65 l 1183 344 b 157 -75 1006 -46 464 -226 m 583 1103 b 618 1169 588 1121 601 1146 b 964 1168 742 1157 874 1151 b 944 1061 981 1144 963 1090 b 583 1103 794 1033 631 1085 "},"Ę":{"ha":1135,"x_min":0,"x_max":0,"o":"m 157 -75 b 283 479 -201 101 43 486 b 928 925 44 871 674 1092 b 928 563 1086 821 932 676 b 707 606 867 549 740 558 b 863 869 751 718 933 774 b 378 518 767 997 378 843 b 651 446 579 547 672 514 b 324 443 631 374 433 340 b 321 8 149 358 124 108 b 1140 371 544 -103 999 65 l 1183 344 b 461 -126 1056 65 742 -107 b 261 -376 274 -206 222 -329 b 385 -396 300 -421 354 -408 b 388 -411 389 -399 390 -404 b 117 -461 281 -506 169 -524 b 400 -128 57 -392 124 -236 b 157 -75 311 -128 228 -110 "},"Ẽ":{"ha":1135,"x_min":0,"x_max":0,"o":"m 157 -75 b 283 479 -201 101 43 486 b 928 925 44 871 674 1092 b 928 563 1086 821 932 676 b 707 606 867 549 740 558 b 863 869 751 718 933 774 b 378 518 767 997 378 843 b 651 446 579 547 672 514 b 324 443 631 374 433 340 b 321 8 149 358 124 108 b 1140 371 544 -103 999 65 l 1183 344 b 157 -75 1006 -46 464 -226 m 600 1172 b 872 1164 835 1379 786 1131 b 947 1243 914 1179 938 1214 b 1060 1197 1006 1265 1067 1260 b 811 1072 967 1094 847 1064 b 749 1193 769 1079 786 1197 b 671 1068 714 1189 679 1119 b 600 1172 624 1064 594 1129 "},"F":{"ha":1335,"x_min":0,"x_max":0,"o":"m 1157 311 b 785 379 1083 343 944 367 b 353 -233 576 164 408 -68 b 163 -135 269 -247 181 -194 b 646 386 250 -3 435 196 b 117 350 457 393 258 382 b 182 485 117 382 132 429 b 724 456 278 507 486 489 b 1254 846 901 610 1092 754 b 206 811 954 888 551 883 b 308 1004 203 856 226 924 b 1342 897 549 1053 1068 957 b 1519 929 1389 906 1461 918 b 1517 790 1529 885 1532 832 b 1344 832 1467 807 1410 821 b 842 436 1181 739 1003 594 b 1168 378 950 419 1061 399 b 1157 311 1168 357 1165 332 "},"G":{"ha":1074,"x_min":0,"x_max":0,"o":"m 347 -644 b 304 -576 325 -624 307 -599 b 476 -19 353 -368 411 -179 b 103 -93 331 -107 190 -140 b 1003 925 -358 151 522 1238 b 950 508 1157 822 958 622 b 729 553 889 494 763 503 b 933 869 776 668 1004 775 b 414 683 833 1004 565 896 b 264 51 269 482 119 164 b 508 56 310 15 406 6 b 746 417 581 214 661 339 b 900 319 807 404 854 372 b 347 -644 719 186 429 -283 "},"Ğ":{"ha":1074,"x_min":0,"x_max":0,"o":"m 347 -644 b 304 -576 325 -624 307 -599 b 476 -19 353 -368 411 -179 b 103 -93 331 -107 190 -140 b 1003 925 -358 151 522 1238 b 950 508 1157 822 958 622 b 729 553 889 494 763 503 b 933 869 776 668 1004 775 b 414 683 833 1004 565 896 b 264 51 269 482 119 164 b 508 56 310 15 406 6 b 746 417 581 214 661 339 b 900 319 807 404 854 372 b 347 -644 719 186 429 -283 m 596 1154 b 757 1186 667 1221 751 1211 b 960 1176 749 1039 871 1007 b 1046 1168 1011 1203 1050 1188 b 596 1154 938 968 643 939 "},"Ǧ":{"ha":1074,"x_min":0,"x_max":0,"o":"m 347 -644 b 304 -576 325 -624 307 -599 b 476 -19 353 -368 411 -179 b 103 -93 331 -107 190 -140 b 1003 925 -358 151 522 1238 b 950 508 1157 822 958 622 b 729 553 889 494 763 503 b 933 869 776 668 1004 775 b 414 683 833 1004 565 896 b 264 51 269 482 119 164 b 508 56 310 15 406 6 b 746 417 581 214 661 339 b 900 319 807 404 854 372 b 347 -644 719 186 429 -283 m 622 1179 b 689 1244 638 1206 660 1233 b 775 1072 707 1203 739 1139 b 958 1244 803 1103 869 1165 b 999 1168 978 1225 994 1199 b 813 993 924 1117 857 1053 b 739 1019 781 999 749 1008 b 622 1179 733 1064 711 1099 "},"Ĝ":{"ha":1074,"x_min":0,"x_max":0,"o":"m 347 -644 b 304 -576 325 -624 307 -599 b 476 -19 353 -368 411 -179 b 103 -93 331 -107 190 -140 b 1003 925 -358 151 522 1238 b 950 508 1157 822 958 622 b 729 553 889 494 763 503 b 933 869 776 668 1004 775 b 414 683 833 1004 565 896 b 264 51 269 482 119 164 b 508 56 310 15 406 6 b 746 417 581 214 661 339 b 900 319 807 404 854 372 b 347 -644 719 186 429 -283 m 618 1049 b 804 1224 693 1100 760 1164 b 878 1197 836 1218 868 1208 b 993 1038 882 1153 904 1118 b 928 972 978 1011 956 985 b 842 1143 910 1015 878 1079 b 658 972 814 1114 747 1051 b 618 1049 639 992 622 1018 "},"Ģ":{"ha":1074,"x_min":0,"x_max":0,"o":"m 347 -644 b 304 -576 325 -624 307 -599 b 476 -19 353 -368 411 -179 b 103 -93 331 -107 190 -140 b 1003 925 -358 151 522 1238 b 950 508 1157 822 958 622 b 729 553 889 494 763 503 b 933 869 776 668 1004 775 b 414 683 833 1004 565 896 b 264 51 269 482 119 164 b 508 56 310 15 406 6 b 746 417 581 214 661 339 b 900 319 807 404 854 372 b 347 -644 719 186 429 -283 m -40 -467 b 71 -360 13 -429 50 -389 b 3 -301 44 -344 19 -328 b 140 -164 26 -258 71 -204 b 218 -268 169 -190 203 -228 b -25 -494 174 -360 68 -442 b -40 -467 -33 -486 -40 -476 "},"Ġ":{"ha":1074,"x_min":0,"x_max":0,"o":"m 347 -644 b 304 -576 325 -624 307 -599 b 476 -19 353 -368 411 -179 b 103 -93 331 -107 190 -140 b 1003 925 -358 151 522 1238 b 950 508 1157 822 958 622 b 729 553 889 494 763 503 b 933 869 776 668 1004 775 b 414 683 833 1004 565 896 b 264 51 269 482 119 164 b 508 56 310 15 406 6 b 746 417 581 214 661 339 b 900 319 807 404 854 372 b 347 -644 719 186 429 -283 m 706 1132 b 844 1242 732 1151 785 1185 b 958 1161 865 1218 906 1183 b 800 1021 917 1113 858 1056 b 706 1132 767 1051 729 1093 "},"Ḡ":{"ha":1074,"x_min":0,"x_max":0,"o":"m 347 -644 b 304 -576 325 -624 307 -599 b 476 -19 353 -368 411 -179 b 103 -93 331 -107 190 -140 b 1003 925 -358 151 522 1238 b 950 508 1157 822 958 622 b 729 553 889 494 763 503 b 933 869 776 668 1004 775 b 414 683 833 1004 565 896 b 264 51 269 482 119 164 b 508 56 310 15 406 6 b 746 417 581 214 661 339 b 900 319 807 404 854 372 b 347 -644 719 186 429 -283 m 590 1061 b 625 1128 594 1079 608 1104 b 971 1126 749 1115 881 1110 b 951 1019 988 1103 969 1049 b 590 1061 801 992 638 1043 "},"Ǥ":{"ha":1074,"x_min":0,"x_max":0,"o":"m 347 -644 b 304 -576 325 -624 307 -599 b 476 -19 353 -368 411 -179 b 103 -93 331 -107 190 -140 b 1003 925 -358 151 522 1238 b 950 508 1157 822 958 622 b 729 553 889 494 763 503 b 933 869 776 668 1004 775 b 414 683 833 1004 565 896 b 264 51 269 482 119 164 b 508 56 310 15 406 6 b 567 174 528 97 547 136 b 426 129 519 164 472 150 b 521 307 429 199 475 265 b 664 326 569 317 618 322 b 746 417 690 361 718 392 b 900 319 807 404 854 372 l 890 311 b 950 293 913 307 933 300 b 915 164 949 235 939 204 b 768 188 876 175 826 185 b 347 -644 601 -15 411 -362 "},"H":{"ha":1465,"x_min":0,"x_max":0,"o":"m 47 -312 b -171 -206 -46 -329 -147 -271 b 492 388 44 -76 303 129 b 129 350 371 389 246 376 b 193 485 128 382 144 429 b 547 469 272 503 401 493 b 743 964 644 621 717 786 b 882 931 796 974 843 954 b 661 450 846 800 768 631 b 899 396 740 433 821 415 b 1294 968 957 569 1082 778 b 1388 882 1333 957 1365 919 b 1063 125 997 633 929 201 b 1471 372 1168 60 1374 186 l 1514 343 b 911 13 1364 22 1031 -68 b 881 339 854 51 838 175 b 621 383 810 360 719 376 b 47 -312 471 142 271 -112 "},"Ħ":{"ha":1465,"x_min":0,"x_max":0,"o":"m 47 -312 b -171 -206 -46 -329 -147 -271 b 492 388 44 -76 303 129 b 129 350 371 389 246 376 b 193 485 128 382 144 429 b 547 469 272 503 401 493 b 590 540 563 493 576 517 b 411 513 529 533 469 525 b 560 640 415 563 488 610 l 646 647 b 743 964 692 747 726 853 b 882 931 796 974 843 954 b 772 653 860 851 822 756 b 1022 651 861 656 947 656 b 1294 968 1090 757 1179 865 b 1388 882 1333 957 1365 919 b 1133 643 1279 813 1196 729 b 1232 629 1171 639 1204 635 b 1178 538 1229 588 1214 565 b 1075 547 1149 542 1114 544 b 1063 125 975 356 981 172 b 1471 372 1168 60 1374 186 l 1514 343 b 911 13 1364 22 1031 -68 b 881 339 854 51 838 175 b 621 383 810 360 719 376 b 47 -312 471 142 271 -112 m 661 450 b 899 396 740 433 821 415 b 965 553 915 446 938 499 b 718 550 889 556 806 556 b 661 450 701 517 682 483 "},"Ḫ":{"ha":1465,"x_min":0,"x_max":0,"o":"m 47 -312 b -171 -206 -46 -329 -147 -271 b 492 388 44 -76 303 129 b 129 350 371 389 246 376 b 193 485 128 382 144 429 b 547 469 272 503 401 493 b 743 964 644 621 717 786 b 882 931 796 974 843 954 b 661 450 846 800 768 631 b 899 396 740 433 821 415 b 1294 968 957 569 1082 778 b 1388 882 1333 957 1365 919 b 1063 125 997 633 929 201 b 1471 372 1168 60 1374 186 l 1514 343 b 911 13 1364 22 1031 -68 b 881 339 854 51 838 175 b 621 383 810 360 719 376 b 47 -312 471 142 271 -112 m 338 -131 b 499 -99 408 -64 493 -74 b 701 -108 490 -246 613 -278 b 788 -117 753 -82 792 -97 b 338 -131 679 -317 385 -346 "},"Ĥ":{"ha":1465,"x_min":0,"x_max":0,"o":"m 47 -312 b -171 -206 -46 -329 -147 -271 b 492 388 44 -76 303 129 b 129 350 371 389 246 376 b 193 485 128 382 144 429 b 547 469 272 503 401 493 b 743 964 644 621 717 786 b 882 931 796 974 843 954 b 661 450 846 800 768 631 b 899 396 740 433 821 415 b 1294 968 957 569 1082 778 b 1388 882 1333 957 1365 919 b 1063 125 997 633 929 201 b 1471 372 1168 60 1374 186 l 1514 343 b 911 13 1364 22 1031 -68 b 881 339 854 51 838 175 b 621 383 810 360 719 376 b 47 -312 471 142 271 -112 m 922 1090 b 1108 1265 997 1142 1064 1206 b 1182 1239 1140 1260 1172 1250 b 1297 1079 1186 1194 1208 1160 b 1232 1014 1282 1053 1260 1026 b 1146 1185 1214 1057 1182 1121 b 963 1014 1118 1156 1051 1093 b 922 1090 943 1033 926 1060 "},"Ḥ":{"ha":1465,"x_min":0,"x_max":0,"o":"m 47 -312 b -171 -206 -46 -329 -147 -271 b 492 388 44 -76 303 129 b 129 350 371 389 246 376 b 193 485 128 382 144 429 b 547 469 272 503 401 493 b 743 964 644 621 717 786 b 882 931 796 974 843 954 b 661 450 846 800 768 631 b 899 396 740 433 821 415 b 1294 968 957 569 1082 778 b 1388 882 1333 957 1365 919 b 1063 125 997 633 929 201 b 1471 372 1168 60 1374 186 l 1514 343 b 911 13 1364 22 1031 -68 b 881 339 854 51 838 175 b 621 383 810 360 719 376 b 47 -312 471 142 271 -112 m 400 -233 b 539 -124 426 -214 479 -181 b 653 -204 560 -147 600 -182 b 494 -344 611 -253 553 -310 b 400 -233 461 -314 424 -272 "},"I":{"ha":729,"x_min":0,"x_max":0,"o":"m -18 -151 b 285 1000 -246 40 201 464 b 463 897 333 986 404 940 b 100 -57 403 565 -22 42 b 735 372 239 -169 613 135 l 778 343 b -18 -151 653 78 174 -312 "},"Ĳ":{"ha":1842,"x_min":0,"x_max":0,"o":"m -18 -151 b 285 1000 -246 40 201 464 b 463 897 333 986 404 940 b 100 -57 403 565 -22 42 b 735 372 239 -169 613 135 l 778 343 b -18 -151 653 78 174 -312 m 588 -121 b 731 25 597 -54 660 -3 b 1199 -92 840 -153 1033 -203 b 1717 831 1376 31 1578 333 b 946 746 1507 847 1268 814 b 1046 936 942 790 965 857 b 1742 893 1308 946 1538 936 b 1918 986 1779 935 1854 968 b 1963 782 1954 931 1975 849 b 1786 822 1904 800 1846 814 b 1226 -239 1646 300 1443 -57 b 588 -121 1010 -419 697 -357 "},"Í":{"ha":729,"x_min":0,"x_max":0,"o":"m -18 -151 b 285 1000 -246 40 201 464 b 463 897 333 986 404 940 b 100 -57 403 565 -22 42 b 735 372 239 -169 613 135 l 778 343 b -18 -151 653 78 174 -312 m 299 1035 b 306 1083 294 1042 297 1064 b 565 1317 393 1139 499 1221 b 619 1186 615 1319 638 1257 b 299 1035 540 1108 406 1058 "},"Ǐ":{"ha":729,"x_min":0,"x_max":0,"o":"m -18 -151 b 285 1000 -246 40 201 464 b 463 897 333 986 404 940 b 100 -57 403 565 -22 42 b 735 372 239 -169 613 135 l 778 343 b -18 -151 653 78 174 -312 m 246 1208 b 313 1274 261 1235 283 1263 b 399 1101 331 1232 363 1168 b 582 1274 426 1132 493 1194 b 622 1197 601 1254 618 1228 b 436 1022 547 1146 481 1082 b 363 1049 404 1028 372 1038 b 246 1208 357 1093 335 1128 "},"Î":{"ha":729,"x_min":0,"x_max":0,"o":"m -18 -151 b 285 1000 -246 40 201 464 b 463 897 333 986 404 940 b 100 -57 403 565 -22 42 b 735 372 239 -169 613 135 l 778 343 b -18 -151 653 78 174 -312 m 242 1078 b 428 1253 317 1129 383 1193 b 501 1226 460 1247 492 1238 b 617 1067 506 1182 528 1147 b 551 1001 601 1040 579 1014 b 465 1172 533 1044 501 1108 b 282 1001 438 1143 371 1081 b 242 1078 263 1021 246 1047 "},"Ï":{"ha":729,"x_min":0,"x_max":0,"o":"m -18 -151 b 285 1000 -246 40 201 464 b 463 897 333 986 404 940 b 100 -57 403 565 -22 42 b 735 372 239 -169 613 135 l 778 343 b -18 -151 653 78 174 -312 m 210 1133 b 349 1243 236 1153 290 1188 b 449 1168 368 1221 404 1190 b 565 1263 476 1189 519 1218 b 679 1182 586 1239 626 1204 b 521 1042 638 1133 579 1076 b 438 1133 494 1065 461 1099 b 304 1022 404 1100 358 1054 b 210 1133 271 1053 232 1094 "},"Ḯ":{"ha":729,"x_min":0,"x_max":0,"o":"m -18 -151 b 285 1000 -246 40 201 464 b 463 897 333 986 404 940 b 100 -57 403 565 -22 42 b 735 372 239 -169 613 135 l 778 343 b -18 -151 653 78 174 -312 m 210 1133 b 349 1243 236 1153 290 1188 b 449 1168 368 1221 404 1190 b 565 1263 476 1189 519 1218 b 679 1182 586 1239 626 1204 b 521 1042 638 1133 579 1076 b 438 1133 494 1065 461 1099 b 304 1022 404 1100 358 1054 b 210 1133 271 1053 232 1094 m 400 1317 b 407 1365 396 1324 399 1346 b 667 1599 494 1421 600 1503 b 721 1468 717 1601 739 1539 b 400 1317 642 1390 507 1340 "},"İ":{"ha":729,"x_min":0,"x_max":0,"o":"m -18 -151 b 285 1000 -246 40 201 464 b 463 897 333 986 404 940 b 100 -57 403 565 -22 42 b 735 372 239 -169 613 135 l 778 343 b -18 -151 653 78 174 -312 m 329 1161 b 468 1271 356 1181 408 1214 b 582 1190 489 1247 529 1213 b 424 1050 540 1142 482 1085 b 329 1161 390 1081 353 1122 "},"Ị":{"ha":729,"x_min":0,"x_max":0,"o":"m -18 -151 b 285 1000 -246 40 201 464 b 463 897 333 986 404 940 b 100 -57 403 565 -22 42 b 735 372 239 -169 613 135 l 778 343 b -18 -151 653 78 174 -312 m -119 -361 b 19 -251 -93 -342 -40 -308 b 133 -332 40 -275 81 -310 b -25 -472 92 -381 33 -437 b -119 -361 -58 -442 -96 -400 "},"Ì":{"ha":729,"x_min":0,"x_max":0,"o":"m -18 -151 b 285 1000 -246 40 201 464 b 463 897 333 986 404 940 b 100 -57 403 565 -22 42 b 735 372 239 -169 613 135 l 778 343 b -18 -151 653 78 174 -312 m 310 1138 b 424 1249 322 1190 372 1244 b 586 1082 453 1178 525 1121 b 568 1044 586 1068 578 1051 b 310 1138 469 1056 358 1083 "},"Ỉ":{"ha":729,"x_min":0,"x_max":0,"o":"m -18 -151 b 285 1000 -246 40 201 464 b 463 897 333 986 404 940 b 100 -57 403 565 -22 42 b 735 372 239 -169 613 135 l 778 343 b -18 -151 653 78 174 -312 m 281 1046 b 508 1307 490 1124 549 1257 b 385 1326 469 1351 415 1339 b 382 1342 381 1329 379 1335 b 653 1392 489 1436 600 1454 b 289 1031 718 1315 632 1138 l 281 1046 "},"Ī":{"ha":729,"x_min":0,"x_max":0,"o":"m -18 -151 b 285 1000 -246 40 201 464 b 463 897 333 986 404 940 b 100 -57 403 565 -22 42 b 735 372 239 -169 613 135 l 778 343 b -18 -151 653 78 174 -312 m 214 1090 b 249 1157 218 1108 232 1133 b 594 1156 372 1144 504 1139 b 575 1049 611 1132 593 1078 b 214 1090 425 1021 261 1072 "},"Į":{"ha":729,"x_min":0,"x_max":0,"o":"m -18 -151 b 285 1000 -246 40 201 464 b 463 897 333 986 404 940 b 100 -57 403 565 -22 42 b 735 372 239 -169 613 135 l 778 343 b 132 -186 679 133 357 -157 b -42 -425 -33 -265 -78 -379 b 82 -444 -3 -469 51 -457 b 85 -460 86 -447 88 -453 b -186 -510 -22 -554 -133 -572 b 69 -187 -244 -442 -183 -294 b -18 -151 36 -183 7 -172 "},"Ĩ":{"ha":729,"x_min":0,"x_max":0,"o":"m -18 -151 b 285 1000 -246 40 201 464 b 463 897 333 986 404 940 b 100 -57 403 565 -22 42 b 735 372 239 -169 613 135 l 778 343 b -18 -151 653 78 174 -312 m 231 1160 b 503 1151 465 1367 417 1118 b 578 1231 544 1167 568 1201 b 690 1185 636 1253 697 1247 b 442 1060 597 1082 478 1051 b 379 1181 400 1067 417 1185 b 301 1056 344 1176 310 1107 b 231 1160 254 1051 225 1117 "},"J":{"ha":1113,"x_min":0,"x_max":0,"o":"m 497 -239 b -142 -121 281 -419 -32 -357 b 1 25 -132 -54 -69 -3 b 469 -92 111 -153 304 -203 b 988 831 647 31 849 333 b 217 746 778 847 539 814 b 317 936 213 790 236 857 b 1013 893 579 946 808 936 b 1189 986 1050 935 1125 968 b 1233 782 1225 931 1246 849 b 1057 822 1175 800 1117 814 b 497 -239 917 300 714 -57 "},"Ĵ":{"ha":1113,"x_min":0,"x_max":0,"o":"m 497 -239 b -142 -121 281 -419 -32 -357 b 1 25 -132 -54 -69 -3 b 469 -92 111 -153 304 -203 b 988 831 647 31 849 333 b 217 746 778 847 539 814 b 317 936 213 790 236 857 b 1013 893 579 946 808 936 b 1189 986 1050 935 1125 968 b 1233 782 1225 931 1246 849 b 1057 822 1175 800 1117 814 b 497 -239 917 300 714 -57 m 638 1049 b 824 1224 713 1100 779 1164 b 897 1197 856 1218 888 1208 b 1013 1038 901 1153 924 1118 b 947 972 997 1011 975 985 b 861 1143 929 1015 897 1079 b 678 972 833 1114 767 1051 b 638 1049 658 992 642 1018 "},"K":{"ha":1049,"x_min":0,"x_max":0,"o":"m 124 -104 b -103 -18 32 -131 -75 -82 b 522 963 129 149 488 500 b 664 942 572 975 621 961 b 514 531 644 853 590 699 b 1140 1038 690 590 968 800 b 1206 875 1168 1011 1206 950 b 574 486 1119 756 836 603 b 1244 -408 651 235 926 -158 b 1018 -500 1208 -446 1128 -504 b 478 454 849 -369 635 65 b 124 -104 379 249 253 35 m 503 506 b 503 506 503 506 503 506 "},"Ǩ":{"ha":1049,"x_min":0,"x_max":0,"o":"m 124 -104 b -103 -18 32 -131 -75 -82 b 522 963 129 149 488 500 b 664 942 572 975 621 961 b 514 531 644 853 590 699 b 1140 1038 690 590 968 800 b 1206 875 1168 1011 1206 950 b 574 486 1119 756 836 603 b 1244 -408 651 235 926 -158 b 1018 -500 1208 -446 1128 -504 b 478 454 849 -369 635 65 b 124 -104 379 249 253 35 m 503 506 b 503 506 503 506 503 506 m 689 1179 b 756 1244 704 1206 726 1233 b 842 1072 774 1203 806 1139 b 1025 1244 869 1103 936 1165 b 1065 1168 1044 1225 1061 1199 b 879 993 990 1117 924 1053 b 806 1019 847 999 815 1008 b 689 1179 800 1064 778 1099 "},"Ķ":{"ha":1049,"x_min":0,"x_max":0,"o":"m 124 -104 b -103 -18 32 -131 -75 -82 b 522 963 129 149 488 500 b 664 942 572 975 621 961 b 514 531 644 853 590 699 b 1140 1038 690 590 968 800 b 1206 875 1168 1011 1206 950 b 574 486 1119 756 836 603 b 1244 -408 651 235 926 -158 b 1018 -500 1208 -446 1128 -504 b 478 454 849 -369 635 65 b 124 -104 379 249 253 35 m 214 -389 b 325 -282 267 -351 304 -311 b 257 -224 299 -267 274 -250 b 394 -86 281 -181 325 -126 b 472 -190 424 -112 457 -150 b 229 -417 428 -282 322 -364 b 214 -389 221 -408 214 -399 m 503 506 b 503 506 503 506 503 506 "},"Ḵ":{"ha":1049,"x_min":0,"x_max":0,"o":"m 124 -104 b -103 -18 32 -131 -75 -82 b 522 963 129 149 488 500 b 664 942 572 975 621 961 b 514 531 644 853 590 699 b 1140 1038 690 590 968 800 b 1206 875 1168 1011 1206 950 b 574 486 1119 756 836 603 b 1244 -408 651 235 926 -158 b 1018 -500 1208 -446 1128 -504 b 478 454 849 -369 635 65 b 124 -104 379 249 253 35 m 179 -199 b 214 -132 183 -181 197 -156 b 560 -133 338 -144 469 -150 b 540 -240 576 -157 558 -211 b 179 -199 390 -268 226 -217 m 503 506 b 503 506 503 506 503 506 "},"L":{"ha":1015,"x_min":0,"x_max":0,"o":"m 1118 -361 b 151 -197 810 -247 443 -196 b -143 -331 35 -254 -57 -306 b -143 -119 -167 -271 -160 -186 l 108 -107 b 990 1006 506 383 479 817 b 1183 846 1061 1001 1182 922 b 185 -103 586 721 601 349 l 194 -103 b 1044 -122 400 -81 814 -37 b 1118 -361 1114 -226 1129 -310 "},"Ĺ":{"ha":1015,"x_min":0,"x_max":0,"o":"m 1118 -361 b 151 -197 810 -247 443 -196 b -143 -331 35 -254 -57 -306 b -143 -119 -167 -271 -160 -186 l 108 -107 b 990 1006 506 383 479 817 b 1183 846 1061 1001 1182 922 b 185 -103 586 721 601 349 l 194 -103 b 1044 -122 400 -81 814 -37 b 1118 -361 1114 -226 1129 -310 m 897 1053 b 904 1101 893 1060 896 1082 b 1164 1335 992 1157 1097 1239 b 1218 1204 1214 1338 1236 1275 b 897 1053 1139 1126 1004 1076 "},"Ľ":{"ha":1015,"x_min":0,"x_max":0,"o":"m 1118 -361 b 151 -197 810 -247 443 -196 b -143 -331 35 -254 -57 -306 b -143 -119 -167 -271 -160 -186 l 108 -107 b 990 1006 506 383 479 817 b 1183 846 1061 1001 1182 922 b 185 -103 586 721 601 349 l 194 -103 b 1044 -122 400 -81 814 -37 b 1118 -361 1114 -226 1129 -310 m 1257 1013 b 1464 1022 1307 1049 1385 1082 b 1339 706 1407 963 1335 807 b 1265 696 1322 694 1289 692 b 1257 1013 1253 729 1224 861 "},"Ļ":{"ha":1015,"x_min":0,"x_max":0,"o":"m 1118 -361 b 151 -197 810 -247 443 -196 b -143 -331 35 -254 -57 -306 b -143 -119 -167 -271 -160 -186 l 108 -107 b 990 1006 506 383 479 817 b 1183 846 1061 1001 1182 922 b 185 -103 586 721 601 349 l 194 -103 b 1044 -122 400 -81 814 -37 b 1118 -361 1114 -226 1129 -310 m 140 -575 b 251 -468 193 -537 231 -497 b 183 -410 225 -453 200 -436 b 321 -272 207 -367 251 -312 b 399 -376 350 -299 383 -336 b 156 -603 354 -468 249 -550 b 140 -575 147 -594 140 -585 "},"Ḷ":{"ha":1015,"x_min":0,"x_max":0,"o":"m 1118 -361 b 151 -197 810 -247 443 -196 b -143 -331 35 -254 -57 -306 b -143 -119 -167 -271 -160 -186 l 108 -107 b 990 1006 506 383 479 817 b 1183 846 1061 1001 1182 922 b 185 -103 586 721 601 349 l 194 -103 b 1044 -122 400 -81 814 -37 b 1118 -361 1114 -226 1129 -310 m 160 -419 b 299 -310 186 -400 239 -367 b 413 -390 319 -333 360 -368 b 254 -531 371 -439 313 -496 b 160 -419 221 -500 183 -458 "},"Ḹ":{"ha":1015,"x_min":0,"x_max":0,"o":"m 1118 -361 b 151 -197 810 -247 443 -196 b -143 -331 35 -254 -57 -306 b -143 -119 -167 -271 -160 -186 l 108 -107 b 990 1006 506 383 479 817 b 1183 846 1061 1001 1182 922 b 185 -103 586 721 601 349 l 194 -103 b 1044 -122 400 -81 814 -37 b 1118 -361 1114 -226 1129 -310 m 160 -419 b 299 -310 186 -400 239 -367 b 413 -390 319 -333 360 -368 b 254 -531 371 -439 313 -496 b 160 -419 221 -500 183 -458 m 813 1108 b 847 1175 817 1126 831 1151 b 1193 1174 971 1163 1103 1157 b 1174 1067 1210 1150 1192 1096 b 813 1108 1024 1039 860 1090 "},"Ḻ":{"ha":1015,"x_min":0,"x_max":0,"o":"m 1118 -361 b 151 -197 810 -247 443 -196 b -143 -331 35 -254 -57 -306 b -143 -119 -167 -271 -160 -186 l 108 -107 b 990 1006 506 383 479 817 b 1183 846 1061 1001 1182 922 b 185 -103 586 721 601 349 l 194 -103 b 1044 -122 400 -81 814 -37 b 1118 -361 1114 -226 1129 -310 m 106 -385 b 140 -318 110 -367 124 -342 b 486 -319 264 -331 396 -336 b 467 -426 503 -343 485 -397 b 106 -385 317 -454 153 -403 "},"Ł":{"ha":1015,"x_min":0,"x_max":0,"o":"m 1118 -361 b 151 -197 810 -247 443 -196 b -143 -331 35 -254 -57 -306 b -143 -119 -167 -271 -160 -186 l 108 -107 b 388 332 233 47 315 196 b 219 283 331 324 274 307 b 314 461 222 353 268 419 b 463 481 364 471 415 478 b 990 1006 583 711 700 899 b 1183 846 1061 1001 1182 922 b 604 478 875 782 731 651 b 743 447 660 472 708 463 b 708 318 742 389 732 358 b 513 342 660 332 590 343 b 185 -103 426 210 333 58 l 194 -103 b 1044 -122 400 -81 814 -37 b 1118 -361 1114 -226 1129 -310 "},"M":{"ha":1721,"x_min":0,"x_max":0,"o":"m 42 -315 b -172 -208 -49 -332 -151 -274 b 740 961 182 4 660 433 b 833 956 771 969 801 972 l 821 911 b 843 935 828 919 836 926 b 924 439 871 829 910 625 b 1533 954 1071 615 1296 829 l 1550 968 b 1643 882 1589 957 1621 919 b 1318 125 1253 633 1185 201 b 1726 372 1424 60 1629 186 l 1769 343 b 1167 13 1619 22 1286 -68 b 1376 788 1064 82 1090 438 b 929 356 1208 668 1047 499 b 875 58 935 217 922 100 b 765 206 764 -42 706 60 b 833 321 778 235 801 275 b 751 721 829 471 797 617 b 42 -315 617 399 368 -24 "},"Ḿ":{"ha":1721,"x_min":0,"x_max":0,"o":"m 42 -315 b -172 -208 -49 -332 -151 -274 b 740 961 182 4 660 433 b 833 956 771 969 801 972 l 821 911 b 843 935 828 919 836 926 b 924 439 871 829 910 625 b 1533 954 1071 615 1296 829 l 1550 968 b 1643 882 1589 957 1621 919 b 1318 125 1253 633 1185 201 b 1726 372 1424 60 1629 186 l 1769 343 b 1167 13 1619 22 1286 -68 b 1376 788 1064 82 1090 438 b 929 356 1208 668 1047 499 b 875 58 935 217 922 100 b 765 206 764 -42 706 60 b 833 321 778 235 801 275 b 751 721 829 471 797 617 b 42 -315 617 399 368 -24 m 1035 919 b 1042 968 1031 926 1033 949 b 1301 1201 1129 1024 1235 1106 b 1356 1071 1351 1204 1374 1142 b 1035 919 1276 993 1142 943 "},"Ṁ":{"ha":1721,"x_min":0,"x_max":0,"o":"m 42 -315 b -172 -208 -49 -332 -151 -274 b 740 961 182 4 660 433 b 833 956 771 969 801 972 l 821 911 b 843 935 828 919 836 926 b 924 439 871 829 910 625 b 1533 954 1071 615 1296 829 l 1550 968 b 1643 882 1589 957 1621 919 b 1318 125 1253 633 1185 201 b 1726 372 1424 60 1629 186 l 1769 343 b 1167 13 1619 22 1286 -68 b 1376 788 1064 82 1090 438 b 929 356 1208 668 1047 499 b 875 58 935 217 922 100 b 765 206 764 -42 706 60 b 833 321 778 235 801 275 b 751 721 829 471 797 617 b 42 -315 617 399 368 -24 m 1065 1046 b 1204 1156 1092 1065 1144 1099 b 1318 1075 1225 1132 1265 1097 b 1160 935 1276 1026 1218 969 b 1065 1046 1126 965 1089 1007 "},"Ṃ":{"ha":1721,"x_min":0,"x_max":0,"o":"m 42 -315 b -172 -208 -49 -332 -151 -274 b 740 961 182 4 660 433 b 833 956 771 969 801 972 l 821 911 b 843 935 828 919 836 926 b 924 439 871 829 910 625 b 1533 954 1071 615 1296 829 l 1550 968 b 1643 882 1589 957 1621 919 b 1318 125 1253 633 1185 201 b 1726 372 1424 60 1629 186 l 1769 343 b 1167 13 1619 22 1286 -68 b 1376 788 1064 82 1090 438 b 929 356 1208 668 1047 499 b 875 58 935 217 922 100 b 765 206 764 -42 706 60 b 833 321 778 235 801 275 b 751 721 829 471 797 617 b 42 -315 617 399 368 -24 m 593 -197 b 732 -87 619 -178 672 -144 b 846 -168 753 -111 793 -146 b 688 -308 804 -217 746 -274 b 593 -197 654 -278 617 -236 "},"N":{"ha":1299,"x_min":0,"x_max":0,"o":"m 43 -315 b -172 -208 -49 -332 -150 -274 b 742 961 182 6 661 433 b 836 956 774 969 803 972 l 822 911 b 846 935 831 919 839 928 b 925 435 872 828 911 622 b 1643 1053 1100 647 1388 926 b 1765 933 1686 1032 1732 981 b 929 357 1399 846 1106 571 b 875 58 935 218 922 100 b 765 206 764 -42 706 60 b 818 296 775 228 793 258 b 751 718 811 450 793 608 b 43 -315 617 397 369 -24 "},"Ń":{"ha":1299,"x_min":0,"x_max":0,"o":"m 43 -315 b -172 -208 -49 -332 -150 -274 b 742 961 182 6 661 433 b 836 956 774 969 803 972 l 822 911 b 846 935 831 919 839 928 b 925 435 872 828 911 622 b 1643 1053 1100 647 1388 926 b 1765 933 1686 1032 1732 981 b 929 357 1399 846 1106 571 b 875 58 935 218 922 100 b 765 206 764 -42 706 60 b 818 296 775 228 793 258 b 751 718 811 450 793 608 b 43 -315 617 397 369 -24 m 1024 929 b 1031 978 1019 936 1022 958 b 1290 1211 1118 1033 1224 1115 b 1344 1081 1340 1214 1363 1151 b 1024 929 1265 1003 1131 953 "},"Ň":{"ha":1299,"x_min":0,"x_max":0,"o":"m 43 -315 b -172 -208 -49 -332 -150 -274 b 742 961 182 6 661 433 b 836 956 774 969 803 972 l 822 911 b 846 935 831 919 839 928 b 925 435 872 828 911 622 b 1643 1053 1100 647 1388 926 b 1765 933 1686 1032 1732 981 b 929 357 1399 846 1106 571 b 875 58 935 218 922 100 b 765 206 764 -42 706 60 b 818 296 775 228 793 258 b 751 718 811 450 793 608 b 43 -315 617 397 369 -24 m 971 1103 b 1038 1168 986 1129 1008 1157 b 1124 996 1056 1126 1088 1063 b 1307 1168 1151 1026 1218 1089 b 1347 1092 1326 1149 1343 1122 b 1161 917 1272 1040 1206 976 b 1088 943 1129 922 1097 932 b 971 1103 1082 988 1060 1022 "},"Ņ":{"ha":1299,"x_min":0,"x_max":0,"o":"m 43 -315 b -172 -208 -49 -332 -150 -274 b 742 961 182 6 661 433 b 836 956 774 969 803 972 l 822 911 b 846 935 831 919 839 928 b 925 435 872 828 911 622 b 1643 1053 1100 647 1388 926 b 1765 933 1686 1032 1732 981 b 929 357 1399 846 1106 571 b 875 58 935 218 922 100 b 765 206 764 -42 706 60 b 818 296 775 228 793 258 b 751 718 811 450 793 608 b 43 -315 617 397 369 -24 m 354 -374 b 465 -267 407 -336 444 -296 b 397 -208 439 -251 414 -235 b 535 -71 421 -165 465 -111 b 613 -175 564 -97 597 -135 b 369 -401 568 -267 463 -349 b 354 -374 361 -393 354 -383 "},"Ṅ":{"ha":1299,"x_min":0,"x_max":0,"o":"m 43 -315 b -172 -208 -49 -332 -150 -274 b 742 961 182 6 661 433 b 836 956 774 969 803 972 l 822 911 b 846 935 831 919 839 928 b 925 435 872 828 911 622 b 1643 1053 1100 647 1388 926 b 1765 933 1686 1032 1732 981 b 929 357 1399 846 1106 571 b 875 58 935 218 922 100 b 765 206 764 -42 706 60 b 818 296 775 228 793 258 b 751 718 811 450 793 608 b 43 -315 617 397 369 -24 m 1054 1056 b 1193 1165 1081 1075 1133 1108 b 1307 1085 1214 1142 1254 1107 b 1149 944 1265 1036 1207 979 b 1054 1056 1115 975 1078 1017 "},"Ṇ":{"ha":1299,"x_min":0,"x_max":0,"o":"m 43 -315 b -172 -208 -49 -332 -150 -274 b 742 961 182 6 661 433 b 836 956 774 969 803 972 l 822 911 b 846 935 831 919 839 928 b 925 435 872 828 911 622 b 1643 1053 1100 647 1388 926 b 1765 933 1686 1032 1732 981 b 929 357 1399 846 1106 571 b 875 58 935 218 922 100 b 765 206 764 -42 706 60 b 818 296 775 228 793 258 b 751 718 811 450 793 608 b 43 -315 617 397 369 -24 m 374 -218 b 513 -108 400 -199 453 -165 b 626 -189 533 -132 574 -167 b 468 -329 585 -237 526 -294 b 374 -218 435 -299 397 -257 "},"Ṉ":{"ha":1299,"x_min":0,"x_max":0,"o":"m 43 -315 b -172 -208 -49 -332 -150 -274 b 742 961 182 6 661 433 b 836 956 774 969 803 972 l 822 911 b 846 935 831 919 839 928 b 925 435 872 828 911 622 b 1643 1053 1100 647 1388 926 b 1765 933 1686 1032 1732 981 b 929 357 1399 846 1106 571 b 875 58 935 218 922 100 b 765 206 764 -42 706 60 b 818 296 775 228 793 258 b 751 718 811 450 793 608 b 43 -315 617 397 369 -24 m 319 -183 b 354 -117 324 -165 338 -140 b 700 -118 478 -129 610 -135 b 681 -225 717 -142 699 -196 b 319 -183 531 -253 367 -201 "},"Ñ":{"ha":1299,"x_min":0,"x_max":0,"o":"m 43 -315 b -172 -208 -49 -332 -150 -274 b 742 961 182 6 661 433 b 836 956 774 969 803 972 l 822 911 b 846 935 831 919 839 928 b 925 435 872 828 911 622 b 1643 1053 1100 647 1388 926 b 1765 933 1686 1032 1732 981 b 929 357 1399 846 1106 571 b 875 58 935 218 922 100 b 765 206 764 -42 706 60 b 818 296 775 228 793 258 b 751 718 811 450 793 608 b 43 -315 617 397 369 -24 m 956 1054 b 1228 1046 1190 1261 1142 1013 b 1303 1125 1269 1061 1293 1096 b 1415 1079 1361 1147 1422 1142 b 1167 954 1322 976 1203 946 b 1104 1075 1125 961 1142 1079 b 1026 950 1069 1071 1035 1001 b 956 1054 979 946 950 1011 "},"Ŋ":{"ha":1271,"x_min":0,"x_max":0,"o":"m 46 -315 b -169 -208 -46 -332 -147 -274 b 744 961 185 6 664 433 b 843 953 778 969 808 972 b 910 413 869 851 904 621 b 1646 1053 1085 628 1382 922 b 1768 933 1689 1032 1735 981 b 838 8 1246 807 860 167 b 1276 372 1003 38 1199 233 l 1319 343 b 733 -117 1271 244 1071 -33 b 376 -247 581 -361 404 -314 b 625 -67 335 -149 444 -67 l 639 -67 b 854 342 679 11 810 288 b 754 719 832 481 796 624 b 46 -315 619 397 372 -24 m 472 -208 b 606 -128 486 -239 567 -190 b 472 -208 494 -110 453 -175 "},"O":{"ha":1153,"x_min":0,"x_max":0,"o":"m 358 29 b 865 561 611 -106 876 235 b 678 608 776 538 703 554 b 781 881 858 642 876 819 b 351 683 676 947 499 892 b 358 29 206 478 150 140 m 213 -62 b 260 756 -76 86 -1 500 b 781 982 411 906 606 1004 b 438 -104 1171 932 1103 158 b 213 -62 386 -112 289 -103 "},"Ó":{"ha":1153,"x_min":0,"x_max":0,"o":"m 358 29 b 865 561 611 -106 876 235 b 678 608 776 538 703 554 b 781 881 858 642 876 819 b 351 683 676 947 499 892 b 358 29 206 478 150 140 m 213 -62 b 260 756 -76 86 -1 500 b 781 982 411 906 606 1004 b 438 -104 1171 932 1103 158 b 213 -62 386 -112 289 -103 m 667 1056 b 674 1104 663 1063 665 1085 b 933 1338 761 1160 867 1242 b 988 1207 983 1340 1006 1278 b 667 1056 908 1129 774 1079 "},"Ǒ":{"ha":1153,"x_min":0,"x_max":0,"o":"m 358 29 b 865 561 611 -106 876 235 b 678 608 776 538 703 554 b 781 881 858 642 876 819 b 351 683 676 947 499 892 b 358 29 206 478 150 140 m 213 -62 b 260 756 -76 86 -1 500 b 781 982 411 906 606 1004 b 438 -104 1171 932 1103 158 b 213 -62 386 -112 289 -103 m 614 1229 b 681 1294 629 1256 651 1283 b 767 1122 699 1253 731 1189 b 950 1294 794 1153 861 1215 b 990 1218 969 1275 986 1249 b 804 1043 915 1167 849 1103 b 731 1069 772 1049 740 1058 b 614 1229 725 1114 703 1149 "},"Ô":{"ha":1153,"x_min":0,"x_max":0,"o":"m 358 29 b 865 561 611 -106 876 235 b 678 608 776 538 703 554 b 781 881 858 642 876 819 b 351 683 676 947 499 892 b 358 29 206 478 150 140 m 213 -62 b 260 756 -76 86 -1 500 b 781 982 411 906 606 1004 b 438 -104 1171 932 1103 158 b 213 -62 386 -112 289 -103 m 610 1099 b 796 1274 685 1150 751 1214 b 869 1247 828 1268 860 1258 b 985 1088 874 1203 896 1168 b 919 1022 969 1061 947 1035 b 833 1193 901 1065 869 1129 b 650 1022 806 1164 739 1101 b 610 1099 631 1042 614 1068 "},"Ố":{"ha":1153,"x_min":0,"x_max":0,"o":"m 358 29 b 865 561 611 -106 876 235 b 678 608 776 538 703 554 b 781 881 858 642 876 819 b 351 683 676 947 499 892 b 358 29 206 478 150 140 m 213 -62 b 260 756 -76 86 -1 500 b 781 982 411 906 606 1004 b 438 -104 1171 932 1103 158 b 213 -62 386 -112 289 -103 m 582 1085 b 768 1260 657 1136 724 1200 b 842 1233 800 1254 832 1244 b 957 1074 846 1189 868 1154 b 892 1008 942 1047 919 1021 b 806 1179 874 1051 842 1115 b 622 1008 778 1150 711 1088 b 582 1085 603 1028 586 1054 m 751 1308 b 758 1357 747 1315 750 1338 b 1018 1590 846 1413 951 1494 b 1072 1460 1068 1593 1090 1531 b 751 1308 993 1382 858 1332 "},"Ộ":{"ha":1153,"x_min":0,"x_max":0,"o":"m 358 29 b 865 561 611 -106 876 235 b 678 608 776 538 703 554 b 781 881 858 642 876 819 b 351 683 676 947 499 892 b 358 29 206 478 150 140 m 89 -281 b 228 -171 115 -261 168 -228 b 342 -251 249 -194 289 -229 b 183 -392 300 -300 242 -357 b 89 -281 150 -361 113 -319 m 213 -62 b 260 756 -76 86 -1 500 b 781 982 411 906 606 1004 b 438 -104 1171 932 1103 158 b 213 -62 386 -112 289 -103 m 610 1099 b 796 1274 685 1150 751 1214 b 869 1247 828 1268 860 1258 b 985 1088 874 1203 896 1168 b 919 1022 969 1061 947 1035 b 833 1193 901 1065 869 1129 b 650 1022 806 1164 739 1101 b 610 1099 631 1042 614 1068 "},"Ồ":{"ha":1153,"x_min":0,"x_max":0,"o":"m 358 29 b 865 561 611 -106 876 235 b 678 608 776 538 703 554 b 781 881 858 642 876 819 b 351 683 676 947 499 892 b 358 29 206 478 150 140 m 213 -62 b 260 756 -76 86 -1 500 b 781 982 411 906 606 1004 b 438 -104 1171 932 1103 158 b 213 -62 386 -112 289 -103 m 592 1104 b 778 1279 667 1156 733 1219 b 851 1253 810 1274 842 1264 b 967 1093 856 1208 878 1174 b 901 1028 951 1067 929 1040 b 815 1199 883 1071 851 1135 b 632 1028 788 1169 721 1107 b 592 1104 613 1047 596 1074 m 772 1431 b 886 1542 785 1483 835 1538 b 1049 1375 915 1471 988 1414 b 1031 1338 1049 1361 1040 1344 b 772 1431 932 1349 821 1376 "},"Ổ":{"ha":1153,"x_min":0,"x_max":0,"o":"m 358 29 b 865 561 611 -106 876 235 b 678 608 776 538 703 554 b 781 881 858 642 876 819 b 351 683 676 947 499 892 b 358 29 206 478 150 140 m 213 -62 b 260 756 -76 86 -1 500 b 781 982 411 906 606 1004 b 438 -104 1171 932 1103 158 b 213 -62 386 -112 289 -103 m 615 1118 b 801 1293 690 1169 757 1233 b 875 1267 833 1288 865 1278 b 990 1107 879 1222 901 1188 b 925 1042 975 1081 953 1054 b 839 1213 907 1085 875 1149 b 656 1042 811 1183 744 1121 b 615 1118 636 1061 619 1088 m 767 1353 b 994 1614 976 1431 1035 1564 b 871 1633 956 1658 901 1646 b 868 1649 867 1636 865 1642 b 1139 1699 975 1743 1086 1761 b 775 1338 1204 1622 1118 1444 l 767 1353 "},"Ỗ":{"ha":1153,"x_min":0,"x_max":0,"o":"m 358 29 b 865 561 611 -106 876 235 b 678 608 776 538 703 554 b 781 881 858 642 876 819 b 351 683 676 947 499 892 b 358 29 206 478 150 140 m 213 -62 b 260 756 -76 86 -1 500 b 781 982 411 906 606 1004 b 438 -104 1171 932 1103 158 b 213 -62 386 -112 289 -103 m 610 1129 b 796 1304 685 1181 751 1244 b 869 1278 828 1299 860 1289 b 985 1118 874 1233 896 1199 b 919 1053 969 1092 947 1065 b 833 1224 901 1096 869 1160 b 650 1053 806 1194 739 1132 b 610 1129 631 1072 614 1099 m 711 1478 b 983 1469 946 1685 897 1436 b 1058 1549 1025 1485 1049 1519 b 1171 1503 1117 1571 1178 1565 b 922 1378 1078 1400 958 1369 b 860 1499 881 1385 897 1503 b 782 1374 825 1494 790 1425 b 711 1478 735 1369 706 1435 "},"Ö":{"ha":1153,"x_min":0,"x_max":0,"o":"m 358 29 b 865 561 611 -106 876 235 b 678 608 776 538 703 554 b 781 881 858 642 876 819 b 351 683 676 947 499 892 b 358 29 206 478 150 140 m 213 -62 b 260 756 -76 86 -1 500 b 781 982 411 906 606 1004 b 438 -104 1171 932 1103 158 b 213 -62 386 -112 289 -103 m 578 1154 b 717 1264 604 1174 658 1208 b 817 1189 736 1242 772 1211 b 933 1283 844 1210 888 1239 b 1047 1203 954 1260 994 1225 b 889 1063 1006 1154 947 1097 b 806 1154 863 1086 829 1119 b 672 1043 772 1121 726 1075 b 578 1154 639 1074 600 1115 "},"Ȫ":{"ha":1153,"x_min":0,"x_max":0,"o":"m 358 29 b 865 561 611 -106 876 235 b 678 608 776 538 703 554 b 781 881 858 642 876 819 b 351 683 676 947 499 892 b 358 29 206 478 150 140 m 213 -62 b 260 756 -76 86 -1 500 b 781 982 411 906 606 1004 b 438 -104 1171 932 1103 158 b 213 -62 386 -112 289 -103 m 578 1154 b 717 1264 604 1174 658 1208 b 817 1189 736 1242 772 1211 b 933 1283 844 1210 888 1239 b 1047 1203 954 1260 994 1225 b 889 1063 1006 1154 947 1097 b 806 1154 863 1086 829 1119 b 672 1043 772 1121 726 1075 b 578 1154 639 1074 600 1115 m 683 1393 b 718 1460 688 1411 701 1436 b 1064 1458 842 1447 974 1442 b 1044 1351 1081 1435 1063 1381 b 683 1393 894 1324 731 1375 "},"Ọ":{"ha":1153,"x_min":0,"x_max":0,"o":"m 358 29 b 865 561 611 -106 876 235 b 678 608 776 538 703 554 b 781 881 858 642 876 819 b 351 683 676 947 499 892 b 358 29 206 478 150 140 m 89 -281 b 228 -171 115 -261 168 -228 b 342 -251 249 -194 289 -229 b 183 -392 300 -300 242 -357 b 89 -281 150 -361 113 -319 m 213 -62 b 260 756 -76 86 -1 500 b 781 982 411 906 606 1004 b 438 -104 1171 932 1103 158 b 213 -62 386 -112 289 -103 "},"Ò":{"ha":1153,"x_min":0,"x_max":0,"o":"m 358 29 b 865 561 611 -106 876 235 b 678 608 776 538 703 554 b 781 881 858 642 876 819 b 351 683 676 947 499 892 b 358 29 206 478 150 140 m 213 -62 b 260 756 -76 86 -1 500 b 781 982 411 906 606 1004 b 438 -104 1171 932 1103 158 b 213 -62 386 -112 289 -103 m 678 1158 b 792 1269 690 1211 740 1265 b 954 1103 821 1199 893 1142 b 936 1065 954 1089 946 1072 b 678 1158 838 1076 726 1104 "},"Ỏ":{"ha":1153,"x_min":0,"x_max":0,"o":"m 358 29 b 865 561 611 -106 876 235 b 678 608 776 538 703 554 b 781 881 858 642 876 819 b 351 683 676 947 499 892 b 358 29 206 478 150 140 m 213 -62 b 260 756 -76 86 -1 500 b 781 982 411 906 606 1004 b 438 -104 1171 932 1103 158 b 213 -62 386 -112 289 -103 m 649 1067 b 876 1328 858 1144 917 1278 b 753 1347 838 1372 783 1360 b 750 1363 749 1350 747 1356 b 1021 1413 857 1457 968 1475 b 657 1051 1086 1336 1000 1158 l 649 1067 "},"Ơ":{"ha":1153,"x_min":0,"x_max":0,"o":"m 358 29 b 865 561 611 -106 876 235 b 678 608 776 538 703 554 b 781 881 858 642 876 819 b 351 683 676 947 499 892 b 358 29 206 478 150 140 m 213 -62 b 260 756 -76 86 -1 500 b 781 982 411 906 606 1004 b 1017 711 918 964 1000 856 l 1024 729 b 1392 963 1135 703 1314 761 l 1407 954 b 1019 633 1308 636 1167 542 b 438 -104 1011 378 826 50 b 213 -62 386 -112 289 -103 "},"Ớ":{"ha":1153,"x_min":0,"x_max":0,"o":"m 358 29 b 865 561 611 -106 876 235 b 678 608 776 538 703 554 b 781 881 858 642 876 819 b 351 683 676 947 499 892 b 358 29 206 478 150 140 m 213 -62 b 260 756 -76 86 -1 500 b 781 982 411 906 606 1004 b 1017 711 918 964 1000 856 l 1024 729 b 1392 963 1135 703 1314 761 l 1407 954 b 1019 633 1308 636 1167 542 b 438 -104 1011 378 826 50 b 213 -62 386 -112 289 -103 m 667 1056 b 674 1104 663 1063 665 1085 b 933 1338 761 1160 867 1242 b 988 1207 983 1340 1006 1278 b 667 1056 908 1129 774 1079 "},"Ợ":{"ha":1153,"x_min":0,"x_max":0,"o":"m 358 29 b 865 561 611 -106 876 235 b 678 608 776 538 703 554 b 781 881 858 642 876 819 b 351 683 676 947 499 892 b 358 29 206 478 150 140 m 89 -281 b 228 -171 115 -261 168 -228 b 342 -251 249 -194 289 -229 b 183 -392 300 -300 242 -357 b 89 -281 150 -361 113 -319 m 213 -62 b 260 756 -76 86 -1 500 b 781 982 411 906 606 1004 b 1017 711 918 964 1000 856 l 1024 729 b 1392 963 1135 703 1314 761 l 1407 954 b 1019 633 1308 636 1167 542 b 438 -104 1011 378 826 50 b 213 -62 386 -112 289 -103 "},"Ờ":{"ha":1153,"x_min":0,"x_max":0,"o":"m 358 29 b 865 561 611 -106 876 235 b 678 608 776 538 703 554 b 781 881 858 642 876 819 b 351 683 676 947 499 892 b 358 29 206 478 150 140 m 213 -62 b 260 756 -76 86 -1 500 b 781 982 411 906 606 1004 b 1017 711 918 964 1000 856 l 1024 729 b 1392 963 1135 703 1314 761 l 1407 954 b 1019 633 1308 636 1167 542 b 438 -104 1011 378 826 50 b 213 -62 386 -112 289 -103 m 678 1158 b 792 1269 690 1211 740 1265 b 954 1103 821 1199 893 1142 b 936 1065 954 1089 946 1072 b 678 1158 838 1076 726 1104 "},"Ở":{"ha":1153,"x_min":0,"x_max":0,"o":"m 358 29 b 865 561 611 -106 876 235 b 678 608 776 538 703 554 b 781 881 858 642 876 819 b 351 683 676 947 499 892 b 358 29 206 478 150 140 m 213 -62 b 260 756 -76 86 -1 500 b 781 982 411 906 606 1004 b 1017 711 918 964 1000 856 l 1024 729 b 1392 963 1135 703 1314 761 l 1407 954 b 1019 633 1308 636 1167 542 b 438 -104 1011 378 826 50 b 213 -62 386 -112 289 -103 m 649 1067 b 876 1328 858 1144 917 1278 b 753 1347 838 1372 783 1360 b 750 1363 749 1350 747 1356 b 1021 1413 857 1457 968 1475 b 657 1051 1086 1336 1000 1158 l 649 1067 "},"Ỡ":{"ha":1153,"x_min":0,"x_max":0,"o":"m 358 29 b 865 561 611 -106 876 235 b 678 608 776 538 703 554 b 781 881 858 642 876 819 b 351 683 676 947 499 892 b 358 29 206 478 150 140 m 213 -62 b 260 756 -76 86 -1 500 b 781 982 411 906 606 1004 b 1017 711 918 964 1000 856 l 1024 729 b 1392 963 1135 703 1314 761 l 1407 954 b 1019 633 1308 636 1167 542 b 438 -104 1011 378 826 50 b 213 -62 386 -112 289 -103 m 599 1181 b 871 1172 833 1388 785 1139 b 946 1251 913 1188 936 1222 b 1058 1206 1004 1274 1065 1268 b 810 1081 965 1103 846 1072 b 747 1201 768 1088 785 1206 b 669 1076 713 1197 678 1128 b 599 1181 622 1072 593 1138 "},"Ő":{"ha":1153,"x_min":0,"x_max":0,"o":"m 358 29 b 865 561 611 -106 876 235 b 678 608 776 538 703 554 b 781 881 858 642 876 819 b 351 683 676 947 499 892 b 358 29 206 478 150 140 m 213 -62 b 260 756 -76 86 -1 500 b 781 982 411 906 606 1004 b 438 -104 1171 932 1103 158 b 213 -62 386 -112 289 -103 m 599 1068 b 606 1117 594 1075 597 1097 b 865 1350 693 1172 799 1254 b 915 1207 917 1353 939 1285 b 1051 1350 968 1247 1013 1297 b 1106 1219 1101 1353 1124 1290 b 785 1068 1026 1142 892 1092 b 804 1140 781 1076 783 1107 b 599 1068 731 1103 650 1079 "},"Ō":{"ha":1153,"x_min":0,"x_max":0,"o":"m 358 29 b 865 561 611 -106 876 235 b 678 608 776 538 703 554 b 781 881 858 642 876 819 b 351 683 676 947 499 892 b 358 29 206 478 150 140 m 213 -62 b 260 756 -76 86 -1 500 b 781 982 411 906 606 1004 b 438 -104 1171 932 1103 158 b 213 -62 386 -112 289 -103 m 582 1111 b 617 1178 586 1129 600 1154 b 963 1176 740 1165 872 1160 b 943 1069 979 1153 961 1099 b 582 1111 793 1042 629 1093 "},"Ṓ":{"ha":1153,"x_min":0,"x_max":0,"o":"m 358 29 b 865 561 611 -106 876 235 b 678 608 776 538 703 554 b 781 881 858 642 876 819 b 351 683 676 947 499 892 b 358 29 206 478 150 140 m 213 -62 b 260 756 -76 86 -1 500 b 781 982 411 906 606 1004 b 438 -104 1171 932 1103 158 b 213 -62 386 -112 289 -103 m 601 1111 b 636 1178 606 1129 619 1154 b 982 1176 760 1165 892 1160 b 963 1069 999 1153 981 1099 b 601 1111 813 1042 649 1093 m 729 1225 b 736 1274 725 1232 728 1254 b 996 1507 824 1329 929 1411 b 1050 1376 1046 1510 1068 1447 b 729 1225 971 1299 836 1249 "},"Ṑ":{"ha":1153,"x_min":0,"x_max":0,"o":"m 358 29 b 865 561 611 -106 876 235 b 678 608 776 538 703 554 b 781 881 858 642 876 819 b 351 683 676 947 499 892 b 358 29 206 478 150 140 m 213 -62 b 260 756 -76 86 -1 500 b 781 982 411 906 606 1004 b 438 -104 1171 932 1103 158 b 213 -62 386 -112 289 -103 m 603 1113 b 638 1179 607 1131 621 1156 b 983 1178 761 1167 893 1161 b 964 1071 1000 1154 982 1100 b 603 1113 814 1043 650 1094 m 742 1329 b 856 1440 754 1382 804 1436 b 1018 1274 885 1369 957 1313 b 1000 1236 1018 1260 1010 1243 b 742 1329 901 1247 790 1275 "},"Ø":{"ha":1153,"x_min":0,"x_max":0,"o":"m 358 29 b 865 561 611 -106 876 235 b 713 569 803 544 749 547 b 272 106 550 419 393 253 b 358 29 294 75 322 49 m 0 -146 b 111 17 35 -92 72 -37 b 260 756 -51 201 36 536 b 781 982 411 906 606 1004 b 943 894 849 974 904 942 b 1053 983 989 933 1026 964 b 1144 903 1135 983 1154 939 b 996 804 1096 874 1046 840 b 438 -104 1089 547 921 86 b 213 -62 386 -112 289 -103 b 164 -33 194 -54 179 -43 b 79 -161 129 -81 100 -125 b 0 -146 40 -176 6 -176 m 238 181 b 835 801 439 428 665 650 b 781 881 828 833 810 863 b 351 683 676 947 499 892 b 238 181 249 539 192 331 "},"Ǿ":{"ha":1153,"x_min":0,"x_max":0,"o":"m 358 29 b 865 561 611 -106 876 235 b 713 569 803 544 749 547 b 272 106 550 419 393 253 b 358 29 294 75 322 49 m 0 -146 b 111 17 35 -92 72 -37 b 260 756 -51 201 36 536 b 781 982 411 906 606 1004 b 943 894 849 974 904 942 b 1053 983 989 933 1026 964 b 1144 903 1135 983 1154 939 b 996 804 1096 874 1046 840 b 438 -104 1089 547 921 86 b 213 -62 386 -112 289 -103 b 164 -33 194 -54 179 -43 b 79 -161 129 -81 100 -125 b 0 -146 40 -176 6 -176 m 238 181 b 835 801 439 428 665 650 b 781 881 828 833 810 863 b 351 683 676 947 499 892 b 238 181 249 539 192 331 m 667 1056 b 674 1104 663 1063 665 1085 b 933 1338 761 1160 867 1242 b 988 1207 983 1340 1006 1278 b 667 1056 908 1129 774 1079 "},"Õ":{"ha":1153,"x_min":0,"x_max":0,"o":"m 358 29 b 865 561 611 -106 876 235 b 678 608 776 538 703 554 b 781 881 858 642 876 819 b 351 683 676 947 499 892 b 358 29 206 478 150 140 m 213 -62 b 260 756 -76 86 -1 500 b 781 982 411 906 606 1004 b 438 -104 1171 932 1103 158 b 213 -62 386 -112 289 -103 m 599 1181 b 871 1172 833 1388 785 1139 b 946 1251 913 1188 936 1222 b 1058 1206 1004 1274 1065 1268 b 810 1081 965 1103 846 1072 b 747 1201 768 1088 785 1206 b 669 1076 713 1197 678 1128 b 599 1181 622 1072 593 1138 "},"Ṍ":{"ha":1153,"x_min":0,"x_max":0,"o":"m 358 29 b 865 561 611 -106 876 235 b 678 608 776 538 703 554 b 781 881 858 642 876 819 b 351 683 676 947 499 892 b 358 29 206 478 150 140 m 213 -62 b 260 756 -76 86 -1 500 b 781 982 411 906 606 1004 b 438 -104 1171 932 1103 158 b 213 -62 386 -112 289 -103 m 599 1181 b 871 1172 833 1388 785 1139 b 946 1251 913 1188 936 1222 b 1058 1206 1004 1274 1065 1268 b 810 1081 965 1103 846 1072 b 747 1201 768 1088 785 1206 b 669 1076 713 1197 678 1128 b 599 1181 622 1072 593 1138 m 769 1315 b 776 1364 765 1322 768 1344 b 1036 1597 864 1419 969 1501 b 1090 1467 1086 1600 1108 1538 b 769 1315 1011 1389 876 1339 "},"Œ":{"ha":1904,"x_min":0,"x_max":0,"o":"m 358 29 b 715 126 486 -39 618 15 b 854 426 693 240 760 360 b 865 561 863 471 867 517 b 678 608 776 538 703 554 b 781 881 858 642 876 819 b 351 683 676 947 499 892 b 358 29 206 478 150 140 m 213 -62 b 260 756 -76 86 -1 500 b 781 982 411 906 606 1004 b 1003 779 896 967 972 889 b 1663 925 1122 968 1485 1042 b 1663 563 1821 821 1667 676 b 1442 606 1601 549 1475 558 b 1597 869 1486 718 1668 774 b 1113 518 1501 997 1113 843 b 1386 446 1314 547 1407 514 b 1058 443 1365 374 1168 340 b 1056 8 883 358 858 108 b 1875 371 1279 -103 1733 65 l 1918 344 b 892 -75 1740 -46 1199 -226 b 732 74 808 -35 758 18 b 438 -104 651 3 554 -58 b 213 -62 386 -112 289 -103 m 1018 479 b 1003 507 1013 489 1007 499 l 994 479 "},"P":{"ha":1522,"x_min":0,"x_max":0,"o":"m 588 -322 b 372 -297 514 -364 408 -346 b 1017 882 444 17 724 568 b 1071 861 1038 878 1057 869 b 740 318 939 701 825 510 b 1192 876 1213 231 1464 664 b 267 649 924 1088 458 788 b 176 793 218 668 179 715 b 1308 936 485 932 929 1126 b 717 263 1679 751 1372 172 b 588 -322 629 49 579 -162 "},"Þ":{"ha":1522,"x_min":0,"x_max":0,"o":"m 588 -322 b 372 -297 514 -364 408 -346 b 835 678 426 -58 618 356 b 154 378 585 669 296 481 b 64 522 106 397 67 444 b 881 744 289 624 588 756 b 1046 950 935 821 990 890 b 1100 929 1067 946 1086 938 b 961 738 1051 871 1006 806 b 1196 665 1040 726 1119 704 b 628 -11 1563 483 1267 -85 b 588 -322 599 -128 583 -235 m 643 44 b 1079 606 1106 -31 1350 394 b 921 674 1032 643 978 664 b 643 44 800 474 701 247 "},"Q":{"ha":1146,"x_min":0,"x_max":0,"o":"m 1015 -435 b 535 -60 808 -365 653 -222 b 436 -104 504 -75 471 -90 b 211 -62 385 -112 286 -103 b 258 756 -76 86 -3 500 b 781 982 410 906 606 1004 b 600 -22 1136 936 1110 292 b 1061 -225 718 -137 869 -215 b 1015 -435 1096 -301 1068 -403 m 349 683 b 358 29 203 478 147 140 b 489 10 403 6 447 0 b 400 168 456 61 426 115 b 425 218 406 188 415 204 b 549 32 460 151 501 89 b 864 540 710 121 835 400 b 779 881 897 714 872 821 b 349 683 676 947 499 892 "},"R":{"ha":1308,"x_min":0,"x_max":0,"o":"m 375 -185 b 151 -99 285 -210 176 -162 b 606 383 289 1 472 167 l 600 382 b 433 513 515 383 375 440 b 667 494 474 561 571 544 b 774 883 724 613 764 743 b 915 863 824 897 874 883 b 760 435 897 771 840 610 b 797 403 772 425 785 414 b 744 401 781 403 763 403 l 743 400 b 1061 897 1122 361 1290 718 b 279 700 825 1081 446 821 b 201 822 238 715 204 757 b 1188 947 471 944 857 1113 b 881 360 1468 807 1301 408 b 1449 -406 942 147 1175 -190 b 1260 -482 1417 -439 1351 -485 b 799 343 1114 -368 931 10 l 814 354 b 724 357 785 354 754 354 b 375 -185 625 157 503 -50 "},"Ŕ":{"ha":1308,"x_min":0,"x_max":0,"o":"m 375 -185 b 151 -99 285 -210 176 -162 b 606 383 289 1 472 167 l 600 382 b 433 513 515 383 375 440 b 667 494 474 561 571 544 b 774 883 724 613 764 743 b 915 863 824 897 874 883 b 760 435 897 771 840 610 b 797 403 772 425 785 414 b 744 401 781 403 763 403 l 743 400 b 1061 897 1122 361 1290 718 b 279 700 825 1081 446 821 b 201 822 238 715 204 757 b 1188 947 471 944 857 1113 b 881 360 1468 807 1301 408 b 1449 -406 942 147 1175 -190 b 1260 -482 1417 -439 1351 -485 b 799 343 1114 -368 931 10 l 814 354 b 724 357 785 354 754 354 b 375 -185 625 157 503 -50 m 983 1046 b 990 1094 979 1053 982 1075 b 1250 1328 1078 1150 1183 1232 b 1304 1197 1300 1331 1322 1268 b 983 1046 1225 1119 1090 1069 "},"Ř":{"ha":1308,"x_min":0,"x_max":0,"o":"m 375 -185 b 151 -99 285 -210 176 -162 b 606 383 289 1 472 167 l 600 382 b 433 513 515 383 375 440 b 667 494 474 561 571 544 b 774 883 724 613 764 743 b 915 863 824 897 874 883 b 760 435 897 771 840 610 b 797 403 772 425 785 414 b 744 401 781 403 763 403 l 743 400 b 1061 897 1122 361 1290 718 b 279 700 825 1081 446 821 b 201 822 238 715 204 757 b 1188 947 471 944 857 1113 b 881 360 1468 807 1301 408 b 1449 -406 942 147 1175 -190 b 1260 -482 1417 -439 1351 -485 b 799 343 1114 -368 931 10 l 814 354 b 724 357 785 354 754 354 b 375 -185 625 157 503 -50 m 931 1219 b 997 1285 946 1246 968 1274 b 1083 1113 1015 1243 1047 1179 b 1267 1285 1111 1143 1178 1206 b 1307 1208 1286 1265 1303 1239 b 1121 1033 1232 1157 1165 1093 b 1047 1060 1089 1039 1057 1049 b 931 1219 1042 1104 1019 1139 "},"Ŗ":{"ha":1308,"x_min":0,"x_max":0,"o":"m 375 -185 b 151 -99 285 -210 176 -162 b 606 383 289 1 472 167 l 600 382 b 433 513 515 383 375 440 b 667 494 474 561 571 544 b 774 883 724 613 764 743 b 915 863 824 897 874 883 b 760 435 897 771 840 610 b 797 403 772 425 785 414 b 744 401 781 403 763 403 l 743 400 b 1061 897 1122 361 1290 718 b 279 700 825 1081 446 821 b 201 822 238 715 204 757 b 1188 947 471 944 857 1113 b 881 360 1468 807 1301 408 b 1449 -406 942 147 1175 -190 b 1260 -482 1417 -439 1351 -485 b 799 343 1114 -368 931 10 l 814 354 b 724 357 785 354 754 354 b 375 -185 625 157 503 -50 m 506 -415 b 617 -308 558 -378 596 -337 b 549 -250 590 -293 565 -276 b 686 -112 572 -207 617 -153 b 764 -217 715 -139 749 -176 b 521 -443 719 -308 614 -390 b 506 -415 513 -435 506 -425 "},"Ṝ":{"ha":1308,"x_min":0,"x_max":0,"o":"m 375 -185 b 151 -99 285 -210 176 -162 b 606 383 289 1 472 167 l 600 382 b 433 513 515 383 375 440 b 667 494 474 561 571 544 b 774 883 724 613 764 743 b 915 863 824 897 874 883 b 760 435 897 771 840 610 b 797 403 772 425 785 414 b 744 401 781 403 763 403 l 743 400 b 1061 897 1122 361 1290 718 b 279 700 825 1081 446 821 b 201 822 238 715 204 757 b 1188 947 471 944 857 1113 b 881 360 1468 807 1301 408 b 1449 -406 942 147 1175 -190 b 1260 -482 1417 -439 1351 -485 b 799 343 1114 -368 931 10 l 814 354 b 724 357 785 354 754 354 b 375 -185 625 157 503 -50 m 525 -260 b 664 -150 551 -240 604 -207 b 778 -231 685 -174 725 -208 b 619 -371 736 -279 678 -336 b 525 -260 586 -340 549 -299 m 899 1101 b 933 1168 903 1119 917 1144 b 1279 1167 1057 1156 1189 1150 b 1260 1060 1296 1143 1278 1089 b 899 1101 1110 1032 946 1083 "},"Ṟ":{"ha":1308,"x_min":0,"x_max":0,"o":"m 375 -185 b 151 -99 285 -210 176 -162 b 606 383 289 1 472 167 l 600 382 b 433 513 515 383 375 440 b 667 494 474 561 571 544 b 774 883 724 613 764 743 b 915 863 824 897 874 883 b 760 435 897 771 840 610 b 797 403 772 425 785 414 b 744 401 781 403 763 403 l 743 400 b 1061 897 1122 361 1290 718 b 279 700 825 1081 446 821 b 201 822 238 715 204 757 b 1188 947 471 944 857 1113 b 881 360 1468 807 1301 408 b 1449 -406 942 147 1175 -190 b 1260 -482 1417 -439 1351 -485 b 799 343 1114 -368 931 10 l 814 354 b 724 357 785 354 754 354 b 375 -185 625 157 503 -50 m 471 -225 b 506 -158 475 -207 489 -182 b 851 -160 629 -171 761 -176 b 832 -267 868 -183 850 -237 b 471 -225 682 -294 518 -243 "},"S":{"ha":1088,"x_min":0,"x_max":0,"o":"m 679 -206 b -15 233 394 -467 -185 -246 b 181 235 40 263 118 257 b 615 -162 -18 -21 383 -457 b 535 435 783 50 581 186 b 1076 875 472 767 865 1013 b 1075 569 1208 789 1079 669 b 889 606 1022 558 918 565 b 1021 831 931 699 1085 746 b 699 449 931 950 565 758 b 679 -206 818 171 853 -46 "},"Ś":{"ha":1088,"x_min":0,"x_max":0,"o":"m 679 -206 b -15 233 394 -467 -185 -246 b 181 235 40 263 118 257 b 615 -162 -18 -21 383 -457 b 535 435 783 50 581 186 b 1076 875 472 767 865 1013 b 1075 569 1208 789 1079 669 b 889 606 1022 558 918 565 b 1021 831 931 699 1085 746 b 699 449 931 950 565 758 b 679 -206 818 171 853 -46 m 875 1006 b 882 1054 871 1013 874 1035 b 1142 1288 969 1110 1075 1192 b 1196 1157 1192 1290 1214 1228 b 875 1006 1117 1079 982 1029 "},"Ꞌ":{"ha":544,"x_min":0,"x_max":0,"o":"m 561 828 b 314 372 481 742 349 518 b 236 358 293 356 258 353 b 350 814 236 406 258 596 b 561 828 414 865 504 914 "},"Š":{"ha":1088,"x_min":0,"x_max":0,"o":"m 679 -206 b -15 233 394 -467 -185 -246 b 181 235 40 263 118 257 b 615 -162 -18 -21 383 -457 b 535 435 783 50 581 186 b 1076 875 472 767 865 1013 b 1075 569 1208 789 1079 669 b 889 606 1022 558 918 565 b 1021 831 931 699 1085 746 b 699 449 931 950 565 758 b 679 -206 818 171 853 -46 m 822 1179 b 889 1244 838 1206 860 1233 b 975 1072 907 1203 939 1139 b 1158 1244 1003 1103 1069 1165 b 1199 1168 1178 1225 1194 1199 b 1013 993 1124 1117 1057 1053 b 939 1019 981 999 949 1008 b 822 1179 933 1064 911 1099 "},"Ş":{"ha":1088,"x_min":0,"x_max":0,"o":"m 679 -206 b 175 -271 540 -332 333 -346 l 94 -336 b 268 -556 282 -329 353 -451 b -111 -590 189 -650 -7 -671 b -96 -562 -110 -581 -104 -571 b 124 -511 -12 -593 72 -575 b 11 -368 172 -446 139 -368 l 26 -340 l 153 -260 b -15 233 -1 -175 -99 -1 b 181 235 40 263 118 257 b 615 -162 -18 -21 383 -457 b 535 435 783 50 581 186 b 1076 875 472 767 865 1013 b 1075 569 1208 789 1079 669 b 889 606 1022 558 918 565 b 1021 831 931 699 1085 746 b 699 449 931 950 565 758 b 679 -206 818 171 853 -46 "},"Ŝ":{"ha":1088,"x_min":0,"x_max":0,"o":"m 679 -206 b -15 233 394 -467 -185 -246 b 181 235 40 263 118 257 b 615 -162 -18 -21 383 -457 b 535 435 783 50 581 186 b 1076 875 472 767 865 1013 b 1075 569 1208 789 1079 669 b 889 606 1022 558 918 565 b 1021 831 931 699 1085 746 b 699 449 931 950 565 758 b 679 -206 818 171 853 -46 m 818 1049 b 1004 1224 893 1100 960 1164 b 1078 1197 1036 1218 1068 1208 b 1193 1038 1082 1153 1104 1118 b 1128 972 1178 1011 1156 985 b 1042 1143 1110 1015 1078 1079 b 858 972 1014 1114 947 1051 b 818 1049 839 992 822 1018 "},"Ș":{"ha":1088,"x_min":0,"x_max":0,"o":"m 679 -206 b -15 233 394 -467 -185 -246 b 181 235 40 263 118 257 b 615 -162 -18 -21 383 -457 b 535 435 783 50 581 186 b 1076 875 472 767 865 1013 b 1075 569 1208 789 1079 669 b 889 606 1022 558 918 565 b 1021 831 931 699 1085 746 b 699 449 931 950 565 758 b 679 -206 818 171 853 -46 m -22 -631 b 89 -524 31 -593 68 -553 b 21 -465 63 -508 38 -492 b 158 -328 44 -422 89 -368 b 236 -432 188 -354 221 -392 b -7 -658 192 -524 86 -606 b -22 -631 -15 -650 -22 -640 "},"Ṣ":{"ha":1088,"x_min":0,"x_max":0,"o":"m 679 -206 b -15 233 394 -467 -185 -246 b 181 235 40 263 118 257 b 615 -162 -18 -21 383 -457 b 535 435 783 50 581 186 b 1076 875 472 767 865 1013 b 1075 569 1208 789 1079 669 b 889 606 1022 558 918 565 b 1021 831 931 699 1085 746 b 699 449 931 950 565 758 b 679 -206 818 171 853 -46 m -3 -475 b 136 -365 24 -456 76 -422 b 250 -446 157 -389 197 -424 b 92 -586 208 -494 150 -551 b -3 -475 58 -556 21 -514 "},"ẞ":{"ha":654,"x_min":0,"x_max":0,"o":"m -293 -175 b 158 663 -151 28 58 503 b 583 899 251 818 450 904 b 210 294 628 788 688 601 b 304 99 486 364 413 229 l 292 86 b 660 372 397 107 574 215 l 703 343 b 175 -24 642 224 360 -3 b 71 -96 142 -49 107 -72 b 78 42 25 -68 51 -6 b 43 236 214 117 376 294 b -112 -210 -17 97 -69 -57 b -293 -175 -162 -232 -292 -231 m 72 304 b 428 760 276 361 460 610 b 72 304 318 761 188 564 "},"Ə":{"ha":1317,"x_min":0,"x_max":0,"o":"m 536 725 b 1060 196 958 908 1418 632 b 583 31 913 13 722 -14 b 700 442 374 97 328 325 b 979 515 771 463 874 492 b 590 658 971 654 826 732 b 76 247 418 603 176 426 l 13 288 b 536 725 75 404 303 624 m 631 110 b 847 229 686 103 757 131 b 975 463 922 311 964 392 b 753 382 889 435 814 406 b 631 110 526 286 497 131 "},"T":{"ha":1032,"x_min":0,"x_max":0,"o":"m 467 -299 b 260 -237 386 -328 286 -292 b 1049 867 378 44 724 585 b 206 811 785 882 478 867 b 308 1004 203 856 226 924 b 1157 935 547 1053 956 976 b 1500 968 1203 944 1361 958 b 1517 790 1521 907 1532 835 b 1133 860 1418 822 1285 846 b 467 -299 786 558 506 14 "},"Ŧ":{"ha":1032,"x_min":0,"x_max":0,"o":"m 467 -299 b 260 -237 386 -328 286 -292 b 646 413 328 -74 474 176 b 450 360 581 404 513 388 b 544 538 453 429 499 496 b 758 558 618 553 692 558 b 1049 867 853 675 951 782 b 206 811 785 882 478 867 b 308 1004 203 856 226 924 b 1157 935 547 1053 956 976 b 1500 968 1203 944 1361 958 b 1517 790 1521 907 1532 835 b 1133 860 1418 822 1285 846 b 856 553 1033 774 940 667 b 974 524 903 546 943 536 b 939 394 972 465 963 435 b 764 418 894 408 833 417 b 467 -299 601 165 490 -110 "},"Ť":{"ha":1032,"x_min":0,"x_max":0,"o":"m 467 -299 b 260 -237 386 -328 286 -292 b 1049 867 378 44 724 585 b 206 811 785 882 478 867 b 308 1004 203 856 226 924 b 1157 935 547 1053 956 976 b 1500 968 1203 944 1361 958 b 1517 790 1521 907 1532 835 b 1133 860 1418 822 1285 846 b 467 -299 786 558 506 14 m 963 1179 b 1029 1244 978 1206 1000 1233 b 1115 1072 1047 1203 1079 1139 b 1299 1244 1143 1103 1210 1165 b 1339 1168 1318 1225 1335 1199 b 1153 993 1264 1117 1197 1053 b 1079 1019 1121 999 1089 1008 b 963 1179 1074 1064 1051 1099 "},"Ţ":{"ha":1032,"x_min":0,"x_max":0,"o":"m 467 -299 b 340 -299 425 -314 379 -311 l 251 -371 b 425 -590 439 -364 510 -486 b 46 -625 346 -685 150 -706 b 61 -597 47 -615 53 -606 b 281 -546 144 -628 229 -610 b 168 -403 329 -481 296 -403 l 183 -375 l 318 -289 b 260 -237 290 -276 269 -258 b 1049 867 378 44 724 585 b 206 811 785 882 478 867 b 308 1004 203 856 226 924 b 1157 935 547 1053 956 976 b 1500 968 1203 944 1361 958 b 1517 790 1521 907 1532 835 b 1133 860 1418 822 1285 846 b 467 -299 786 558 506 14 "},"Ț":{"ha":1032,"x_min":0,"x_max":0,"o":"m 467 -299 b 260 -237 386 -328 286 -292 b 1049 867 378 44 724 585 b 206 811 785 882 478 867 b 308 1004 203 856 226 924 b 1157 935 547 1053 956 976 b 1500 968 1203 944 1361 958 b 1517 790 1521 907 1532 835 b 1133 860 1418 822 1285 846 b 467 -299 786 558 506 14 m 135 -665 b 246 -558 188 -628 225 -587 b 178 -500 219 -543 194 -526 b 315 -362 201 -457 246 -403 b 393 -467 344 -389 378 -426 b 150 -693 349 -558 243 -640 b 135 -665 142 -685 135 -675 "},"Ṭ":{"ha":1032,"x_min":0,"x_max":0,"o":"m 467 -299 b 260 -237 386 -328 286 -292 b 1049 867 378 44 724 585 b 206 811 785 882 478 867 b 308 1004 203 856 226 924 b 1157 935 547 1053 956 976 b 1500 968 1203 944 1361 958 b 1517 790 1521 907 1532 835 b 1133 860 1418 822 1285 846 b 467 -299 786 558 506 14 m 154 -510 b 293 -400 181 -490 233 -457 b 407 -481 314 -424 354 -458 b 249 -621 365 -529 307 -586 b 154 -510 215 -590 178 -549 "},"Ṯ":{"ha":1032,"x_min":0,"x_max":0,"o":"m 467 -299 b 260 -237 386 -328 286 -292 b 1049 867 378 44 724 585 b 206 811 785 882 478 867 b 308 1004 203 856 226 924 b 1157 935 547 1053 956 976 b 1500 968 1203 944 1361 958 b 1517 790 1521 907 1532 835 b 1133 860 1418 822 1285 846 b 467 -299 786 558 506 14 m 100 -475 b 135 -408 104 -457 118 -432 b 481 -410 258 -421 390 -426 b 461 -517 497 -433 479 -487 b 100 -475 311 -544 147 -493 "},"U":{"ha":1229,"x_min":0,"x_max":0,"o":"m -12 -22 b 342 960 -250 121 371 529 b 506 929 399 965 468 964 b 178 125 508 624 -28 257 b 704 503 265 69 446 258 b 1058 968 774 651 888 815 b 1151 882 1097 957 1129 919 b 826 125 761 633 693 201 b 1235 372 932 60 1138 186 l 1278 343 b 675 13 1128 22 794 -68 b 665 404 611 56 597 210 b -12 -22 403 131 136 -112 "},"Ú":{"ha":1229,"x_min":0,"x_max":0,"o":"m -12 -22 b 342 960 -250 121 371 529 b 506 929 399 965 468 964 b 178 125 508 624 -28 257 b 704 503 265 69 446 258 b 1058 968 774 651 888 815 b 1151 882 1097 957 1129 919 b 826 125 761 633 693 201 b 1235 372 932 60 1138 186 l 1278 343 b 675 13 1128 22 794 -68 b 665 404 611 56 597 210 b -12 -22 403 131 136 -112 m 642 972 b 649 1021 638 979 640 1001 b 908 1254 736 1076 842 1158 b 963 1124 958 1257 981 1194 b 642 972 883 1046 749 996 "},"Ŭ":{"ha":1229,"x_min":0,"x_max":0,"o":"m -12 -22 b 342 960 -250 121 371 529 b 506 929 399 965 468 964 b 178 125 508 624 -28 257 b 704 503 265 69 446 258 b 1058 968 774 651 888 815 b 1151 882 1097 957 1129 919 b 826 125 761 633 693 201 b 1235 372 932 60 1138 186 l 1278 343 b 675 13 1128 22 794 -68 b 665 404 611 56 597 210 b -12 -22 403 131 136 -112 m 563 1121 b 724 1153 633 1188 718 1178 b 926 1143 715 1006 838 974 b 1013 1135 978 1169 1017 1154 b 563 1121 904 935 610 906 "},"Ǔ":{"ha":1229,"x_min":0,"x_max":0,"o":"m -12 -22 b 342 960 -250 121 371 529 b 506 929 399 965 468 964 b 178 125 508 624 -28 257 b 704 503 265 69 446 258 b 1058 968 774 651 888 815 b 1151 882 1097 957 1129 919 b 826 125 761 633 693 201 b 1235 372 932 60 1138 186 l 1278 343 b 675 13 1128 22 794 -68 b 665 404 611 56 597 210 b -12 -22 403 131 136 -112 m 589 1146 b 656 1211 604 1172 626 1200 b 742 1039 674 1169 706 1106 b 925 1211 769 1069 836 1132 b 965 1135 944 1192 961 1165 b 779 960 890 1083 824 1019 b 706 986 747 965 715 975 b 589 1146 700 1031 678 1065 "},"Û":{"ha":1229,"x_min":0,"x_max":0,"o":"m -12 -22 b 342 960 -250 121 371 529 b 506 929 399 965 468 964 b 178 125 508 624 -28 257 b 704 503 265 69 446 258 b 1058 968 774 651 888 815 b 1151 882 1097 957 1129 919 b 826 125 761 633 693 201 b 1235 372 932 60 1138 186 l 1278 343 b 675 13 1128 22 794 -68 b 665 404 611 56 597 210 b -12 -22 403 131 136 -112 m 585 1015 b 771 1190 660 1067 726 1131 b 844 1164 803 1185 835 1175 b 960 1004 849 1119 871 1085 b 894 939 944 978 922 951 b 808 1110 876 982 844 1046 b 625 939 781 1081 714 1018 b 585 1015 606 958 589 985 "},"Ü":{"ha":1229,"x_min":0,"x_max":0,"o":"m -12 -22 b 342 960 -250 121 371 529 b 506 929 399 965 468 964 b 178 125 508 624 -28 257 b 704 503 265 69 446 258 b 1058 968 774 651 888 815 b 1151 882 1097 957 1129 919 b 826 125 761 633 693 201 b 1235 372 932 60 1138 186 l 1278 343 b 675 13 1128 22 794 -68 b 665 404 611 56 597 210 b -12 -22 403 131 136 -112 m 553 1071 b 692 1181 579 1090 633 1125 b 792 1106 711 1158 747 1128 b 908 1200 819 1126 863 1156 b 1022 1119 929 1176 969 1142 b 864 979 981 1071 922 1014 b 781 1071 838 1003 804 1036 b 647 960 747 1038 701 992 b 553 1071 614 990 575 1032 "},"Ǘ":{"ha":1229,"x_min":0,"x_max":0,"o":"m -12 -22 b 342 960 -250 121 371 529 b 506 929 399 965 468 964 b 178 125 508 624 -28 257 b 704 503 265 69 446 258 b 1058 968 774 651 888 815 b 1151 882 1097 957 1129 919 b 826 125 761 633 693 201 b 1235 372 932 60 1138 186 l 1278 343 b 675 13 1128 22 794 -68 b 665 404 611 56 597 210 b -12 -22 403 131 136 -112 m 553 1071 b 692 1181 579 1090 633 1125 b 792 1106 711 1158 747 1128 b 908 1200 819 1126 863 1156 b 1022 1119 929 1176 969 1142 b 864 979 981 1071 922 1014 b 781 1071 838 1003 804 1036 b 647 960 747 1038 701 992 b 553 1071 614 990 575 1032 m 743 1254 b 750 1303 739 1261 742 1283 b 1010 1536 838 1358 943 1440 b 1064 1406 1060 1539 1082 1476 b 743 1254 985 1328 850 1278 "},"Ǚ":{"ha":1229,"x_min":0,"x_max":0,"o":"m -12 -22 b 342 960 -250 121 371 529 b 506 929 399 965 468 964 b 178 125 508 624 -28 257 b 704 503 265 69 446 258 b 1058 968 774 651 888 815 b 1151 882 1097 957 1129 919 b 826 125 761 633 693 201 b 1235 372 932 60 1138 186 l 1278 343 b 675 13 1128 22 794 -68 b 665 404 611 56 597 210 b -12 -22 403 131 136 -112 m 553 1071 b 692 1181 579 1090 633 1125 b 792 1106 711 1158 747 1128 b 908 1200 819 1126 863 1156 b 1022 1119 929 1176 969 1142 b 864 979 981 1071 922 1014 b 781 1071 838 1003 804 1036 b 647 960 747 1038 701 992 b 553 1071 614 990 575 1032 m 690 1428 b 757 1493 706 1454 728 1482 b 843 1321 775 1451 807 1388 b 1026 1493 871 1351 938 1414 b 1067 1417 1046 1474 1063 1447 b 881 1242 992 1365 925 1301 b 807 1268 849 1247 817 1257 b 690 1428 801 1313 779 1347 "},"Ǜ":{"ha":1229,"x_min":0,"x_max":0,"o":"m -12 -22 b 342 960 -250 121 371 529 b 506 929 399 965 468 964 b 178 125 508 624 -28 257 b 704 503 265 69 446 258 b 1058 968 774 651 888 815 b 1151 882 1097 957 1129 919 b 826 125 761 633 693 201 b 1235 372 932 60 1138 186 l 1278 343 b 675 13 1128 22 794 -68 b 665 404 611 56 597 210 b -12 -22 403 131 136 -112 m 553 1071 b 692 1181 579 1090 633 1125 b 792 1106 711 1158 747 1128 b 908 1200 819 1126 863 1156 b 1022 1119 929 1176 969 1142 b 864 979 981 1071 922 1014 b 781 1071 838 1003 804 1036 b 647 960 747 1038 701 992 b 553 1071 614 990 575 1032 m 754 1357 b 868 1468 767 1410 817 1464 b 1031 1301 897 1397 969 1340 b 1013 1264 1031 1288 1022 1271 b 754 1357 914 1275 803 1303 "},"Ǖ":{"ha":1229,"x_min":0,"x_max":0,"o":"m -12 -22 b 342 960 -250 121 371 529 b 506 929 399 965 468 964 b 178 125 508 624 -28 257 b 704 503 265 69 446 258 b 1058 968 774 651 888 815 b 1151 882 1097 957 1129 919 b 826 125 761 633 693 201 b 1235 372 932 60 1138 186 l 1278 343 b 675 13 1128 22 794 -68 b 665 404 611 56 597 210 b -12 -22 403 131 136 -112 m 553 1071 b 692 1181 579 1090 633 1125 b 792 1106 711 1158 747 1128 b 908 1200 819 1126 863 1156 b 1022 1119 929 1176 969 1142 b 864 979 981 1071 922 1014 b 781 1071 838 1003 804 1036 b 647 960 747 1038 701 992 b 553 1071 614 990 575 1032 m 658 1310 b 693 1376 663 1328 676 1353 b 1039 1375 817 1364 949 1358 b 1019 1268 1056 1351 1038 1297 b 658 1310 869 1240 706 1292 "},"Ụ":{"ha":1229,"x_min":0,"x_max":0,"o":"m -12 -22 b 342 960 -250 121 371 529 b 506 929 399 965 468 964 b 178 125 508 624 -28 257 b 704 503 265 69 446 258 b 1058 968 774 651 888 815 b 1151 882 1097 957 1129 919 b 826 125 761 633 693 201 b 1235 372 932 60 1138 186 l 1278 343 b 675 13 1128 22 794 -68 b 665 404 611 56 597 210 b -12 -22 403 131 136 -112 m 131 -192 b 269 -82 157 -172 210 -139 b 383 -162 290 -106 331 -140 b 225 -303 342 -211 283 -268 b 131 -192 192 -272 154 -231 "},"Ù":{"ha":1229,"x_min":0,"x_max":0,"o":"m -12 -22 b 342 960 -250 121 371 529 b 506 929 399 965 468 964 b 178 125 508 624 -28 257 b 704 503 265 69 446 258 b 1058 968 774 651 888 815 b 1151 882 1097 957 1129 919 b 826 125 761 633 693 201 b 1235 372 932 60 1138 186 l 1278 343 b 675 13 1128 22 794 -68 b 665 404 611 56 597 210 b -12 -22 403 131 136 -112 m 653 1075 b 767 1186 665 1128 715 1182 b 929 1019 796 1115 868 1058 b 911 982 929 1006 921 989 b 653 1075 813 993 701 1021 "},"Ủ":{"ha":1229,"x_min":0,"x_max":0,"o":"m -12 -22 b 342 960 -250 121 371 529 b 506 929 399 965 468 964 b 178 125 508 624 -28 257 b 704 503 265 69 446 258 b 1058 968 774 651 888 815 b 1151 882 1097 957 1129 919 b 826 125 761 633 693 201 b 1235 372 932 60 1138 186 l 1278 343 b 675 13 1128 22 794 -68 b 665 404 611 56 597 210 b -12 -22 403 131 136 -112 m 624 983 b 851 1244 833 1061 892 1194 b 728 1264 813 1289 758 1276 b 725 1279 724 1267 722 1272 b 996 1329 832 1374 943 1392 b 632 968 1061 1253 975 1075 l 624 983 "},"Ư":{"ha":1229,"x_min":0,"x_max":0,"o":"m -12 -22 b 342 960 -250 121 371 529 b 506 929 399 965 468 964 b 178 125 508 624 -28 257 b 704 503 265 69 446 258 b 1058 968 774 651 888 815 b 1151 882 1097 957 1129 919 b 994 757 1092 844 1039 801 b 1353 992 1106 735 1278 796 l 1368 983 b 954 682 1264 646 1110 560 l 976 739 b 826 125 743 494 717 188 b 1235 372 932 60 1138 186 l 1278 343 b 675 13 1128 22 794 -68 b 665 404 611 56 597 210 b -12 -22 403 131 136 -112 "},"Ứ":{"ha":1229,"x_min":0,"x_max":0,"o":"m -12 -22 b 342 960 -250 121 371 529 b 506 929 399 965 468 964 b 178 125 508 624 -28 257 b 704 503 265 69 446 258 b 1058 968 774 651 888 815 b 1151 882 1097 957 1129 919 b 994 757 1092 844 1039 801 b 1353 992 1106 735 1278 796 l 1368 983 b 954 682 1264 646 1110 560 l 976 739 b 826 125 743 494 717 188 b 1235 372 932 60 1138 186 l 1278 343 b 675 13 1128 22 794 -68 b 665 404 611 56 597 210 b -12 -22 403 131 136 -112 m 642 972 b 649 1021 638 979 640 1001 b 908 1254 736 1076 842 1158 b 963 1124 958 1257 981 1194 b 642 972 883 1046 749 996 "},"Ự":{"ha":1229,"x_min":0,"x_max":0,"o":"m -12 -22 b 342 960 -250 121 371 529 b 506 929 399 965 468 964 b 178 125 508 624 -28 257 b 704 503 265 69 446 258 b 1058 968 774 651 888 815 b 1151 882 1097 957 1129 919 b 994 757 1092 844 1039 801 b 1353 992 1106 735 1278 796 l 1368 983 b 954 682 1264 646 1110 560 l 976 739 b 826 125 743 494 717 188 b 1235 372 932 60 1138 186 l 1278 343 b 675 13 1128 22 794 -68 b 665 404 611 56 597 210 b -12 -22 403 131 136 -112 m 131 -192 b 269 -82 157 -172 210 -139 b 383 -162 290 -106 331 -140 b 225 -303 342 -211 283 -268 b 131 -192 192 -272 154 -231 "},"Ừ":{"ha":1229,"x_min":0,"x_max":0,"o":"m -12 -22 b 342 960 -250 121 371 529 b 506 929 399 965 468 964 b 178 125 508 624 -28 257 b 704 503 265 69 446 258 b 1058 968 774 651 888 815 b 1151 882 1097 957 1129 919 b 994 757 1092 844 1039 801 b 1353 992 1106 735 1278 796 l 1368 983 b 954 682 1264 646 1110 560 l 976 739 b 826 125 743 494 717 188 b 1235 372 932 60 1138 186 l 1278 343 b 675 13 1128 22 794 -68 b 665 404 611 56 597 210 b -12 -22 403 131 136 -112 m 653 1075 b 767 1186 665 1128 715 1182 b 929 1019 796 1115 868 1058 b 911 982 929 1006 921 989 b 653 1075 813 993 701 1021 "},"Ử":{"ha":1229,"x_min":0,"x_max":0,"o":"m -12 -22 b 342 960 -250 121 371 529 b 506 929 399 965 468 964 b 178 125 508 624 -28 257 b 704 503 265 69 446 258 b 1058 968 774 651 888 815 b 1151 882 1097 957 1129 919 b 994 757 1092 844 1039 801 b 1353 992 1106 735 1278 796 l 1368 983 b 954 682 1264 646 1110 560 l 976 739 b 826 125 743 494 717 188 b 1235 372 932 60 1138 186 l 1278 343 b 675 13 1128 22 794 -68 b 665 404 611 56 597 210 b -12 -22 403 131 136 -112 m 624 983 b 851 1244 833 1061 892 1194 b 728 1264 813 1289 758 1276 b 725 1279 724 1267 722 1272 b 996 1329 832 1374 943 1392 b 632 968 1061 1253 975 1075 l 624 983 "},"Ữ":{"ha":1229,"x_min":0,"x_max":0,"o":"m -12 -22 b 342 960 -250 121 371 529 b 506 929 399 965 468 964 b 178 125 508 624 -28 257 b 704 503 265 69 446 258 b 1058 968 774 651 888 815 b 1151 882 1097 957 1129 919 b 994 757 1092 844 1039 801 b 1353 992 1106 735 1278 796 l 1368 983 b 954 682 1264 646 1110 560 l 976 739 b 826 125 743 494 717 188 b 1235 372 932 60 1138 186 l 1278 343 b 675 13 1128 22 794 -68 b 665 404 611 56 597 210 b -12 -22 403 131 136 -112 m 574 1097 b 846 1089 808 1304 760 1056 b 921 1168 888 1104 911 1139 b 1033 1122 979 1190 1040 1185 b 785 997 940 1019 821 989 b 722 1118 743 1004 760 1122 b 644 993 688 1114 653 1044 b 574 1097 597 989 568 1054 "},"Ű":{"ha":1229,"x_min":0,"x_max":0,"o":"m -12 -22 b 342 960 -250 121 371 529 b 506 929 399 965 468 964 b 178 125 508 624 -28 257 b 704 503 265 69 446 258 b 1058 968 774 651 888 815 b 1151 882 1097 957 1129 919 b 826 125 761 633 693 201 b 1235 372 932 60 1138 186 l 1278 343 b 675 13 1128 22 794 -68 b 665 404 611 56 597 210 b -12 -22 403 131 136 -112 m 574 985 b 581 1033 569 992 572 1014 b 840 1267 668 1089 774 1171 b 890 1124 892 1269 914 1201 b 1026 1267 943 1164 988 1214 b 1081 1136 1076 1269 1099 1207 b 760 985 1001 1058 867 1008 b 779 1057 756 993 758 1024 b 574 985 706 1019 625 996 "},"Ū":{"ha":1229,"x_min":0,"x_max":0,"o":"m -12 -22 b 342 960 -250 121 371 529 b 506 929 399 965 468 964 b 178 125 508 624 -28 257 b 704 503 265 69 446 258 b 1058 968 774 651 888 815 b 1151 882 1097 957 1129 919 b 826 125 761 633 693 201 b 1235 372 932 60 1138 186 l 1278 343 b 675 13 1128 22 794 -68 b 665 404 611 56 597 210 b -12 -22 403 131 136 -112 m 557 1028 b 592 1094 561 1046 575 1071 b 938 1093 715 1082 847 1076 b 918 986 954 1069 936 1015 b 557 1028 768 958 604 1010 "},"Ų":{"ha":1229,"x_min":0,"x_max":0,"o":"m -12 -22 b 342 960 -250 121 371 529 b 506 929 399 965 468 964 b 178 125 508 624 -28 257 b 704 503 265 69 446 258 b 1058 968 774 651 888 815 b 1151 882 1097 957 1129 919 b 826 125 761 633 693 201 b 1235 372 932 60 1138 186 l 1278 343 b 832 -12 1174 119 979 8 b 640 -258 651 -90 603 -211 b 764 -278 679 -303 733 -290 b 767 -293 768 -281 769 -286 b 496 -343 660 -387 549 -406 b 768 -15 438 -274 501 -122 b 675 13 731 -12 699 -3 b 665 404 611 56 597 210 b -12 -22 403 131 136 -112 "},"Ů":{"ha":1229,"x_min":0,"x_max":0,"o":"m -12 -22 b 342 960 -250 121 371 529 b 506 929 399 965 468 964 b 178 125 508 624 -28 257 b 704 503 265 69 446 258 b 1058 968 774 651 888 815 b 1151 882 1097 957 1129 919 b 826 125 761 633 693 201 b 1235 372 932 60 1138 186 l 1278 343 b 675 13 1128 22 794 -68 b 665 404 611 56 597 210 b -12 -22 403 131 136 -112 m 776 989 b 892 1236 496 933 603 1171 b 776 989 1164 1296 1076 1049 m 789 1025 b 850 1190 861 1032 1024 1206 b 789 1025 718 1178 676 1015 "},"Ũ":{"ha":1229,"x_min":0,"x_max":0,"o":"m -12 -22 b 342 960 -250 121 371 529 b 506 929 399 965 468 964 b 178 125 508 624 -28 257 b 704 503 265 69 446 258 b 1058 968 774 651 888 815 b 1151 882 1097 957 1129 919 b 826 125 761 633 693 201 b 1235 372 932 60 1138 186 l 1278 343 b 675 13 1128 22 794 -68 b 665 404 611 56 597 210 b -12 -22 403 131 136 -112 m 574 1097 b 846 1089 808 1304 760 1056 b 921 1168 888 1104 911 1139 b 1033 1122 979 1190 1040 1185 b 785 997 940 1019 821 989 b 722 1118 743 1004 760 1122 b 644 993 688 1114 653 1044 b 574 1097 597 989 568 1054 "},"V":{"ha":1136,"x_min":0,"x_max":0,"o":"m 56 -78 b 238 917 235 240 326 813 b 443 1038 282 967 360 1028 b 140 -42 563 975 367 371 b 1140 1076 564 233 1038 765 b 1354 967 1235 1092 1335 1033 b 79 -153 1157 668 507 61 b 47 -99 60 -139 50 -118 l 89 -74 b 56 -78 78 -76 67 -78 "},"W":{"ha":1553,"x_min":0,"x_max":0,"o":"m 54 -78 b 238 917 232 240 325 813 b 440 1038 281 967 358 1028 b 139 -40 563 975 367 371 b 854 938 525 217 757 632 b 992 889 922 950 969 925 b 668 -40 1136 769 889 356 b 1667 1076 1090 235 1565 765 b 1881 967 1761 1092 1863 1033 b 607 -153 1683 668 1033 61 b 572 -99 588 -139 576 -118 l 614 -75 b 581 -78 603 -76 592 -78 b 868 643 708 140 832 444 b 79 -153 675 358 410 14 b 46 -99 58 -139 49 -118 l 88 -74 b 54 -78 76 -76 65 -78 "},"Ẃ":{"ha":1553,"x_min":0,"x_max":0,"o":"m 54 -78 b 238 917 232 240 325 813 b 440 1038 281 967 358 1028 b 139 -40 563 975 367 371 b 854 938 525 217 757 632 b 992 889 922 950 969 925 b 668 -40 1136 769 889 356 b 1667 1076 1090 235 1565 765 b 1881 967 1761 1092 1863 1033 b 607 -153 1683 668 1033 61 b 572 -99 588 -139 576 -118 l 614 -75 b 581 -78 603 -76 592 -78 b 868 643 708 140 832 444 b 79 -153 675 358 410 14 b 46 -99 58 -139 49 -118 l 88 -74 b 54 -78 76 -76 65 -78 m 914 1006 b 921 1054 910 1013 913 1035 b 1181 1288 1008 1110 1114 1192 b 1235 1157 1231 1290 1253 1228 b 914 1006 1156 1079 1021 1029 "},"Ŵ":{"ha":1553,"x_min":0,"x_max":0,"o":"m 54 -78 b 238 917 232 240 325 813 b 440 1038 281 967 358 1028 b 139 -40 563 975 367 371 b 854 938 525 217 757 632 b 992 889 922 950 969 925 b 668 -40 1136 769 889 356 b 1667 1076 1090 235 1565 765 b 1881 967 1761 1092 1863 1033 b 607 -153 1683 668 1033 61 b 572 -99 588 -139 576 -118 l 614 -75 b 581 -78 603 -76 592 -78 b 868 643 708 140 832 444 b 79 -153 675 358 410 14 b 46 -99 58 -139 49 -118 l 88 -74 b 54 -78 76 -76 65 -78 m 857 1049 b 1043 1224 932 1100 999 1164 b 1117 1197 1075 1218 1107 1208 b 1232 1038 1121 1153 1143 1118 b 1167 972 1217 1011 1194 985 b 1081 1143 1149 1015 1117 1079 b 897 972 1053 1114 986 1051 b 857 1049 878 992 861 1018 "},"Ẅ":{"ha":1553,"x_min":0,"x_max":0,"o":"m 54 -78 b 238 917 232 240 325 813 b 440 1038 281 967 358 1028 b 139 -40 563 975 367 371 b 854 938 525 217 757 632 b 992 889 922 950 969 925 b 668 -40 1136 769 889 356 b 1667 1076 1090 235 1565 765 b 1881 967 1761 1092 1863 1033 b 607 -153 1683 668 1033 61 b 572 -99 588 -139 576 -118 l 614 -75 b 581 -78 603 -76 592 -78 b 868 643 708 140 832 444 b 79 -153 675 358 410 14 b 46 -99 58 -139 49 -118 l 88 -74 b 54 -78 76 -76 65 -78 m 825 1104 b 964 1214 851 1124 906 1158 b 1064 1139 983 1192 1019 1161 b 1181 1233 1092 1160 1135 1189 b 1294 1153 1201 1210 1242 1175 b 1136 1013 1253 1104 1194 1047 b 1053 1104 1110 1036 1076 1069 b 919 993 1019 1071 974 1025 b 825 1104 886 1024 847 1065 "},"Ẁ":{"ha":1553,"x_min":0,"x_max":0,"o":"m 54 -78 b 238 917 232 240 325 813 b 440 1038 281 967 358 1028 b 139 -40 563 975 367 371 b 854 938 525 217 757 632 b 992 889 922 950 969 925 b 668 -40 1136 769 889 356 b 1667 1076 1090 235 1565 765 b 1881 967 1761 1092 1863 1033 b 607 -153 1683 668 1033 61 b 572 -99 588 -139 576 -118 l 614 -75 b 581 -78 603 -76 592 -78 b 868 643 708 140 832 444 b 79 -153 675 358 410 14 b 46 -99 58 -139 49 -118 l 88 -74 b 54 -78 76 -76 65 -78 m 925 1108 b 1039 1219 938 1161 988 1215 b 1201 1053 1068 1149 1140 1092 b 1183 1015 1201 1039 1193 1022 b 925 1108 1085 1026 974 1054 "},"X":{"ha":1251,"x_min":0,"x_max":0,"o":"m -6 -290 b -165 -189 -81 -287 -153 -229 b 499 390 65 -89 267 154 b 524 883 467 529 465 697 b 672 868 572 900 628 888 b 585 476 597 728 572 593 b 1194 882 761 646 957 801 b 1242 849 1213 875 1231 864 b 603 393 950 724 758 563 b 869 122 643 258 739 160 b 1257 371 985 90 1156 171 l 1300 343 b 715 11 1153 32 835 -69 b 524 303 654 51 574 156 b -6 -290 350 97 210 -115 "},"Y":{"ha":964,"x_min":0,"x_max":0,"o":"m -11 -22 b 340 960 -250 121 371 529 b 506 929 397 965 467 964 b 178 125 508 624 -29 257 b 603 407 253 76 399 211 b 938 876 713 608 825 771 b 1099 786 1006 871 1054 843 b 308 -440 871 606 457 -4 b 268 -367 286 -421 268 -394 b 532 268 350 -136 439 79 b -11 -22 315 57 111 -97 "},"Ý":{"ha":964,"x_min":0,"x_max":0,"o":"m -11 -22 b 340 960 -250 121 371 529 b 506 929 397 965 467 964 b 178 125 508 624 -29 257 b 603 407 253 76 399 211 b 938 876 713 608 825 771 b 1099 786 1006 871 1054 843 b 308 -440 871 606 457 -4 b 268 -367 286 -421 268 -394 b 532 268 350 -136 439 79 b -11 -22 315 57 111 -97 m 619 1006 b 626 1054 615 1013 618 1035 b 886 1288 714 1110 819 1192 b 940 1157 936 1290 958 1228 b 619 1006 861 1079 726 1029 "},"Ŷ":{"ha":964,"x_min":0,"x_max":0,"o":"m -11 -22 b 340 960 -250 121 371 529 b 506 929 397 965 467 964 b 178 125 508 624 -29 257 b 603 407 253 76 399 211 b 938 876 713 608 825 771 b 1099 786 1006 871 1054 843 b 308 -440 871 606 457 -4 b 268 -367 286 -421 268 -394 b 532 268 350 -136 439 79 b -11 -22 315 57 111 -97 m 563 1049 b 749 1224 638 1100 704 1164 b 822 1197 781 1218 813 1208 b 938 1038 826 1153 849 1118 b 872 972 922 1011 900 985 b 786 1143 854 1015 822 1079 b 603 972 758 1114 692 1051 b 563 1049 583 992 567 1018 "},"Ÿ":{"ha":964,"x_min":0,"x_max":0,"o":"m -11 -22 b 340 960 -250 121 371 529 b 506 929 397 965 467 964 b 178 125 508 624 -29 257 b 603 407 253 76 399 211 b 938 876 713 608 825 771 b 1099 786 1006 871 1054 843 b 308 -440 871 606 457 -4 b 268 -367 286 -421 268 -394 b 532 268 350 -136 439 79 b -11 -22 315 57 111 -97 m 531 1104 b 669 1214 557 1124 611 1158 b 769 1139 689 1192 725 1161 b 886 1233 797 1160 840 1189 b 1000 1153 907 1210 947 1175 b 842 1013 958 1104 900 1047 b 758 1104 815 1036 782 1069 b 625 993 725 1071 679 1025 b 531 1104 592 1024 553 1065 "},"Ẏ":{"ha":964,"x_min":0,"x_max":0,"o":"m -11 -22 b 340 960 -250 121 371 529 b 506 929 397 965 467 964 b 178 125 508 624 -29 257 b 603 407 253 76 399 211 b 938 876 713 608 825 771 b 1099 786 1006 871 1054 843 b 308 -440 871 606 457 -4 b 268 -367 286 -421 268 -394 b 532 268 350 -136 439 79 b -11 -22 315 57 111 -97 m 650 1132 b 789 1242 676 1151 729 1185 b 903 1161 810 1218 850 1183 b 744 1021 861 1113 803 1056 b 650 1132 711 1051 674 1093 "},"Ỵ":{"ha":964,"x_min":0,"x_max":0,"o":"m -11 -22 b 340 960 -250 121 371 529 b 506 929 397 965 467 964 b 178 125 508 624 -29 257 b 603 407 253 76 399 211 b 938 876 713 608 825 771 b 1099 786 1006 871 1054 843 b 308 -440 871 606 457 -4 b 268 -367 286 -421 268 -394 b 532 268 350 -136 439 79 b -11 -22 315 57 111 -97 m -47 -254 b 92 -144 -21 -235 32 -201 b 206 -225 113 -168 153 -203 b 47 -365 164 -274 106 -331 b -47 -254 14 -335 -24 -293 "},"Ỳ":{"ha":964,"x_min":0,"x_max":0,"o":"m -11 -22 b 340 960 -250 121 371 529 b 506 929 397 965 467 964 b 178 125 508 624 -29 257 b 603 407 253 76 399 211 b 938 876 713 608 825 771 b 1099 786 1006 871 1054 843 b 308 -440 871 606 457 -4 b 268 -367 286 -421 268 -394 b 532 268 350 -136 439 79 b -11 -22 315 57 111 -97 m 631 1108 b 744 1219 643 1161 693 1215 b 907 1053 774 1149 846 1092 b 889 1015 907 1039 899 1022 b 631 1108 790 1026 679 1054 "},"Ỷ":{"ha":964,"x_min":0,"x_max":0,"o":"m -11 -22 b 340 960 -250 121 371 529 b 506 929 397 965 467 964 b 178 125 508 624 -29 257 b 603 407 253 76 399 211 b 938 876 713 608 825 771 b 1099 786 1006 871 1054 843 b 308 -440 871 606 457 -4 b 268 -367 286 -421 268 -394 b 532 268 350 -136 439 79 b -11 -22 315 57 111 -97 m 601 1017 b 829 1278 811 1094 869 1228 b 706 1297 790 1322 736 1310 b 703 1313 701 1300 700 1306 b 974 1363 810 1407 921 1425 b 610 1001 1039 1286 953 1108 l 601 1017 "},"Ȳ":{"ha":964,"x_min":0,"x_max":0,"o":"m -11 -22 b 340 960 -250 121 371 529 b 506 929 397 965 467 964 b 178 125 508 624 -29 257 b 603 407 253 76 399 211 b 938 876 713 608 825 771 b 1099 786 1006 871 1054 843 b 308 -440 871 606 457 -4 b 268 -367 286 -421 268 -394 b 532 268 350 -136 439 79 b -11 -22 315 57 111 -97 m 535 1061 b 569 1128 539 1079 553 1104 b 915 1126 693 1115 825 1110 b 896 1019 932 1103 914 1049 b 535 1061 746 992 582 1043 "},"Ỹ":{"ha":964,"x_min":0,"x_max":0,"o":"m -11 -22 b 340 960 -250 121 371 529 b 506 929 397 965 467 964 b 178 125 508 624 -29 257 b 603 407 253 76 399 211 b 938 876 713 608 825 771 b 1099 786 1006 871 1054 843 b 308 -440 871 606 457 -4 b 268 -367 286 -421 268 -394 b 532 268 350 -136 439 79 b -11 -22 315 57 111 -97 m 551 1131 b 824 1122 786 1338 738 1089 b 899 1201 865 1138 889 1172 b 1011 1156 957 1224 1018 1218 b 763 1031 918 1053 799 1022 b 700 1151 721 1038 738 1156 b 622 1026 665 1147 631 1078 b 551 1131 575 1022 546 1088 "},"Z":{"ha":1206,"x_min":0,"x_max":0,"o":"m 676 11 b 336 181 572 81 517 231 b 82 -43 257 107 174 32 b -75 58 8 -39 -62 19 b 1026 832 313 225 596 638 b 325 743 833 838 613 804 b 425 935 321 788 344 854 b 1117 893 685 944 914 935 b 1313 961 1174 919 1251 944 b 1340 779 1346 906 1354 844 b 1142 822 1275 800 1210 814 b 388 231 839 686 635 468 b 832 122 557 261 646 174 b 1211 372 947 89 1113 179 l 1254 343 b 676 11 1115 44 794 -69 "},"Ź":{"ha":1206,"x_min":0,"x_max":0,"o":"m 676 11 b 336 181 572 81 517 231 b 82 -43 257 107 174 32 b -75 58 8 -39 -62 19 b 1026 832 313 225 596 638 b 325 743 833 838 613 804 b 425 935 321 788 344 854 b 1117 893 685 944 914 935 b 1313 961 1174 919 1251 944 b 1340 779 1346 906 1354 844 b 1142 822 1275 800 1210 814 b 388 231 839 686 635 468 b 832 122 557 261 646 174 b 1211 372 947 89 1113 179 l 1254 343 b 676 11 1115 44 794 -69 m 740 1006 b 747 1054 736 1013 739 1035 b 1007 1288 835 1110 940 1192 b 1061 1157 1057 1290 1079 1228 b 740 1006 982 1079 847 1029 "},"Ž":{"ha":1206,"x_min":0,"x_max":0,"o":"m 676 11 b 336 181 572 81 517 231 b 82 -43 257 107 174 32 b -75 58 8 -39 -62 19 b 1026 832 313 225 596 638 b 325 743 833 838 613 804 b 425 935 321 788 344 854 b 1117 893 685 944 914 935 b 1313 961 1174 919 1251 944 b 1340 779 1346 906 1354 844 b 1142 822 1275 800 1210 814 b 388 231 839 686 635 468 b 832 122 557 261 646 174 b 1211 372 947 89 1113 179 l 1254 343 b 676 11 1115 44 794 -69 m 688 1179 b 754 1244 703 1206 725 1233 b 840 1072 772 1203 804 1139 b 1024 1244 868 1103 935 1165 b 1064 1168 1043 1225 1060 1199 b 878 993 989 1117 922 1053 b 804 1019 846 999 814 1008 b 688 1179 799 1064 776 1099 "},"Ż":{"ha":1206,"x_min":0,"x_max":0,"o":"m 676 11 b 336 181 572 81 517 231 b 82 -43 257 107 174 32 b -75 58 8 -39 -62 19 b 1026 832 313 225 596 638 b 325 743 833 838 613 804 b 425 935 321 788 344 854 b 1117 893 685 944 914 935 b 1313 961 1174 919 1251 944 b 1340 779 1346 906 1354 844 b 1142 822 1275 800 1210 814 b 388 231 839 686 635 468 b 832 122 557 261 646 174 b 1211 372 947 89 1113 179 l 1254 343 b 676 11 1115 44 794 -69 m 771 1132 b 910 1242 797 1151 850 1185 b 1024 1161 931 1218 971 1183 b 865 1021 982 1113 924 1056 b 771 1132 832 1051 794 1093 "},"Ẓ":{"ha":1206,"x_min":0,"x_max":0,"o":"m 676 11 b 336 181 572 81 517 231 b 82 -43 257 107 174 32 b -75 58 8 -39 -62 19 b 1026 832 313 225 596 638 b 325 743 833 838 613 804 b 425 935 321 788 344 854 b 1117 893 685 944 914 935 b 1313 961 1174 919 1251 944 b 1340 779 1346 906 1354 844 b 1142 822 1275 800 1210 814 b 388 231 839 686 635 468 b 832 122 557 261 646 174 b 1211 372 947 89 1113 179 l 1254 343 b 676 11 1115 44 794 -69 m 213 -233 b 351 -124 239 -214 292 -181 b 465 -204 372 -147 413 -182 b 307 -344 424 -253 365 -310 b 213 -233 274 -314 236 -272 "},"Ẕ":{"ha":1206,"x_min":0,"x_max":0,"o":"m 676 11 b 336 181 572 81 517 231 b 82 -43 257 107 174 32 b -75 58 8 -39 -62 19 b 1026 832 313 225 596 638 b 325 743 833 838 613 804 b 425 935 321 788 344 854 b 1117 893 685 944 914 935 b 1313 961 1174 919 1251 944 b 1340 779 1346 906 1354 844 b 1142 822 1275 800 1210 814 b 388 231 839 686 635 468 b 832 122 557 261 646 174 b 1211 372 947 89 1113 179 l 1254 343 b 676 11 1115 44 794 -69 m 158 -199 b 193 -132 163 -181 176 -156 b 539 -133 317 -144 449 -150 b 519 -240 556 -157 538 -211 b 158 -199 369 -268 206 -217 "},"a":{"ha":863,"x_min":0,"x_max":0,"o":"m 133 26 b 29 407 -90 -40 -158 179 b 426 407 185 599 396 569 b 478 490 440 435 457 464 b 606 411 515 478 589 442 b 551 139 536 257 496 192 b 869 372 608 86 761 164 l 913 343 b 542 26 857 218 722 22 b 385 211 444 31 390 108 b 133 26 304 117 218 51 m 175 115 b 394 315 240 135 325 224 b 407 357 397 329 401 343 b 176 383 389 463 308 528 b 175 115 18 213 44 79 "},"á":{"ha":863,"x_min":0,"x_max":0,"o":"m 133 26 b 29 407 -90 -40 -158 179 b 426 407 185 599 396 569 b 478 490 440 435 457 464 b 606 411 515 478 589 442 b 551 139 536 257 496 192 b 869 372 608 86 761 164 l 913 343 b 542 26 857 218 722 22 b 385 211 444 31 390 108 b 133 26 304 117 218 51 m 175 115 b 394 315 240 135 325 224 b 407 357 397 329 401 343 b 176 383 389 463 308 528 b 175 115 18 213 44 79 m 286 656 b 293 704 282 663 285 685 b 553 938 381 760 486 842 b 607 807 603 940 625 878 b 286 656 528 729 393 679 "},"ă":{"ha":863,"x_min":0,"x_max":0,"o":"m 133 26 b 29 407 -90 -40 -158 179 b 426 407 185 599 396 569 b 478 490 440 435 457 464 b 606 411 515 478 589 442 b 551 139 536 257 496 192 b 869 372 608 86 761 164 l 913 343 b 542 26 857 218 722 22 b 385 211 444 31 390 108 b 133 26 304 117 218 51 m 175 115 b 394 315 240 135 325 224 b 407 357 397 329 401 343 b 176 383 389 463 308 528 b 175 115 18 213 44 79 m 207 804 b 368 836 278 871 363 861 b 571 826 360 689 482 657 b 657 818 622 853 661 838 b 207 804 549 618 254 589 "},"ắ":{"ha":863,"x_min":0,"x_max":0,"o":"m 133 26 b 29 407 -90 -40 -158 179 b 426 407 185 599 396 569 b 478 490 440 435 457 464 b 606 411 515 478 589 442 b 551 139 536 257 496 192 b 869 372 608 86 761 164 l 913 343 b 542 26 857 218 722 22 b 385 211 444 31 390 108 b 133 26 304 117 218 51 m 175 115 b 394 315 240 135 325 224 b 407 357 397 329 401 343 b 176 383 389 463 308 528 b 175 115 18 213 44 79 m 210 803 b 371 835 281 869 365 860 b 574 825 363 688 485 656 b 660 817 625 851 664 836 b 210 803 551 617 257 588 m 363 897 b 369 946 358 904 361 926 b 629 1179 457 1001 563 1083 b 683 1049 679 1182 701 1119 b 363 897 604 971 469 921 "},"ặ":{"ha":863,"x_min":0,"x_max":0,"o":"m 133 26 b 29 407 -90 -40 -158 179 b 426 407 185 599 396 569 b 478 490 440 435 457 464 b 606 411 515 478 589 442 b 551 139 536 257 496 192 b 869 372 608 86 761 164 l 913 343 b 542 26 857 218 722 22 b 385 211 444 31 390 108 b 133 26 304 117 218 51 m 67 -169 b 206 -60 93 -150 146 -117 b 319 -140 226 -83 267 -118 b 161 -281 278 -189 219 -246 b 67 -169 128 -250 90 -208 m 175 115 b 394 315 240 135 325 224 b 407 357 397 329 401 343 b 176 383 389 463 308 528 b 175 115 18 213 44 79 m 207 804 b 368 836 278 871 363 861 b 571 826 360 689 482 657 b 657 818 622 853 661 838 b 207 804 549 618 254 589 "},"ằ":{"ha":863,"x_min":0,"x_max":0,"o":"m 133 26 b 29 407 -90 -40 -158 179 b 426 407 185 599 396 569 b 478 490 440 435 457 464 b 606 411 515 478 589 442 b 551 139 536 257 496 192 b 869 372 608 86 761 164 l 913 343 b 542 26 857 218 722 22 b 385 211 444 31 390 108 b 133 26 304 117 218 51 m 175 115 b 394 315 240 135 325 224 b 407 357 397 329 401 343 b 176 383 389 463 308 528 b 175 115 18 213 44 79 m 214 803 b 375 835 285 869 369 860 b 578 825 367 688 489 656 b 664 817 629 851 668 836 b 214 803 556 617 261 588 m 378 1000 b 492 1111 390 1053 440 1107 b 654 944 521 1040 593 983 b 636 907 654 931 646 914 b 378 1000 538 918 426 946 "},"ẳ":{"ha":863,"x_min":0,"x_max":0,"o":"m 133 26 b 29 407 -90 -40 -158 179 b 426 407 185 599 396 569 b 478 490 440 435 457 464 b 606 411 515 478 589 442 b 551 139 536 257 496 192 b 869 372 608 86 761 164 l 913 343 b 542 26 857 218 722 22 b 385 211 444 31 390 108 b 133 26 304 117 218 51 m 175 115 b 394 315 240 135 325 224 b 407 357 397 329 401 343 b 176 383 389 463 308 528 b 175 115 18 213 44 79 m 229 801 b 390 833 300 868 385 858 b 593 824 382 686 504 654 b 679 815 644 850 683 835 b 229 801 571 615 276 586 m 433 863 b 661 1124 643 940 701 1074 b 538 1143 622 1168 568 1156 b 535 1158 533 1146 532 1151 b 806 1208 642 1253 753 1271 b 442 847 871 1132 785 954 l 433 863 "},"ẵ":{"ha":863,"x_min":0,"x_max":0,"o":"m 133 26 b 29 407 -90 -40 -158 179 b 426 407 185 599 396 569 b 478 490 440 435 457 464 b 606 411 515 478 589 442 b 551 139 536 257 496 192 b 869 372 608 86 761 164 l 913 343 b 542 26 857 218 722 22 b 385 211 444 31 390 108 b 133 26 304 117 218 51 m 175 115 b 394 315 240 135 325 224 b 407 357 397 329 401 343 b 176 383 389 463 308 528 b 175 115 18 213 44 79 m 210 814 b 371 846 281 881 365 871 b 574 836 363 699 485 667 b 660 828 625 863 664 847 b 210 814 551 628 257 599 m 294 1033 b 567 1025 529 1240 481 992 b 642 1104 608 1040 632 1075 b 754 1058 700 1126 761 1121 b 506 933 661 956 542 925 b 443 1054 464 940 481 1058 b 365 929 408 1050 374 981 b 294 1033 318 925 289 990 "},"ǎ":{"ha":863,"x_min":0,"x_max":0,"o":"m 133 26 b 29 407 -90 -40 -158 179 b 426 407 185 599 396 569 b 478 490 440 435 457 464 b 606 411 515 478 589 442 b 551 139 536 257 496 192 b 869 372 608 86 761 164 l 913 343 b 542 26 857 218 722 22 b 385 211 444 31 390 108 b 133 26 304 117 218 51 m 175 115 b 394 315 240 135 325 224 b 407 357 397 329 401 343 b 176 383 389 463 308 528 b 175 115 18 213 44 79 m 233 829 b 300 894 249 856 271 883 b 386 722 318 853 350 789 b 569 894 414 753 481 815 b 610 818 589 875 606 849 b 424 643 535 767 468 703 b 350 669 392 649 360 658 b 233 829 344 714 322 749 "},"â":{"ha":863,"x_min":0,"x_max":0,"o":"m 133 26 b 29 407 -90 -40 -158 179 b 426 407 185 599 396 569 b 478 490 440 435 457 464 b 606 411 515 478 589 442 b 551 139 536 257 496 192 b 869 372 608 86 761 164 l 913 343 b 542 26 857 218 722 22 b 385 211 444 31 390 108 b 133 26 304 117 218 51 m 175 115 b 394 315 240 135 325 224 b 407 357 397 329 401 343 b 176 383 389 463 308 528 b 175 115 18 213 44 79 m 229 699 b 415 874 304 750 371 814 b 489 847 447 868 479 858 b 604 688 493 803 515 768 b 539 622 589 661 567 635 b 453 793 521 665 489 729 b 269 622 425 764 358 701 b 229 699 250 642 233 668 "},"ấ":{"ha":863,"x_min":0,"x_max":0,"o":"m 133 26 b 29 407 -90 -40 -158 179 b 426 407 185 599 396 569 b 478 490 440 435 457 464 b 606 411 515 478 589 442 b 551 139 536 257 496 192 b 869 372 608 86 761 164 l 913 343 b 542 26 857 218 722 22 b 385 211 444 31 390 108 b 133 26 304 117 218 51 m 175 115 b 394 315 240 135 325 224 b 407 357 397 329 401 343 b 176 383 389 463 308 528 b 175 115 18 213 44 79 m 201 685 b 388 860 276 736 343 800 b 461 833 419 854 451 844 b 576 674 465 789 488 754 b 511 608 561 647 539 621 b 425 779 493 651 461 715 b 242 608 397 750 331 688 b 201 685 222 628 206 654 m 371 908 b 378 957 367 915 369 938 b 638 1190 465 1013 571 1094 b 692 1060 688 1193 710 1131 b 371 908 613 982 478 932 "},"ậ":{"ha":863,"x_min":0,"x_max":0,"o":"m 133 26 b 29 407 -90 -40 -158 179 b 426 407 185 599 396 569 b 478 490 440 435 457 464 b 606 411 515 478 589 442 b 551 139 536 257 496 192 b 869 372 608 86 761 164 l 913 343 b 542 26 857 218 722 22 b 385 211 444 31 390 108 b 133 26 304 117 218 51 m 67 -169 b 206 -60 93 -150 146 -117 b 319 -140 226 -83 267 -118 b 161 -281 278 -189 219 -246 b 67 -169 128 -250 90 -208 m 175 115 b 394 315 240 135 325 224 b 407 357 397 329 401 343 b 176 383 389 463 308 528 b 175 115 18 213 44 79 m 229 699 b 415 874 304 750 371 814 b 489 847 447 868 479 858 b 604 688 493 803 515 768 b 539 622 589 661 567 635 b 453 793 521 665 489 729 b 269 622 425 764 358 701 b 229 699 250 642 233 668 "},"ầ":{"ha":863,"x_min":0,"x_max":0,"o":"m 133 26 b 29 407 -90 -40 -158 179 b 426 407 185 599 396 569 b 478 490 440 435 457 464 b 606 411 515 478 589 442 b 551 139 536 257 496 192 b 869 372 608 86 761 164 l 913 343 b 542 26 857 218 722 22 b 385 211 444 31 390 108 b 133 26 304 117 218 51 m 175 115 b 394 315 240 135 325 224 b 407 357 397 329 401 343 b 176 383 389 463 308 528 b 175 115 18 213 44 79 m 211 704 b 397 879 286 756 353 819 b 471 853 429 874 461 864 b 586 693 475 808 497 774 b 521 628 571 667 549 640 b 435 799 503 671 471 735 b 251 628 407 769 340 707 b 211 704 232 647 215 674 m 392 1031 b 506 1142 404 1083 454 1138 b 668 975 535 1071 607 1014 b 650 938 668 961 660 944 b 392 1031 551 949 440 976 "},"ẩ":{"ha":863,"x_min":0,"x_max":0,"o":"m 133 26 b 29 407 -90 -40 -158 179 b 426 407 185 599 396 569 b 478 490 440 435 457 464 b 606 411 515 478 589 442 b 551 139 536 257 496 192 b 869 372 608 86 761 164 l 913 343 b 542 26 857 218 722 22 b 385 211 444 31 390 108 b 133 26 304 117 218 51 m 175 115 b 394 315 240 135 325 224 b 407 357 397 329 401 343 b 176 383 389 463 308 528 b 175 115 18 213 44 79 m 235 718 b 421 893 310 769 376 833 b 494 867 453 888 485 878 b 610 707 499 822 521 788 b 544 642 594 681 572 654 b 458 813 526 685 494 749 b 275 642 431 783 364 721 b 235 718 256 661 239 688 m 386 953 b 614 1214 596 1031 654 1164 b 490 1233 575 1258 521 1246 b 488 1249 486 1236 485 1242 b 758 1299 594 1343 706 1361 b 394 938 824 1222 738 1044 l 386 953 "},"ẫ":{"ha":863,"x_min":0,"x_max":0,"o":"m 133 26 b 29 407 -90 -40 -158 179 b 426 407 185 599 396 569 b 478 490 440 435 457 464 b 606 411 515 478 589 442 b 551 139 536 257 496 192 b 869 372 608 86 761 164 l 913 343 b 542 26 857 218 722 22 b 385 211 444 31 390 108 b 133 26 304 117 218 51 m 175 115 b 394 315 240 135 325 224 b 407 357 397 329 401 343 b 176 383 389 463 308 528 b 175 115 18 213 44 79 m 229 729 b 415 904 304 781 371 844 b 489 878 447 899 479 889 b 604 718 493 833 515 799 b 539 653 589 692 567 665 b 453 824 521 696 489 760 b 269 653 425 794 358 732 b 229 729 250 672 233 699 m 331 1078 b 603 1069 565 1285 517 1036 b 678 1149 644 1085 668 1119 b 790 1103 736 1171 797 1165 b 542 978 697 1000 578 969 b 479 1099 500 985 517 1103 b 401 974 444 1094 410 1025 b 331 1078 354 969 325 1035 "},"ä":{"ha":863,"x_min":0,"x_max":0,"o":"m 133 26 b 29 407 -90 -40 -158 179 b 426 407 185 599 396 569 b 478 490 440 435 457 464 b 606 411 515 478 589 442 b 551 139 536 257 496 192 b 869 372 608 86 761 164 l 913 343 b 542 26 857 218 722 22 b 385 211 444 31 390 108 b 133 26 304 117 218 51 m 175 115 b 394 315 240 135 325 224 b 407 357 397 329 401 343 b 176 383 389 463 308 528 b 175 115 18 213 44 79 m 197 754 b 336 864 224 774 278 808 b 436 789 356 842 392 811 b 553 883 464 810 507 839 b 667 803 574 860 614 825 b 508 663 625 754 567 697 b 425 754 482 686 449 719 b 292 643 392 721 346 675 b 197 754 258 674 219 715 "},"ǟ":{"ha":863,"x_min":0,"x_max":0,"o":"m 133 26 b 29 407 -90 -40 -158 179 b 426 407 185 599 396 569 b 478 490 440 435 457 464 b 606 411 515 478 589 442 b 551 139 536 257 496 192 b 869 372 608 86 761 164 l 913 343 b 542 26 857 218 722 22 b 385 211 444 31 390 108 b 133 26 304 117 218 51 m 175 115 b 394 315 240 135 325 224 b 407 357 397 329 401 343 b 176 383 389 463 308 528 b 175 115 18 213 44 79 m 197 754 b 336 864 224 774 278 808 b 436 789 356 842 392 811 b 553 883 464 810 507 839 b 667 803 574 860 614 825 b 508 663 625 754 567 697 b 425 754 482 686 449 719 b 292 643 392 721 346 675 b 197 754 258 674 219 715 m 303 993 b 338 1060 307 1011 321 1036 b 683 1058 461 1047 593 1042 b 664 951 700 1035 682 981 b 303 993 514 924 350 975 "},"ạ":{"ha":863,"x_min":0,"x_max":0,"o":"m 133 26 b 29 407 -90 -40 -158 179 b 426 407 185 599 396 569 b 478 490 440 435 457 464 b 606 411 515 478 589 442 b 551 139 536 257 496 192 b 869 372 608 86 761 164 l 913 343 b 542 26 857 218 722 22 b 385 211 444 31 390 108 b 133 26 304 117 218 51 m 67 -169 b 206 -60 93 -150 146 -117 b 319 -140 226 -83 267 -118 b 161 -281 278 -189 219 -246 b 67 -169 128 -250 90 -208 m 175 115 b 394 315 240 135 325 224 b 407 357 397 329 401 343 b 176 383 389 463 308 528 b 175 115 18 213 44 79 "},"à":{"ha":863,"x_min":0,"x_max":0,"o":"m 133 26 b 29 407 -90 -40 -158 179 b 426 407 185 599 396 569 b 478 490 440 435 457 464 b 606 411 515 478 589 442 b 551 139 536 257 496 192 b 869 372 608 86 761 164 l 913 343 b 542 26 857 218 722 22 b 385 211 444 31 390 108 b 133 26 304 117 218 51 m 175 115 b 394 315 240 135 325 224 b 407 357 397 329 401 343 b 176 383 389 463 308 528 b 175 115 18 213 44 79 m 297 758 b 411 869 310 811 360 865 b 574 703 440 799 513 742 b 556 665 574 689 565 672 b 297 758 457 676 346 704 "},"ả":{"ha":863,"x_min":0,"x_max":0,"o":"m 133 26 b 29 407 -90 -40 -158 179 b 426 407 185 599 396 569 b 478 490 440 435 457 464 b 606 411 515 478 589 442 b 551 139 536 257 496 192 b 869 372 608 86 761 164 l 913 343 b 542 26 857 218 722 22 b 385 211 444 31 390 108 b 133 26 304 117 218 51 m 175 115 b 394 315 240 135 325 224 b 407 357 397 329 401 343 b 176 383 389 463 308 528 b 175 115 18 213 44 79 m 268 667 b 496 928 478 744 536 878 b 372 947 457 972 403 960 b 369 963 368 950 367 956 b 640 1013 476 1057 588 1075 b 276 651 706 936 619 758 l 268 667 "},"ā":{"ha":863,"x_min":0,"x_max":0,"o":"m 133 26 b 29 407 -90 -40 -158 179 b 426 407 185 599 396 569 b 478 490 440 435 457 464 b 606 411 515 478 589 442 b 551 139 536 257 496 192 b 869 372 608 86 761 164 l 913 343 b 542 26 857 218 722 22 b 385 211 444 31 390 108 b 133 26 304 117 218 51 m 175 115 b 394 315 240 135 325 224 b 407 357 397 329 401 343 b 176 383 389 463 308 528 b 175 115 18 213 44 79 m 201 711 b 236 778 206 729 219 754 b 582 776 360 765 492 760 b 563 669 599 753 581 699 b 201 711 413 642 249 693 "},"ą":{"ha":863,"x_min":0,"x_max":0,"o":"m 133 26 b 29 407 -90 -40 -158 179 b 426 407 185 599 396 569 b 478 490 440 435 457 464 b 606 411 515 478 589 442 b 551 139 536 257 496 192 b 869 372 608 86 761 164 l 913 343 b 556 26 858 221 729 32 b 381 -212 389 -53 344 -167 b 504 -232 419 -257 474 -244 b 507 -247 508 -235 510 -240 b 236 -297 400 -342 289 -360 b 508 31 178 -228 242 -76 b 385 211 432 50 390 121 b 133 26 304 117 218 51 m 175 115 b 394 315 240 135 325 224 b 407 357 397 329 401 343 b 176 383 389 463 308 528 b 175 115 18 213 44 79 "},"å":{"ha":863,"x_min":0,"x_max":0,"o":"m 133 26 b 29 407 -90 -40 -158 179 b 426 407 185 599 396 569 b 478 490 440 435 457 464 b 606 411 515 478 589 442 b 551 139 536 257 496 192 b 869 372 608 86 761 164 l 913 343 b 542 26 857 218 722 22 b 385 211 444 31 390 108 b 133 26 304 117 218 51 m 175 115 b 394 315 240 135 325 224 b 407 357 397 329 401 343 b 176 383 389 463 308 528 b 175 115 18 213 44 79 m 421 672 b 536 919 140 617 247 854 b 421 672 808 979 721 732 m 433 708 b 494 874 506 715 668 889 b 433 708 363 861 321 699 "},"ã":{"ha":863,"x_min":0,"x_max":0,"o":"m 133 26 b 29 407 -90 -40 -158 179 b 426 407 185 599 396 569 b 478 490 440 435 457 464 b 606 411 515 478 589 442 b 551 139 536 257 496 192 b 869 372 608 86 761 164 l 913 343 b 542 26 857 218 722 22 b 385 211 444 31 390 108 b 133 26 304 117 218 51 m 175 115 b 394 315 240 135 325 224 b 407 357 397 329 401 343 b 176 383 389 463 308 528 b 175 115 18 213 44 79 m 218 781 b 490 772 453 988 404 739 b 565 851 532 788 556 822 b 678 806 624 874 685 868 b 429 681 585 703 465 672 b 367 801 388 688 404 806 b 289 676 332 797 297 728 b 218 781 242 672 213 738 "},"æ":{"ha":1135,"x_min":0,"x_max":0,"o":"m 133 26 b 29 407 -90 -40 -158 179 b 431 369 196 611 426 565 b 467 419 440 386 453 403 b 796 533 568 546 700 564 b 715 249 942 488 974 329 b 522 197 667 233 594 214 b 792 99 528 101 628 47 b 1147 383 911 138 1078 260 l 1192 356 b 829 53 1149 275 990 122 b 378 203 615 -40 388 36 b 133 26 300 113 215 50 m 175 115 b 408 336 244 136 338 238 b 176 383 400 453 317 538 b 175 115 18 213 44 79 m 525 235 b 679 290 585 253 636 274 b 764 479 836 357 856 464 b 614 396 725 483 676 464 b 525 235 561 339 533 283 "},"ǣ":{"ha":1135,"x_min":0,"x_max":0,"o":"m 133 26 b 29 407 -90 -40 -158 179 b 431 369 196 611 426 565 b 467 419 440 386 453 403 b 796 533 568 546 700 564 b 715 249 942 488 974 329 b 522 197 667 233 594 214 b 792 99 528 101 628 47 b 1147 383 911 138 1078 260 l 1192 356 b 829 53 1149 275 990 122 b 378 203 615 -40 388 36 b 133 26 300 113 215 50 m 175 115 b 408 336 244 136 338 238 b 176 383 400 453 317 538 b 175 115 18 213 44 79 m 201 711 b 236 778 206 729 219 754 b 582 776 360 765 492 760 b 563 669 599 753 581 699 b 201 711 413 642 249 693 m 525 235 b 679 290 585 253 636 274 b 764 479 836 357 856 464 b 614 396 725 483 676 464 b 525 235 561 339 533 283 "},"b":{"ha":693,"x_min":0,"x_max":0,"o":"m 161 26 b 335 993 -182 68 49 661 b 483 893 386 988 464 929 b 140 121 110 464 14 183 b 393 301 222 79 347 174 b 303 354 375 292 329 322 b 474 486 254 507 393 640 b 489 333 490 454 493 392 b 697 372 563 314 651 314 l 742 343 b 474 276 701 271 579 256 b 161 26 419 156 331 6 "},"ḅ":{"ha":693,"x_min":0,"x_max":0,"o":"m 161 26 b 335 993 -182 68 49 661 b 483 893 386 988 464 929 b 140 121 110 464 14 183 b 393 301 222 79 347 174 b 303 354 375 292 329 322 b 474 486 254 507 393 640 b 489 333 490 454 493 392 b 697 372 563 314 651 314 l 742 343 b 474 276 701 271 579 256 b 161 26 419 156 331 6 m 14 -233 b 153 -124 40 -214 93 -181 b 267 -204 174 -147 214 -182 b 108 -344 225 -253 167 -310 b 14 -233 75 -314 38 -272 "},"c":{"ha":711,"x_min":0,"x_max":0,"o":"m 399 53 b 35 419 104 -75 -214 117 b 365 535 138 546 269 567 b 406 313 469 500 497 383 b 306 356 349 306 315 317 b 349 486 392 385 418 472 b 183 396 308 492 244 464 b 360 99 4 199 103 18 b 717 372 482 138 647 249 l 761 344 b 399 53 717 265 558 122 "},"ć":{"ha":711,"x_min":0,"x_max":0,"o":"m 399 53 b 35 419 104 -75 -214 117 b 365 535 138 546 269 567 b 406 313 469 500 497 383 b 306 356 349 306 315 317 b 349 486 392 385 418 472 b 183 396 308 492 244 464 b 360 99 4 199 103 18 b 717 372 482 138 647 249 l 761 344 b 399 53 717 265 558 122 m 217 622 b 224 671 213 629 215 651 b 483 904 311 726 417 808 b 538 774 533 907 556 844 b 217 622 458 696 324 646 "},"č":{"ha":711,"x_min":0,"x_max":0,"o":"m 399 53 b 35 419 104 -75 -214 117 b 365 535 138 546 269 567 b 406 313 469 500 497 383 b 306 356 349 306 315 317 b 349 486 392 385 418 472 b 183 396 308 492 244 464 b 360 99 4 199 103 18 b 717 372 482 138 647 249 l 761 344 b 399 53 717 265 558 122 m 164 796 b 231 861 179 822 201 850 b 317 689 249 819 281 756 b 500 861 344 719 411 782 b 540 785 519 842 536 815 b 354 610 465 733 399 669 b 281 636 322 615 290 625 b 164 796 275 681 253 715 "},"ç":{"ha":711,"x_min":0,"x_max":0,"o":"m 399 53 b 172 14 321 19 242 7 l 181 8 l 92 -64 b 265 -283 279 -57 350 -179 b -114 -318 186 -378 -10 -399 b -99 -290 -112 -308 -107 -299 b 121 -239 -15 -321 69 -303 b 8 -96 169 -174 136 -96 l 24 -68 l 156 17 b 35 419 -31 43 -143 203 b 365 535 138 546 269 567 b 406 313 469 500 497 383 b 306 356 349 306 315 317 b 349 486 392 385 418 472 b 183 396 308 492 244 464 b 360 99 4 199 103 18 b 717 372 482 138 647 249 l 761 344 b 399 53 717 265 558 122 "},"ĉ":{"ha":711,"x_min":0,"x_max":0,"o":"m 399 53 b 35 419 104 -75 -214 117 b 365 535 138 546 269 567 b 406 313 469 500 497 383 b 306 356 349 306 315 317 b 349 486 392 385 418 472 b 183 396 308 492 244 464 b 360 99 4 199 103 18 b 717 372 482 138 647 249 l 761 344 b 399 53 717 265 558 122 m 160 665 b 346 840 235 717 301 781 b 419 814 378 835 410 825 b 535 654 424 769 446 735 b 469 589 519 628 497 601 b 383 760 451 632 419 696 b 200 589 356 731 289 668 b 160 665 181 608 164 635 "},"ċ":{"ha":711,"x_min":0,"x_max":0,"o":"m 399 53 b 35 419 104 -75 -214 117 b 365 535 138 546 269 567 b 406 313 469 500 497 383 b 306 356 349 306 315 317 b 349 486 392 385 418 472 b 183 396 308 492 244 464 b 360 99 4 199 103 18 b 717 372 482 138 647 249 l 761 344 b 399 53 717 265 558 122 m 247 749 b 386 858 274 768 326 801 b 500 778 407 835 447 800 b 342 638 458 729 400 672 b 247 749 308 668 271 710 "},"d":{"ha":865,"x_min":0,"x_max":0,"o":"m 136 26 b 31 407 -89 -40 -156 179 b 432 385 193 606 415 567 b 789 1024 488 589 624 839 b 917 946 825 1014 897 976 b 532 121 525 411 439 175 b 872 372 597 83 763 164 l 915 343 b 543 26 860 218 725 26 b 404 231 438 26 397 108 b 136 26 319 126 225 53 m 179 115 b 411 335 247 135 339 236 b 179 383 403 451 319 539 b 179 115 26 217 40 78 "},"ð":{"ha":654,"x_min":0,"x_max":0,"o":"m 242 69 b 86 -31 185 11 126 -24 b -26 307 -1 -43 -132 113 b 263 571 57 460 179 533 b 319 538 281 569 297 557 b 136 140 8 396 8 135 b 319 538 218 143 324 339 b 293 683 317 588 310 636 b 144 629 226 656 169 636 b 139 686 139 642 138 663 b 263 750 181 706 222 729 b 185 846 243 783 217 817 b 242 897 185 861 218 888 b 329 789 276 863 304 826 b 490 899 392 828 449 865 b 539 826 525 882 539 853 b 371 719 489 785 428 749 b 328 200 456 547 432 381 b 660 372 415 179 571 207 l 703 343 b 261 96 619 167 400 93 l 242 69 "},"ď":{"ha":865,"x_min":0,"x_max":0,"o":"m 136 26 b 31 407 -89 -40 -156 179 b 432 385 193 606 415 567 b 789 1024 488 589 624 839 b 917 946 825 1014 897 976 b 532 121 525 411 439 175 b 872 372 597 83 763 164 l 915 343 b 543 26 860 218 725 26 b 404 231 438 26 397 108 b 136 26 319 126 225 53 m 179 115 b 411 335 247 135 339 236 b 179 383 403 451 319 539 b 179 115 26 217 40 78 m 993 981 b 1200 990 1043 1017 1121 1050 b 1075 674 1143 931 1071 775 b 1001 664 1058 663 1025 660 b 993 981 989 697 960 829 "},"đ":{"ha":865,"x_min":0,"x_max":0,"o":"m 136 26 b 31 407 -89 -40 -156 179 b 432 385 193 606 415 567 b 567 707 460 485 507 597 b 349 651 494 700 418 683 b 443 829 351 721 397 788 b 654 850 517 844 589 850 b 789 1024 696 911 742 971 b 917 946 825 1014 897 976 b 832 829 888 906 858 867 b 872 815 847 825 860 821 b 838 686 871 757 861 726 b 747 704 813 693 782 700 b 532 121 501 338 454 167 b 872 372 597 83 763 164 l 915 343 b 543 26 860 218 725 26 b 404 231 438 26 397 108 b 136 26 319 126 225 53 m 179 115 b 411 335 247 135 339 236 b 179 383 403 451 319 539 b 179 115 26 217 40 78 "},"ḍ":{"ha":865,"x_min":0,"x_max":0,"o":"m 136 26 b 31 407 -89 -40 -156 179 b 432 385 193 606 415 567 b 789 1024 488 589 624 839 b 917 946 825 1014 897 976 b 532 121 525 411 439 175 b 872 372 597 83 763 164 l 915 343 b 543 26 860 218 725 26 b 404 231 438 26 397 108 b 136 26 319 126 225 53 m 100 -156 b 239 -46 126 -136 179 -103 b 353 -126 260 -69 300 -104 b 194 -267 311 -175 253 -232 b 100 -156 161 -236 124 -194 m 179 115 b 411 335 247 135 339 236 b 179 383 403 451 319 539 b 179 115 26 217 40 78 "},"ḏ":{"ha":865,"x_min":0,"x_max":0,"o":"m 136 26 b 31 407 -89 -40 -156 179 b 432 385 193 606 415 567 b 789 1024 488 589 624 839 b 917 946 825 1014 897 976 b 532 121 525 411 439 175 b 872 372 597 83 763 164 l 915 343 b 543 26 860 218 725 26 b 404 231 438 26 397 108 b 136 26 319 126 225 53 m 46 -121 b 81 -54 50 -103 64 -78 b 426 -56 204 -67 336 -72 b 407 -162 443 -79 425 -133 b 46 -121 257 -190 93 -139 m 179 115 b 411 335 247 135 339 236 b 179 383 403 451 319 539 b 179 115 26 217 40 78 "},"e":{"ha":715,"x_min":0,"x_max":0,"o":"m 403 53 b 40 419 110 -75 -208 117 b 369 533 142 546 274 564 b 289 249 515 488 547 329 b 96 197 240 233 168 214 b 365 99 101 101 201 47 b 721 383 485 138 651 260 l 765 356 b 403 53 722 275 564 122 m 99 235 b 253 290 158 253 210 274 b 338 479 410 357 429 464 b 188 396 299 483 250 464 b 99 235 135 339 107 283 "},"é":{"ha":715,"x_min":0,"x_max":0,"o":"m 403 53 b 40 419 110 -75 -208 117 b 369 533 142 546 274 564 b 289 249 515 488 547 329 b 96 197 240 233 168 214 b 365 99 101 101 201 47 b 721 383 485 138 651 260 l 765 356 b 403 53 722 275 564 122 m 99 235 b 253 290 158 253 210 274 b 338 479 410 357 429 464 b 188 396 299 483 250 464 b 99 235 135 339 107 283 m 271 663 b 278 711 267 669 269 692 b 538 944 365 767 471 849 b 592 814 588 947 610 885 b 271 663 513 736 378 686 "},"ě":{"ha":715,"x_min":0,"x_max":0,"o":"m 403 53 b 40 419 110 -75 -208 117 b 369 533 142 546 274 564 b 289 249 515 488 547 329 b 96 197 240 233 168 214 b 365 99 101 101 201 47 b 721 383 485 138 651 260 l 765 356 b 403 53 722 275 564 122 m 99 235 b 253 290 158 253 210 274 b 338 479 410 357 429 464 b 188 396 299 483 250 464 b 99 235 135 339 107 283 m 218 836 b 285 901 233 863 256 890 b 371 729 303 860 335 796 b 554 901 399 760 465 822 b 594 825 574 882 590 856 b 408 650 519 774 453 710 b 335 676 376 656 344 665 b 218 836 329 721 307 756 "},"ȩ":{"ha":715,"x_min":0,"x_max":0,"o":"m 403 53 b 160 17 319 17 233 6 l 72 -54 b 246 -274 260 -47 331 -169 b -133 -308 167 -368 -29 -389 b -118 -281 -132 -299 -126 -289 b 101 -229 -35 -311 50 -293 b -11 -86 150 -164 117 -86 l 4 -58 l 131 22 b 40 419 -37 61 -128 215 b 369 533 142 546 274 564 b 289 249 515 488 547 329 b 96 197 240 233 168 214 b 365 99 101 101 201 47 b 721 383 485 138 651 260 l 765 356 b 403 53 722 275 564 122 m 99 235 b 253 290 158 253 210 274 b 338 479 410 357 429 464 b 188 396 299 483 250 464 b 99 235 135 339 107 283 "},"ê":{"ha":715,"x_min":0,"x_max":0,"o":"m 403 53 b 40 419 110 -75 -208 117 b 369 533 142 546 274 564 b 289 249 515 488 547 329 b 96 197 240 233 168 214 b 365 99 101 101 201 47 b 721 383 485 138 651 260 l 765 356 b 403 53 722 275 564 122 m 99 235 b 253 290 158 253 210 274 b 338 479 410 357 429 464 b 188 396 299 483 250 464 b 99 235 135 339 107 283 m 214 706 b 400 881 289 757 356 821 b 474 854 432 875 464 865 b 589 694 478 810 500 775 b 524 629 574 668 551 642 b 438 800 506 672 474 736 b 254 629 410 771 343 708 b 214 706 235 649 218 675 "},"ế":{"ha":715,"x_min":0,"x_max":0,"o":"m 403 53 b 40 419 110 -75 -208 117 b 369 533 142 546 274 564 b 289 249 515 488 547 329 b 96 197 240 233 168 214 b 365 99 101 101 201 47 b 721 383 485 138 651 260 l 765 356 b 403 53 722 275 564 122 m 99 235 b 253 290 158 253 210 274 b 338 479 410 357 429 464 b 188 396 299 483 250 464 b 99 235 135 339 107 283 m 186 692 b 372 867 261 743 328 807 b 446 840 404 861 436 851 b 561 681 450 796 472 761 b 496 615 546 654 524 628 b 410 786 478 658 446 722 b 226 615 382 757 315 694 b 186 692 207 635 190 661 m 356 915 b 363 964 351 922 354 944 b 622 1197 450 1019 556 1101 b 676 1067 672 1200 694 1138 b 356 915 597 989 463 939 "},"ệ":{"ha":715,"x_min":0,"x_max":0,"o":"m 403 53 b 40 419 110 -75 -208 117 b 369 533 142 546 274 564 b 289 249 515 488 547 329 b 96 197 240 233 168 214 b 365 99 101 101 201 47 b 721 383 485 138 651 260 l 765 356 b 403 53 722 275 564 122 m -25 -193 b 114 -83 1 -174 54 -140 b 228 -164 135 -107 175 -142 b 69 -304 186 -212 128 -269 b -25 -193 36 -274 -1 -232 m 99 235 b 253 290 158 253 210 274 b 338 479 410 357 429 464 b 188 396 299 483 250 464 b 99 235 135 339 107 283 m 214 706 b 400 881 289 757 356 821 b 474 854 432 875 464 865 b 589 694 478 810 500 775 b 524 629 574 668 551 642 b 438 800 506 672 474 736 b 254 629 410 771 343 708 b 214 706 235 649 218 675 "},"ề":{"ha":715,"x_min":0,"x_max":0,"o":"m 403 53 b 40 419 110 -75 -208 117 b 369 533 142 546 274 564 b 289 249 515 488 547 329 b 96 197 240 233 168 214 b 365 99 101 101 201 47 b 721 383 485 138 651 260 l 765 356 b 403 53 722 275 564 122 m 99 235 b 253 290 158 253 210 274 b 338 479 410 357 429 464 b 188 396 299 483 250 464 b 99 235 135 339 107 283 m 196 711 b 382 886 271 763 338 826 b 456 860 414 881 446 871 b 571 700 460 815 482 781 b 506 635 556 674 533 647 b 419 806 488 678 456 742 b 236 635 392 776 325 714 b 196 711 217 654 200 681 m 376 1038 b 490 1149 389 1090 439 1144 b 653 982 519 1078 592 1021 b 635 944 653 968 644 951 b 376 1038 536 956 425 983 "},"ể":{"ha":715,"x_min":0,"x_max":0,"o":"m 403 53 b 40 419 110 -75 -208 117 b 369 533 142 546 274 564 b 289 249 515 488 547 329 b 96 197 240 233 168 214 b 365 99 101 101 201 47 b 721 383 485 138 651 260 l 765 356 b 403 53 722 275 564 122 m 99 235 b 253 290 158 253 210 274 b 338 479 410 357 429 464 b 188 396 299 483 250 464 b 99 235 135 339 107 283 m 219 725 b 406 900 294 776 361 840 b 479 874 438 894 469 885 b 594 714 483 829 506 794 b 529 649 579 688 557 661 b 443 819 511 692 479 756 b 260 649 415 790 349 728 b 219 725 240 668 224 694 m 371 960 b 599 1221 581 1038 639 1171 b 475 1240 560 1265 506 1253 b 472 1256 471 1243 469 1249 b 743 1306 579 1350 690 1368 b 379 944 808 1229 722 1051 l 371 960 "},"ễ":{"ha":715,"x_min":0,"x_max":0,"o":"m 403 53 b 40 419 110 -75 -208 117 b 369 533 142 546 274 564 b 289 249 515 488 547 329 b 96 197 240 233 168 214 b 365 99 101 101 201 47 b 721 383 485 138 651 260 l 765 356 b 403 53 722 275 564 122 m 99 235 b 253 290 158 253 210 274 b 338 479 410 357 429 464 b 188 396 299 483 250 464 b 99 235 135 339 107 283 m 214 736 b 400 911 289 788 356 851 b 474 885 432 906 464 896 b 589 725 478 840 500 806 b 524 660 574 699 551 672 b 438 831 506 703 474 767 b 254 660 410 801 343 739 b 214 736 235 679 218 706 m 315 1085 b 588 1076 550 1292 501 1043 b 663 1156 629 1092 653 1126 b 775 1110 721 1178 782 1172 b 526 985 682 1007 563 976 b 464 1106 485 992 501 1110 b 386 981 429 1101 394 1032 b 315 1085 339 976 310 1042 "},"ë":{"ha":715,"x_min":0,"x_max":0,"o":"m 403 53 b 40 419 110 -75 -208 117 b 369 533 142 546 274 564 b 289 249 515 488 547 329 b 96 197 240 233 168 214 b 365 99 101 101 201 47 b 721 383 485 138 651 260 l 765 356 b 403 53 722 275 564 122 m 99 235 b 253 290 158 253 210 274 b 338 479 410 357 429 464 b 188 396 299 483 250 464 b 99 235 135 339 107 283 m 182 761 b 321 871 208 781 263 815 b 421 796 340 849 376 818 b 538 890 449 817 492 846 b 651 810 558 867 599 832 b 493 669 610 761 551 704 b 410 761 467 693 433 726 b 276 650 376 728 331 682 b 182 761 243 681 204 722 "},"ė":{"ha":715,"x_min":0,"x_max":0,"o":"m 403 53 b 40 419 110 -75 -208 117 b 369 533 142 546 274 564 b 289 249 515 488 547 329 b 96 197 240 233 168 214 b 365 99 101 101 201 47 b 721 383 485 138 651 260 l 765 356 b 403 53 722 275 564 122 m 99 235 b 253 290 158 253 210 274 b 338 479 410 357 429 464 b 188 396 299 483 250 464 b 99 235 135 339 107 283 m 301 789 b 440 899 328 808 381 842 b 554 818 461 875 501 840 b 396 678 513 769 454 713 b 301 789 363 708 325 750 "},"ẹ":{"ha":715,"x_min":0,"x_max":0,"o":"m 403 53 b 40 419 110 -75 -208 117 b 369 533 142 546 274 564 b 289 249 515 488 547 329 b 96 197 240 233 168 214 b 365 99 101 101 201 47 b 721 383 485 138 651 260 l 765 356 b 403 53 722 275 564 122 m -25 -193 b 114 -83 1 -174 54 -140 b 228 -164 135 -107 175 -142 b 69 -304 186 -212 128 -269 b -25 -193 36 -274 -1 -232 m 99 235 b 253 290 158 253 210 274 b 338 479 410 357 429 464 b 188 396 299 483 250 464 b 99 235 135 339 107 283 "},"è":{"ha":715,"x_min":0,"x_max":0,"o":"m 403 53 b 40 419 110 -75 -208 117 b 369 533 142 546 274 564 b 289 249 515 488 547 329 b 96 197 240 233 168 214 b 365 99 101 101 201 47 b 721 383 485 138 651 260 l 765 356 b 403 53 722 275 564 122 m 99 235 b 253 290 158 253 210 274 b 338 479 410 357 429 464 b 188 396 299 483 250 464 b 99 235 135 339 107 283 m 282 765 b 396 876 294 818 344 872 b 558 710 425 806 497 749 b 540 672 558 696 550 679 b 282 765 442 683 331 711 "},"ẻ":{"ha":715,"x_min":0,"x_max":0,"o":"m 403 53 b 40 419 110 -75 -208 117 b 369 533 142 546 274 564 b 289 249 515 488 547 329 b 96 197 240 233 168 214 b 365 99 101 101 201 47 b 721 383 485 138 651 260 l 765 356 b 403 53 722 275 564 122 m 99 235 b 253 290 158 253 210 274 b 338 479 410 357 429 464 b 188 396 299 483 250 464 b 99 235 135 339 107 283 m 253 674 b 481 935 463 751 521 885 b 357 954 442 979 388 967 b 354 969 353 957 351 963 b 625 1019 461 1064 572 1082 b 261 658 690 943 604 765 l 253 674 "},"ē":{"ha":715,"x_min":0,"x_max":0,"o":"m 403 53 b 40 419 110 -75 -208 117 b 369 533 142 546 274 564 b 289 249 515 488 547 329 b 96 197 240 233 168 214 b 365 99 101 101 201 47 b 721 383 485 138 651 260 l 765 356 b 403 53 722 275 564 122 m 99 235 b 253 290 158 253 210 274 b 338 479 410 357 429 464 b 188 396 299 483 250 464 b 99 235 135 339 107 283 m 186 718 b 221 785 190 736 204 761 b 567 783 344 772 476 767 b 547 676 583 760 565 706 b 186 718 397 649 233 700 "},"ę":{"ha":715,"x_min":0,"x_max":0,"o":"m 403 53 b 235 13 346 28 289 15 b 33 -237 46 -65 -6 -190 b 157 -257 72 -282 126 -269 b 160 -272 161 -260 163 -265 b -111 -322 53 -367 -58 -385 b 181 14 -172 -251 -103 -94 b 40 419 -17 32 -144 194 b 369 533 142 546 274 564 b 289 249 515 488 547 329 b 96 197 240 233 168 214 b 365 99 101 101 201 47 b 721 383 485 138 651 260 l 765 356 b 403 53 722 275 564 122 m 99 235 b 253 290 158 253 210 274 b 338 479 410 357 429 464 b 188 396 299 483 250 464 b 99 235 135 339 107 283 "},"ẽ":{"ha":715,"x_min":0,"x_max":0,"o":"m 403 53 b 40 419 110 -75 -208 117 b 369 533 142 546 274 564 b 289 249 515 488 547 329 b 96 197 240 233 168 214 b 365 99 101 101 201 47 b 721 383 485 138 651 260 l 765 356 b 403 53 722 275 564 122 m 99 235 b 253 290 158 253 210 274 b 338 479 410 357 429 464 b 188 396 299 483 250 464 b 99 235 135 339 107 283 m 203 788 b 475 779 438 994 389 746 b 550 858 517 794 540 829 b 663 813 608 881 669 875 b 414 688 569 710 450 679 b 351 808 372 694 389 813 b 274 683 317 804 282 735 b 203 788 226 679 197 744 "},"ə":{"ha":715,"x_min":0,"x_max":0,"o":"m 238 500 b 600 133 531 628 849 436 b 271 19 499 7 367 -11 b 351 304 125 65 93 224 b 544 356 400 319 472 339 b 275 454 539 451 439 506 b -81 169 156 415 -11 293 l -125 197 b 238 500 -82 278 76 431 m 303 74 b 453 157 342 69 390 89 b 542 318 506 214 533 269 b 388 263 482 300 431 279 b 303 74 231 196 211 89 "},"f":{"ha":522,"x_min":0,"x_max":0,"o":"m 51 -362 b 56 363 -154 -361 -89 0 b 6 404 33 379 14 394 b 117 503 4 486 63 517 b 408 993 207 700 315 883 b 558 893 461 989 539 929 b 211 386 426 740 306 560 l 214 383 b 528 372 264 338 451 278 l 572 343 b 239 296 522 256 354 253 l 240 293 b 51 -362 261 101 228 -362 m 32 -268 b 183 286 121 -314 200 -10 b 163 294 181 285 174 288 b 32 -268 21 13 -43 -231 "},"g":{"ha":864,"x_min":0,"x_max":0,"o":"m 158 -264 b -185 -236 -28 -353 -158 -301 b 75 -29 -235 -101 -106 -28 b 292 -10 139 -29 213 -25 b 383 207 339 68 372 150 b 135 26 304 115 218 50 b 31 407 -89 -40 -157 179 b 428 404 188 599 400 569 b 481 490 442 433 460 463 b 607 411 517 478 590 442 b 551 288 585 360 565 319 b 422 19 539 257 493 140 b 599 81 479 35 539 56 b 871 372 707 125 804 244 l 914 343 b 689 67 875 257 794 136 b 381 -49 597 7 488 -28 b 158 -264 319 -140 243 -224 m -60 -210 b 139 -197 -25 -257 65 -256 b 256 -67 179 -167 221 -119 b 60 -78 182 -75 114 -78 b -60 -210 -76 -79 -107 -149 m 176 115 b 397 318 243 135 328 225 b 408 354 400 331 404 343 b 179 383 392 461 311 529 b 176 115 28 221 39 78 "},"ğ":{"ha":864,"x_min":0,"x_max":0,"o":"m 158 -264 b -185 -236 -28 -353 -158 -301 b 75 -29 -235 -101 -106 -28 b 292 -10 139 -29 213 -25 b 383 207 339 68 372 150 b 135 26 304 115 218 50 b 31 407 -89 -40 -157 179 b 428 404 188 599 400 569 b 481 490 442 433 460 463 b 607 411 517 478 590 442 b 551 288 585 360 565 319 b 422 19 539 257 493 140 b 599 81 479 35 539 56 b 871 372 707 125 804 244 l 914 343 b 689 67 875 257 794 136 b 381 -49 597 7 488 -28 b 158 -264 319 -140 243 -224 m -60 -210 b 139 -197 -25 -257 65 -256 b 256 -67 179 -167 221 -119 b 60 -78 182 -75 114 -78 b -60 -210 -76 -79 -107 -149 m 158 768 b 319 800 229 835 314 825 b 522 790 311 653 433 621 b 608 782 574 817 613 801 b 158 768 500 582 206 553 m 176 115 b 397 318 243 135 328 225 b 408 354 400 331 404 343 b 179 383 392 461 311 529 b 176 115 28 221 39 78 "},"ǧ":{"ha":864,"x_min":0,"x_max":0,"o":"m 158 -264 b -185 -236 -28 -353 -158 -301 b 75 -29 -235 -101 -106 -28 b 292 -10 139 -29 213 -25 b 383 207 339 68 372 150 b 135 26 304 115 218 50 b 31 407 -89 -40 -157 179 b 428 404 188 599 400 569 b 481 490 442 433 460 463 b 607 411 517 478 590 442 b 551 288 585 360 565 319 b 422 19 539 257 493 140 b 599 81 479 35 539 56 b 871 372 707 125 804 244 l 914 343 b 689 67 875 257 794 136 b 381 -49 597 7 488 -28 b 158 -264 319 -140 243 -224 m -60 -210 b 139 -197 -25 -257 65 -256 b 256 -67 179 -167 221 -119 b 60 -78 182 -75 114 -78 b -60 -210 -76 -79 -107 -149 m 176 115 b 397 318 243 135 328 225 b 408 354 400 331 404 343 b 179 383 392 461 311 529 b 176 115 28 221 39 78 m 185 793 b 251 858 200 819 222 847 b 338 686 269 817 301 753 b 521 858 365 717 432 779 b 561 782 540 839 557 813 b 375 607 486 731 419 667 b 301 633 343 613 311 622 b 185 793 296 678 274 713 "},"ĝ":{"ha":864,"x_min":0,"x_max":0,"o":"m 158 -264 b -185 -236 -28 -353 -158 -301 b 75 -29 -235 -101 -106 -28 b 292 -10 139 -29 213 -25 b 383 207 339 68 372 150 b 135 26 304 115 218 50 b 31 407 -89 -40 -157 179 b 428 404 188 599 400 569 b 481 490 442 433 460 463 b 607 411 517 478 590 442 b 551 288 585 360 565 319 b 422 19 539 257 493 140 b 599 81 479 35 539 56 b 871 372 707 125 804 244 l 914 343 b 689 67 875 257 794 136 b 381 -49 597 7 488 -28 b 158 -264 319 -140 243 -224 m -60 -210 b 139 -197 -25 -257 65 -256 b 256 -67 179 -167 221 -119 b 60 -78 182 -75 114 -78 b -60 -210 -76 -79 -107 -149 m 176 115 b 397 318 243 135 328 225 b 408 354 400 331 404 343 b 179 383 392 461 311 529 b 176 115 28 221 39 78 m 181 663 b 367 838 256 714 322 778 b 440 811 399 832 431 822 b 556 651 444 767 467 732 b 490 586 540 625 518 599 b 404 757 472 629 440 693 b 221 586 376 728 310 665 b 181 663 201 606 185 632 "},"ģ":{"ha":864,"x_min":0,"x_max":0,"o":"m 158 -264 b -185 -236 -28 -353 -158 -301 b 75 -29 -235 -101 -106 -28 b 292 -10 139 -29 213 -25 b 383 207 339 68 372 150 b 135 26 304 115 218 50 b 31 407 -89 -40 -157 179 b 428 404 188 599 400 569 b 481 490 442 433 460 463 b 607 411 517 478 590 442 b 551 288 585 360 565 319 b 422 19 539 257 493 140 b 599 81 479 35 539 56 b 871 372 707 125 804 244 l 914 343 b 689 67 875 257 794 136 b 381 -49 597 7 488 -28 b 158 -264 319 -140 243 -224 m -60 -210 b 139 -197 -25 -257 65 -256 b 256 -67 179 -167 221 -119 b 60 -78 182 -75 114 -78 b -60 -210 -76 -79 -107 -149 m 176 115 b 397 318 243 135 328 225 b 408 354 400 331 404 343 b 179 383 392 461 311 529 b 176 115 28 221 39 78 m 247 689 b 529 951 299 796 421 892 b 550 917 540 942 549 929 b 424 794 490 874 447 831 b 499 726 449 779 478 757 b 339 567 472 676 419 613 b 247 689 304 597 265 642 "},"ġ":{"ha":864,"x_min":0,"x_max":0,"o":"m 158 -264 b -185 -236 -28 -353 -158 -301 b 75 -29 -235 -101 -106 -28 b 292 -10 139 -29 213 -25 b 383 207 339 68 372 150 b 135 26 304 115 218 50 b 31 407 -89 -40 -157 179 b 428 404 188 599 400 569 b 481 490 442 433 460 463 b 607 411 517 478 590 442 b 551 288 585 360 565 319 b 422 19 539 257 493 140 b 599 81 479 35 539 56 b 871 372 707 125 804 244 l 914 343 b 689 67 875 257 794 136 b 381 -49 597 7 488 -28 b 158 -264 319 -140 243 -224 m -60 -210 b 139 -197 -25 -257 65 -256 b 256 -67 179 -167 221 -119 b 60 -78 182 -75 114 -78 b -60 -210 -76 -79 -107 -149 m 176 115 b 397 318 243 135 328 225 b 408 354 400 331 404 343 b 179 383 392 461 311 529 b 176 115 28 221 39 78 m 268 746 b 407 856 294 765 347 799 b 521 775 428 832 468 797 b 363 635 479 726 421 669 b 268 746 329 665 292 707 "},"ḡ":{"ha":864,"x_min":0,"x_max":0,"o":"m 158 -264 b -185 -236 -28 -353 -158 -301 b 75 -29 -235 -101 -106 -28 b 292 -10 139 -29 213 -25 b 383 207 339 68 372 150 b 135 26 304 115 218 50 b 31 407 -89 -40 -157 179 b 428 404 188 599 400 569 b 481 490 442 433 460 463 b 607 411 517 478 590 442 b 551 288 585 360 565 319 b 422 19 539 257 493 140 b 599 81 479 35 539 56 b 871 372 707 125 804 244 l 914 343 b 689 67 875 257 794 136 b 381 -49 597 7 488 -28 b 158 -264 319 -140 243 -224 m -60 -210 b 139 -197 -25 -257 65 -256 b 256 -67 179 -167 221 -119 b 60 -78 182 -75 114 -78 b -60 -210 -76 -79 -107 -149 m 153 675 b 188 742 157 693 171 718 b 533 740 311 729 443 724 b 514 633 550 717 532 663 b 153 675 364 606 200 657 m 176 115 b 397 318 243 135 328 225 b 408 354 400 331 404 343 b 179 383 392 461 311 529 b 176 115 28 221 39 78 "},"ǥ":{"ha":863,"x_min":0,"x_max":0,"o":"m 299 365 b 403 379 333 372 369 376 b 179 383 379 471 300 518 b 176 115 28 221 39 78 b 357 267 231 131 296 193 b 218 229 310 260 263 247 b 299 365 221 282 260 333 m -185 -236 b 75 -29 -235 -101 -106 -28 b 292 -10 139 -29 213 -25 b 383 207 339 68 372 150 b 135 26 304 115 218 50 b 31 407 -89 -40 -157 179 b 428 404 188 599 400 569 b 481 490 442 433 460 463 b 607 411 517 478 590 442 l 590 372 b 658 354 617 368 639 361 b 629 256 658 310 650 286 b 544 271 606 263 578 268 b 422 19 526 226 485 124 b 599 81 479 35 539 56 b 871 372 707 125 804 244 l 914 343 b 689 67 875 257 794 136 b 381 -49 597 7 488 -28 b 158 -264 319 -140 243 -224 b -185 -236 -28 -353 -158 -301 m -60 -210 b 139 -197 -25 -257 65 -256 b 256 -67 179 -167 221 -119 b 60 -78 182 -75 114 -78 b -60 -210 -76 -79 -107 -149 "},"h":{"ha":710,"x_min":0,"x_max":0,"o":"m -56 -6 b -161 50 -104 0 -137 19 b 207 931 -79 158 200 774 b 331 889 244 940 286 932 b 93 264 335 821 210 507 b 318 485 164 331 244 407 l 319 483 b 325 490 321 485 324 488 b 451 411 361 478 436 442 b 399 139 382 257 343 192 b 715 372 454 86 608 164 l 760 343 b 388 26 704 217 569 22 b 253 356 247 32 197 193 b -26 38 158 275 58 157 b -56 -6 -37 19 -47 6 "},"ħ":{"ha":710,"x_min":0,"x_max":0,"o":"m -56 -6 b -161 50 -104 0 -137 19 b 92 568 -112 114 3 351 b -28 529 51 560 11 546 b 67 707 -25 599 21 665 b 150 721 94 713 122 717 b 207 931 183 811 206 888 b 331 889 244 940 286 932 b 289 728 332 864 317 804 b 496 693 374 726 447 714 b 461 564 494 635 485 604 b 236 588 407 581 325 592 b 93 264 193 483 143 367 b 318 485 164 331 244 407 l 319 483 b 325 490 321 485 324 488 b 451 411 361 478 436 442 b 399 139 382 257 343 192 b 715 372 454 86 608 164 l 760 343 b 388 26 704 217 569 22 b 253 356 247 32 197 193 b -26 38 158 275 58 157 b -56 -6 -37 19 -47 6 "},"ḫ":{"ha":710,"x_min":0,"x_max":0,"o":"m -56 -6 b -161 50 -104 0 -137 19 b 207 931 -79 158 200 774 b 331 889 244 940 286 932 b 93 264 335 821 210 507 b 318 485 164 331 244 407 l 319 483 b 325 490 321 485 324 488 b 451 411 361 478 436 442 b 399 139 382 257 343 192 b 715 372 454 86 608 164 l 760 343 b 388 26 704 217 569 22 b 253 356 247 32 197 193 b -26 38 158 275 58 157 b -56 -6 -37 19 -47 6 m -40 -131 b 121 -99 31 -64 115 -74 b 324 -108 113 -246 235 -278 b 410 -117 375 -82 414 -97 b -40 -131 301 -317 7 -346 "},"ĥ":{"ha":710,"x_min":0,"x_max":0,"o":"m -56 -6 b -161 50 -104 0 -137 19 b 207 931 -79 158 200 774 b 331 889 244 940 286 932 b 93 264 335 821 210 507 b 318 485 164 331 244 407 l 319 483 b 325 490 321 485 324 488 b 451 411 361 478 436 442 b 399 139 382 257 343 192 b 715 372 454 86 608 164 l 760 343 b 388 26 704 217 569 22 b 253 356 247 32 197 193 b -26 38 158 275 58 157 b -56 -6 -37 19 -47 6 m 363 990 b 549 1165 438 1042 504 1106 b 622 1139 581 1160 613 1150 b 738 979 626 1094 649 1060 b 672 914 722 953 700 926 b 586 1085 654 957 622 1021 b 403 914 558 1056 492 993 b 363 990 383 933 367 960 "},"ḥ":{"ha":710,"x_min":0,"x_max":0,"o":"m -56 -6 b -161 50 -104 0 -137 19 b 207 931 -79 158 200 774 b 331 889 244 940 286 932 b 93 264 335 821 210 507 b 318 485 164 331 244 407 l 319 483 b 325 490 321 485 324 488 b 451 411 361 478 436 442 b 399 139 382 257 343 192 b 715 372 454 86 608 164 l 760 343 b 388 26 704 217 569 22 b 253 356 247 32 197 193 b -26 38 158 275 58 157 b -56 -6 -37 19 -47 6 m 22 -233 b 161 -124 49 -214 101 -181 b 275 -204 182 -147 222 -182 b 117 -344 233 -253 175 -310 b 22 -233 83 -314 46 -272 "},"ẖ":{"ha":710,"x_min":0,"x_max":0,"o":"m -56 -6 b -161 50 -104 0 -137 19 b 207 931 -79 158 200 774 b 331 889 244 940 286 932 b 93 264 335 821 210 507 b 318 485 164 331 244 407 l 319 483 b 325 490 321 485 324 488 b 451 411 361 478 436 442 b 399 139 382 257 343 192 b 715 372 454 86 608 164 l 760 343 b 388 26 704 217 569 22 b 253 356 247 32 197 193 b -26 38 158 275 58 157 b -56 -6 -37 19 -47 6 m -32 -199 b 3 -132 -28 -181 -14 -156 b 349 -133 126 -144 258 -150 b 329 -240 365 -157 347 -211 b -32 -199 179 -268 15 -217 "},"i":{"ha":457,"x_min":0,"x_max":0,"o":"m 135 26 b 71 490 -44 33 -76 296 b 199 411 108 478 182 442 b 144 139 131 257 88 192 b 463 372 203 86 356 164 l 507 343 b 135 26 451 217 317 22 m 135 653 b 238 756 135 711 179 756 b 340 653 297 756 340 711 b 238 550 340 593 297 550 b 135 653 179 550 135 593 "},"ı":{"ha":457,"x_min":0,"x_max":0,"o":"m 135 26 b 71 490 -44 33 -76 296 b 199 411 108 478 182 442 b 144 139 131 257 88 192 b 463 372 203 86 356 164 l 507 343 b 135 26 451 217 317 22 "},"í":{"ha":457,"x_min":0,"x_max":0,"o":"m 135 26 b 71 490 -44 33 -76 296 b 199 411 108 478 182 442 b 144 139 131 257 88 192 b 463 372 203 86 356 164 l 507 343 b 135 26 451 217 317 22 m 74 586 b 81 635 69 593 72 615 b 340 868 168 690 274 772 b 394 738 390 871 413 808 b 74 586 315 660 181 610 "},"ǐ":{"ha":457,"x_min":0,"x_max":0,"o":"m 135 26 b 71 490 -44 33 -76 296 b 199 411 108 478 182 442 b 144 139 131 257 88 192 b 463 372 203 86 356 164 l 507 343 b 135 26 451 217 317 22 m 21 760 b 88 825 36 786 58 814 b 174 653 106 783 138 719 b 357 825 201 683 268 746 b 397 749 376 806 393 779 b 211 574 322 697 256 633 b 138 600 179 579 147 589 b 21 760 132 644 110 679 "},"î":{"ha":457,"x_min":0,"x_max":0,"o":"m 135 26 b 71 490 -44 33 -76 296 b 199 411 108 478 182 442 b 144 139 131 257 88 192 b 463 372 203 86 356 164 l 507 343 b 135 26 451 217 317 22 m 17 629 b 203 804 92 681 158 744 b 276 778 235 799 267 789 b 392 618 281 733 303 699 b 326 553 376 592 354 565 b 240 724 308 596 276 660 b 57 553 213 694 146 632 b 17 629 38 572 21 599 "},"ï":{"ha":457,"x_min":0,"x_max":0,"o":"m 135 26 b 71 490 -44 33 -76 296 b 199 411 108 478 182 442 b 144 139 131 257 88 192 b 463 372 203 86 356 164 l 507 343 b 135 26 451 217 317 22 m -15 685 b 124 794 11 704 65 739 b 224 719 143 772 179 742 b 340 814 251 740 294 769 b 454 733 361 790 401 756 b 296 593 413 685 354 628 b 213 685 269 617 236 650 b 79 574 179 651 133 606 b -15 685 46 604 7 646 "},"ḯ":{"ha":457,"x_min":0,"x_max":0,"o":"m 135 26 b 71 490 -44 33 -76 296 b 199 411 108 478 182 442 b 144 139 131 257 88 192 b 463 372 203 86 356 164 l 507 343 b 135 26 451 217 317 22 m -15 685 b 124 794 11 704 65 739 b 224 719 143 772 179 742 b 340 814 251 740 294 769 b 454 733 361 790 401 756 b 296 593 413 685 354 628 b 213 685 269 617 236 650 b 79 574 179 651 133 606 b -15 685 46 604 7 646 m 175 868 b 182 917 171 875 174 897 b 442 1150 269 972 375 1054 b 496 1019 492 1153 514 1090 b 175 868 417 942 282 892 "},"ị":{"ha":457,"x_min":0,"x_max":0,"o":"m 135 26 b 71 490 -44 33 -76 296 b 199 411 108 478 182 442 b 144 139 131 257 88 192 b 463 372 203 86 356 164 l 507 343 b 135 26 451 217 317 22 m -146 -233 b -7 -124 -119 -214 -67 -181 b 107 -204 14 -147 54 -182 b -51 -344 65 -253 7 -310 b -146 -233 -85 -314 -122 -272 m 135 653 b 238 756 135 711 179 756 b 340 653 297 756 340 711 b 238 550 340 593 297 550 b 135 653 179 550 135 593 "},"ì":{"ha":457,"x_min":0,"x_max":0,"o":"m 135 26 b 71 490 -44 33 -76 296 b 199 411 108 478 182 442 b 144 139 131 257 88 192 b 463 372 203 86 356 164 l 507 343 b 135 26 451 217 317 22 m 85 689 b 199 800 97 742 147 796 b 361 633 228 729 300 672 b 343 596 361 619 353 603 b 85 689 244 607 133 635 "},"ỉ":{"ha":457,"x_min":0,"x_max":0,"o":"m 135 26 b 71 490 -44 33 -76 296 b 199 411 108 478 182 442 b 144 139 131 257 88 192 b 463 372 203 86 356 164 l 507 343 b 135 26 451 217 317 22 m 56 597 b 283 858 265 675 324 808 b 160 878 244 903 190 890 b 157 893 156 881 154 886 b 428 943 264 988 375 1006 b 64 582 493 867 407 689 l 56 597 "},"ĳ":{"ha":907,"x_min":0,"x_max":0,"o":"m 135 26 b 71 490 -44 33 -76 296 b 199 411 108 478 182 442 b 144 139 131 257 88 192 b 463 372 203 86 356 164 l 464 371 b 521 490 486 425 506 468 b 650 411 558 478 631 442 b 594 288 626 360 606 319 b 451 -3 581 256 529 126 b 914 372 617 18 835 231 l 957 343 b 371 -117 908 244 708 -33 b 14 -247 218 -361 42 -314 b 263 -67 -28 -149 82 -64 l 276 -67 b 369 136 308 -7 339 64 b 135 26 306 72 226 24 m 110 -208 b 244 -131 124 -239 218 -214 b 110 -208 146 -133 90 -175 m 135 653 b 238 756 135 711 179 756 b 340 653 297 756 340 711 b 238 550 340 593 297 550 b 135 653 179 550 135 593 m 564 653 b 665 756 564 711 608 756 b 769 653 725 756 769 711 b 665 550 769 593 725 550 b 564 653 608 550 564 593 "},"ī":{"ha":457,"x_min":0,"x_max":0,"o":"m 135 26 b 71 490 -44 33 -76 296 b 199 411 108 478 182 442 b 144 139 131 257 88 192 b 463 372 203 86 356 164 l 507 343 b 135 26 451 217 317 22 m -11 642 b 24 708 -7 660 7 685 b 369 707 147 696 279 690 b 350 600 386 683 368 629 b -11 642 200 572 36 624 "},"į":{"ha":457,"x_min":0,"x_max":0,"o":"m 243 822 b 357 742 264 799 304 764 b 199 601 315 693 257 636 b 104 713 165 632 128 674 b 243 822 131 732 183 765 m -167 -301 b 110 29 -226 -232 -160 -79 b 71 490 -47 58 -69 306 b 199 411 108 478 182 442 b 144 139 131 257 88 192 b 463 372 203 86 356 164 l 507 343 b 164 28 454 224 331 43 b -22 -217 -12 -51 -60 -171 b 101 -236 17 -261 71 -249 b 104 -251 106 -239 107 -244 b -167 -301 -3 -346 -114 -364 "},"ɨ":{"ha":457,"x_min":0,"x_max":0,"o":"m 135 26 b -19 274 18 31 -36 143 b -135 229 -58 265 -97 250 b -61 407 -133 299 -97 365 b 28 424 -31 415 -1 419 b 71 490 40 446 54 468 b 192 421 104 479 167 449 b 278 393 226 415 256 406 b 250 264 276 335 269 304 b 143 286 222 275 185 283 b 144 139 113 215 106 175 b 463 372 203 86 356 164 l 507 343 b 135 26 451 217 317 22 m 104 713 b 243 822 131 732 183 765 b 357 742 264 799 304 764 b 199 601 315 693 257 636 b 104 713 165 632 128 674 "},"ĩ":{"ha":457,"x_min":0,"x_max":0,"o":"m 135 26 b 71 490 -44 33 -76 296 b 199 411 108 478 182 442 b 144 139 131 257 88 192 b 463 372 203 86 356 164 l 507 343 b 135 26 451 217 317 22 m 6 711 b 278 703 240 918 192 669 b 353 782 319 718 343 753 b 465 736 411 804 472 799 b 217 611 372 633 253 603 b 154 732 175 618 192 736 b 76 607 119 728 85 658 b 6 711 29 603 0 668 "},"j":{"ha":450,"x_min":0,"x_max":0,"o":"m -347 -208 b -212 -131 -333 -239 -239 -214 b -347 -208 -311 -133 -367 -175 m -443 -247 b -194 -67 -485 -149 -375 -64 l -181 -67 b 64 490 -85 115 14 414 b 193 411 101 478 174 442 b 138 288 169 360 149 319 b -6 -3 124 256 72 126 b 457 372 160 18 378 231 l 500 343 b -86 -117 451 244 251 -33 b -443 -247 -239 -361 -415 -314 m 107 653 b 208 756 107 711 151 756 b 313 653 268 756 313 711 b 208 550 313 593 268 550 b 107 653 151 550 107 593 "},"ȷ":{"ha":450,"x_min":0,"x_max":0,"o":"m -347 -208 b -212 -131 -333 -239 -239 -214 b -347 -208 -311 -133 -367 -175 m -443 -247 b -194 -67 -485 -149 -375 -64 l -181 -67 b 64 490 -85 115 14 414 b 193 411 101 478 174 442 b 138 288 169 360 149 319 b -6 -3 124 256 72 126 b 457 372 160 18 378 231 l 500 343 b -86 -117 451 244 251 -33 b -443 -247 -239 -361 -415 -314 "},"ĵ":{"ha":450,"x_min":0,"x_max":0,"o":"m -347 -208 b -212 -131 -333 -239 -239 -214 b -347 -208 -311 -133 -367 -175 m -443 -247 b -194 -67 -485 -149 -375 -64 l -181 -67 b 64 490 -85 115 14 414 b 193 411 101 478 174 442 b 138 288 169 360 149 319 b -6 -3 124 256 72 126 b 457 372 160 18 378 231 l 500 343 b -86 -117 451 244 251 -33 b -443 -247 -239 -361 -415 -314 m -8 604 b 178 779 67 656 133 719 b 251 753 210 774 242 764 b 367 593 256 708 278 674 b 301 528 351 567 329 540 b 215 699 283 571 251 635 b 32 528 188 669 121 607 b -8 604 13 547 -4 574 "},"k":{"ha":724,"x_min":0,"x_max":0,"o":"m -56 -6 b -162 50 -107 0 -139 19 b 207 931 -81 158 200 774 b 328 889 243 940 285 932 b -56 -6 336 788 53 135 m 132 297 b 451 536 242 339 378 421 b 554 465 485 525 539 496 b 253 294 489 353 358 304 b 403 108 247 172 301 113 b 729 372 472 106 621 165 l 774 343 b 371 -7 715 217 554 4 b 132 297 165 -19 114 133 "},"ǩ":{"ha":724,"x_min":0,"x_max":0,"o":"m -56 -6 b -162 50 -107 0 -139 19 b 207 931 -81 158 200 774 b 328 889 243 940 285 932 b -56 -6 336 788 53 135 m 132 297 b 451 536 242 339 378 421 b 554 465 485 525 539 496 b 253 294 489 353 358 304 b 403 108 247 172 301 113 b 729 372 472 106 621 165 l 774 343 b 371 -7 715 217 554 4 b 132 297 165 -19 114 133 m 340 975 b 407 1040 356 1001 378 1029 b 493 868 425 999 457 935 b 676 1040 521 899 588 961 b 717 964 696 1021 713 994 b 531 789 642 913 575 849 b 457 815 499 794 467 804 b 340 975 451 860 429 894 "},"ķ":{"ha":724,"x_min":0,"x_max":0,"o":"m -56 -6 b -162 50 -107 0 -139 19 b 207 931 -81 158 200 774 b 328 889 243 940 285 932 b -56 -6 336 788 53 135 m -89 -312 b 22 -206 -36 -275 1 -235 b -46 -147 -4 -190 -29 -174 b 92 -10 -22 -104 22 -50 b 169 -114 121 -36 154 -74 b -74 -340 125 -206 19 -287 b -89 -312 -82 -332 -89 -322 m 132 297 b 451 536 242 339 378 421 b 554 465 485 525 539 496 b 253 294 489 353 358 304 b 403 108 247 172 301 113 b 729 372 472 106 621 165 l 774 343 b 371 -7 715 217 554 4 b 132 297 165 -19 114 133 "},"ḵ":{"ha":724,"x_min":0,"x_max":0,"o":"m -56 -6 b -162 50 -107 0 -139 19 b 207 931 -81 158 200 774 b 328 889 243 940 285 932 b -56 -6 336 788 53 135 m -124 -122 b -89 -56 -119 -104 -106 -79 b 257 -57 35 -68 167 -74 b 238 -164 274 -81 256 -135 b -124 -122 88 -192 -76 -140 m 132 297 b 451 536 242 339 378 421 b 554 465 485 525 539 496 b 253 294 489 353 358 304 b 403 108 247 172 301 113 b 729 372 472 106 621 165 l 774 343 b 371 -7 715 217 554 4 b 132 297 165 -19 114 133 "},"l":{"ha":499,"x_min":0,"x_max":0,"o":"m 161 26 b 335 993 -183 68 49 661 b 485 893 388 989 465 929 b 140 121 110 464 14 183 b 506 372 232 76 397 164 l 549 343 b 161 26 492 217 340 4 "},"ĺ":{"ha":499,"x_min":0,"x_max":0,"o":"m 161 26 b 335 993 -183 68 49 661 b 485 893 388 989 465 929 b 140 121 110 464 14 183 b 506 372 232 76 397 164 l 549 343 b 161 26 492 217 340 4 m 357 1019 b 364 1068 353 1026 356 1049 b 624 1301 451 1124 557 1206 b 678 1171 674 1304 696 1242 b 357 1019 599 1093 464 1043 "},"ľ":{"ha":499,"x_min":0,"x_max":0,"o":"m 161 26 b 335 993 -183 68 49 661 b 485 893 388 989 465 929 b 140 121 110 464 14 183 b 506 372 232 76 397 164 l 549 343 b 161 26 492 217 340 4 m 550 922 b 757 932 600 958 678 992 b 632 615 700 872 628 717 b 558 606 615 604 582 601 b 550 922 546 639 517 771 "},"ļ":{"ha":499,"x_min":0,"x_max":0,"o":"m 161 26 b 335 993 -183 68 49 661 b 485 893 388 989 465 929 b 140 121 110 464 14 183 b 506 372 232 76 397 164 l 549 343 b 161 26 492 217 340 4 m -103 -389 b 8 -282 -50 -351 -12 -311 b -60 -224 -18 -267 -43 -250 b 78 -86 -36 -181 8 -126 b 156 -190 107 -112 140 -150 b -87 -417 111 -282 6 -364 b -103 -389 -96 -408 -103 -399 "},"ḷ":{"ha":499,"x_min":0,"x_max":0,"o":"m 161 26 b 335 993 -183 68 49 661 b 485 893 388 989 465 929 b 140 121 110 464 14 183 b 506 372 232 76 397 164 l 549 343 b 161 26 492 217 340 4 m -83 -233 b 56 -124 -57 -214 -4 -181 b 169 -204 76 -147 117 -182 b 11 -344 128 -253 69 -310 b -83 -233 -22 -314 -60 -272 "},"ḹ":{"ha":499,"x_min":0,"x_max":0,"o":"m 161 26 b 335 993 -183 68 49 661 b 485 893 388 989 465 929 b 140 121 110 464 14 183 b 506 372 232 76 397 164 l 549 343 b 161 26 492 217 340 4 m -83 -233 b 56 -124 -57 -214 -4 -181 b 169 -204 76 -147 117 -182 b 11 -344 128 -253 69 -310 b -83 -233 -22 -314 -60 -272 m 272 1075 b 307 1142 276 1093 290 1118 b 653 1140 431 1129 563 1124 b 633 1033 669 1117 651 1063 b 272 1075 483 1006 319 1057 "},"ḻ":{"ha":499,"x_min":0,"x_max":0,"o":"m 161 26 b 335 993 -183 68 49 661 b 485 893 388 989 465 929 b 140 121 110 464 14 183 b 506 372 232 76 397 164 l 549 343 b 161 26 492 217 340 4 m -137 -199 b -103 -132 -133 -181 -119 -156 b 243 -133 21 -144 153 -150 b 224 -240 260 -157 242 -211 b -137 -199 74 -268 -90 -217 "},"ł":{"ha":499,"x_min":0,"x_max":0,"o":"m 161 26 b 176 774 -115 60 -19 450 b -37 719 106 767 32 750 b 57 897 -35 789 11 856 b 275 918 132 913 207 919 b 335 993 294 944 314 969 b 485 893 388 989 465 929 l 479 886 b 486 883 482 885 483 885 b 451 754 485 825 475 794 b 381 769 432 760 407 765 b 140 121 93 410 26 178 b 506 372 232 76 397 164 l 549 343 b 161 26 492 217 340 4 "},"m":{"ha":1022,"x_min":0,"x_max":0,"o":"m -10 -6 b -115 50 -58 0 -92 19 b 22 490 -46 133 25 356 b 143 447 61 499 101 490 b 125 288 149 411 142 353 b 276 456 169 339 218 394 l 285 454 b 285 460 285 456 285 458 b 406 417 322 468 363 458 b 390 238 411 378 408 308 b 628 485 461 310 547 397 l 629 483 b 635 490 631 485 633 488 b 763 411 672 478 744 442 b 710 139 694 257 650 192 b 1028 372 767 86 919 164 l 1072 343 b 699 26 1015 217 881 22 b 569 371 554 32 506 203 b 338 -6 475 292 378 146 b 233 53 290 1 257 22 b 286 390 268 169 285 282 b 67 121 208 328 138 228 b -10 -6 44 74 19 29 "},"ḿ":{"ha":1022,"x_min":0,"x_max":0,"o":"m -10 -6 b -115 50 -58 0 -92 19 b 22 490 -46 133 25 356 b 143 447 61 499 101 490 b 125 288 149 411 142 353 b 276 456 169 339 218 394 l 285 454 b 285 460 285 456 285 458 b 406 417 322 468 363 458 b 390 238 411 378 408 308 b 628 485 461 310 547 397 l 629 483 b 635 490 631 485 633 488 b 763 411 672 478 744 442 b 710 139 694 257 650 192 b 1028 372 767 86 919 164 l 1072 343 b 699 26 1015 217 881 22 b 569 371 554 32 506 203 b 338 -6 475 292 378 146 b 233 53 290 1 257 22 b 286 390 268 169 285 282 b 67 121 208 328 138 228 b -10 -6 44 74 19 29 m 324 538 b 331 586 319 544 322 567 b 590 819 418 642 524 724 b 644 689 640 822 663 760 b 324 538 565 611 431 561 "},"ṁ":{"ha":1022,"x_min":0,"x_max":0,"o":"m -10 -6 b -115 50 -58 0 -92 19 b 22 490 -46 133 25 356 b 143 447 61 499 101 490 b 125 288 149 411 142 353 b 276 456 169 339 218 394 l 285 454 b 285 460 285 456 285 458 b 406 417 322 468 363 458 b 390 238 411 378 408 308 b 628 485 461 310 547 397 l 629 483 b 635 490 631 485 633 488 b 763 411 672 478 744 442 b 710 139 694 257 650 192 b 1028 372 767 86 919 164 l 1072 343 b 699 26 1015 217 881 22 b 569 371 554 32 506 203 b 338 -6 475 292 378 146 b 233 53 290 1 257 22 b 286 390 268 169 285 282 b 67 121 208 328 138 228 b -10 -6 44 74 19 29 m 354 664 b 493 774 381 683 433 717 b 607 693 514 750 554 715 b 449 553 565 644 507 588 b 354 664 415 583 378 625 "},"ṃ":{"ha":1022,"x_min":0,"x_max":0,"o":"m -10 -6 b -115 50 -58 0 -92 19 b 22 490 -46 133 25 356 b 143 447 61 499 101 490 b 125 288 149 411 142 353 b 276 456 169 339 218 394 l 285 454 b 285 460 285 456 285 458 b 406 417 322 468 363 458 b 390 238 411 378 408 308 b 628 485 461 310 547 397 l 629 483 b 635 490 631 485 633 488 b 763 411 672 478 744 442 b 710 139 694 257 650 192 b 1028 372 767 86 919 164 l 1072 343 b 699 26 1015 217 881 22 b 569 371 554 32 506 203 b 338 -6 475 292 378 146 b 233 53 290 1 257 22 b 286 390 268 169 285 282 b 67 121 208 328 138 228 b -10 -6 44 74 19 29 m 89 -179 b 228 -69 115 -160 168 -126 b 342 -150 249 -93 289 -128 b 183 -290 300 -199 242 -256 b 89 -179 150 -260 113 -218 "},"n":{"ha":786,"x_min":0,"x_max":0,"o":"m 21 -6 b -83 50 -28 0 -61 19 b 14 494 -19 135 19 360 b 135 451 51 503 93 494 b 117 215 143 401 139 310 b 394 483 200 292 304 388 l 396 482 b 401 490 397 485 400 488 b 529 411 438 478 513 442 b 474 139 460 257 417 192 b 793 372 532 86 686 164 l 836 343 b 465 26 782 218 646 22 b 331 357 325 32 274 194 b 53 42 236 278 138 160 b 21 -6 43 25 32 8 "},"ń":{"ha":786,"x_min":0,"x_max":0,"o":"m 21 -6 b -83 50 -28 0 -61 19 b 14 494 -19 135 19 360 b 135 451 51 503 93 494 b 117 215 143 401 139 310 b 394 483 200 292 304 388 l 396 482 b 401 490 397 485 400 488 b 529 411 438 478 513 442 b 474 139 460 257 417 192 b 793 372 532 86 686 164 l 836 343 b 465 26 782 218 646 22 b 331 357 325 32 274 194 b 53 42 236 278 138 160 b 21 -6 43 25 32 8 m 199 564 b 206 613 194 571 197 593 b 465 846 293 668 399 750 b 519 715 515 849 538 786 b 199 564 440 638 306 588 "},"ň":{"ha":786,"x_min":0,"x_max":0,"o":"m 21 -6 b -83 50 -28 0 -61 19 b 14 494 -19 135 19 360 b 135 451 51 503 93 494 b 117 215 143 401 139 310 b 394 483 200 292 304 388 l 396 482 b 401 490 397 485 400 488 b 529 411 438 478 513 442 b 474 139 460 257 417 192 b 793 372 532 86 686 164 l 836 343 b 465 26 782 218 646 22 b 331 357 325 32 274 194 b 53 42 236 278 138 160 b 21 -6 43 25 32 8 m 146 738 b 213 803 161 764 183 792 b 299 631 231 761 263 697 b 482 803 326 661 393 724 b 522 726 501 783 518 757 b 336 551 447 675 381 611 b 263 578 304 557 272 567 b 146 738 257 622 235 657 "},"ņ":{"ha":786,"x_min":0,"x_max":0,"o":"m 21 -6 b -83 50 -28 0 -61 19 b 14 494 -19 135 19 360 b 135 451 51 503 93 494 b 117 215 143 401 139 310 b 394 483 200 292 304 388 l 396 482 b 401 490 397 485 400 488 b 529 411 438 478 513 442 b 474 139 460 257 417 192 b 793 372 532 86 686 164 l 836 343 b 465 26 782 218 646 22 b 331 357 325 32 274 194 b 53 42 236 278 138 160 b 21 -6 43 25 32 8 m -29 -339 b 82 -232 24 -301 61 -261 b 14 -174 56 -217 31 -200 b 151 -36 38 -131 82 -76 b 229 -140 181 -62 214 -100 b -14 -367 185 -232 79 -314 b -29 -339 -22 -358 -29 -349 "},"ṅ":{"ha":786,"x_min":0,"x_max":0,"o":"m 21 -6 b -83 50 -28 0 -61 19 b 14 494 -19 135 19 360 b 135 451 51 503 93 494 b 117 215 143 401 139 310 b 394 483 200 292 304 388 l 396 482 b 401 490 397 485 400 488 b 529 411 438 478 513 442 b 474 139 460 257 417 192 b 793 372 532 86 686 164 l 836 343 b 465 26 782 218 646 22 b 331 357 325 32 274 194 b 53 42 236 278 138 160 b 21 -6 43 25 32 8 m 229 690 b 368 800 256 710 308 743 b 482 719 389 776 429 742 b 324 579 440 671 382 614 b 229 690 290 610 253 651 "},"ṇ":{"ha":786,"x_min":0,"x_max":0,"o":"m 21 -6 b -83 50 -28 0 -61 19 b 14 494 -19 135 19 360 b 135 451 51 503 93 494 b 117 215 143 401 139 310 b 394 483 200 292 304 388 l 396 482 b 401 490 397 485 400 488 b 529 411 438 478 513 442 b 474 139 460 257 417 192 b 793 372 532 86 686 164 l 836 343 b 465 26 782 218 646 22 b 331 357 325 32 274 194 b 53 42 236 278 138 160 b 21 -6 43 25 32 8 m -10 -183 b 129 -74 17 -164 69 -131 b 243 -154 150 -97 190 -132 b 85 -294 201 -203 143 -260 b -10 -183 51 -264 14 -222 "},"ṉ":{"ha":786,"x_min":0,"x_max":0,"o":"m 21 -6 b -83 50 -28 0 -61 19 b 14 494 -19 135 19 360 b 135 451 51 503 93 494 b 117 215 143 401 139 310 b 394 483 200 292 304 388 l 396 482 b 401 490 397 485 400 488 b 529 411 438 478 513 442 b 474 139 460 257 417 192 b 793 372 532 86 686 164 l 836 343 b 465 26 782 218 646 22 b 331 357 325 32 274 194 b 53 42 236 278 138 160 b 21 -6 43 25 32 8 m -64 -149 b -29 -82 -60 -131 -46 -106 b 317 -83 94 -94 226 -100 b 297 -190 333 -107 315 -161 b -64 -149 147 -218 -17 -167 "},"ñ":{"ha":786,"x_min":0,"x_max":0,"o":"m 21 -6 b -83 50 -28 0 -61 19 b 14 494 -19 135 19 360 b 135 451 51 503 93 494 b 117 215 143 401 139 310 b 394 483 200 292 304 388 l 396 482 b 401 490 397 485 400 488 b 529 411 438 478 513 442 b 474 139 460 257 417 192 b 793 372 532 86 686 164 l 836 343 b 465 26 782 218 646 22 b 331 357 325 32 274 194 b 53 42 236 278 138 160 b 21 -6 43 25 32 8 m 131 689 b 403 681 365 896 317 647 b 478 760 444 696 468 731 b 590 714 536 782 597 776 b 342 589 497 611 378 581 b 279 710 300 596 317 714 b 201 585 244 706 210 636 b 131 689 154 581 125 646 "},"ŋ":{"ha":786,"x_min":0,"x_max":0,"o":"m 21 -6 b -83 50 -28 0 -61 19 b 14 494 -19 135 19 360 b 135 451 51 503 93 494 b 117 215 143 401 139 310 b 394 483 200 292 304 388 l 396 482 b 401 490 397 485 400 488 b 531 411 439 478 511 442 b 475 288 507 360 486 319 b 332 -3 461 256 410 126 b 794 372 497 18 715 231 l 838 343 b 251 -117 789 244 589 -33 b -106 -247 99 -361 -78 -314 b 143 -67 -147 -149 -37 -64 l 157 -67 b 344 369 224 60 292 243 b 53 42 246 290 142 165 b 21 -6 43 25 32 8 m -10 -208 b 122 -131 4 -239 96 -214 b -10 -208 24 -133 -29 -175 "},"o":{"ha":690,"x_min":0,"x_max":0,"o":"m 158 26 b 256 572 -187 68 4 572 b 310 501 283 572 299 538 b 469 486 346 567 419 583 b 486 333 488 454 490 392 b 696 372 560 314 649 314 l 740 343 b 471 276 699 271 576 256 b 158 26 415 156 326 6 m 136 121 b 390 301 219 79 343 176 b 300 354 369 293 325 324 b 292 446 289 386 288 418 b 136 121 114 411 21 179 "},"ó":{"ha":690,"x_min":0,"x_max":0,"o":"m 158 26 b 256 572 -187 68 4 572 b 310 501 283 572 299 538 b 469 486 346 567 419 583 b 486 333 488 454 490 392 b 696 372 560 314 649 314 l 740 343 b 471 276 699 271 576 256 b 158 26 415 156 326 6 m 136 121 b 390 301 219 79 343 176 b 300 354 369 293 325 324 b 292 446 289 386 288 418 b 136 121 114 411 21 179 m 233 668 b 240 717 229 675 232 697 b 500 950 328 772 433 854 b 554 819 550 953 572 890 b 233 668 475 742 340 692 "},"ǒ":{"ha":690,"x_min":0,"x_max":0,"o":"m 158 26 b 256 572 -187 68 4 572 b 310 501 283 572 299 538 b 469 486 346 567 419 583 b 486 333 488 454 490 392 b 696 372 560 314 649 314 l 740 343 b 471 276 699 271 576 256 b 158 26 415 156 326 6 m 136 121 b 390 301 219 79 343 176 b 300 354 369 293 325 324 b 292 446 289 386 288 418 b 136 121 114 411 21 179 m 181 842 b 247 907 196 868 218 896 b 333 735 265 865 297 801 b 517 907 361 765 428 828 b 557 831 536 888 553 861 b 371 656 482 779 415 715 b 297 682 339 661 307 671 b 181 842 292 726 269 761 "},"ô":{"ha":690,"x_min":0,"x_max":0,"o":"m 158 26 b 256 572 -187 68 4 572 b 310 501 283 572 299 538 b 469 486 346 567 419 583 b 486 333 488 454 490 392 b 696 372 560 314 649 314 l 740 343 b 471 276 699 271 576 256 b 158 26 415 156 326 6 m 136 121 b 390 301 219 79 343 176 b 300 354 369 293 325 324 b 292 446 289 386 288 418 b 136 121 114 411 21 179 m 176 711 b 363 886 251 763 318 826 b 436 860 394 881 426 871 b 551 700 440 815 463 781 b 486 635 536 674 514 647 b 400 806 468 678 436 742 b 217 635 372 776 306 714 b 176 711 197 654 181 681 "},"ố":{"ha":690,"x_min":0,"x_max":0,"o":"m 158 26 b 256 572 -187 68 4 572 b 310 501 283 572 299 538 b 469 486 346 567 419 583 b 486 333 488 454 490 392 b 696 372 560 314 649 314 l 740 343 b 471 276 699 271 576 256 b 158 26 415 156 326 6 m 136 121 b 390 301 219 79 343 176 b 300 354 369 293 325 324 b 292 446 289 386 288 418 b 136 121 114 411 21 179 m 149 697 b 335 872 224 749 290 813 b 408 846 367 867 399 857 b 524 686 413 801 435 767 b 458 621 508 660 486 633 b 372 792 440 664 408 728 b 189 621 344 763 278 700 b 149 697 169 640 153 667 m 318 921 b 325 969 314 928 317 950 b 585 1203 413 1025 518 1107 b 639 1072 635 1206 657 1143 b 318 921 560 994 425 944 "},"ộ":{"ha":690,"x_min":0,"x_max":0,"o":"m 158 26 b 256 572 -187 68 4 572 b 310 501 283 572 299 538 b 469 486 346 567 419 583 b 486 333 488 454 490 392 b 696 372 560 314 649 314 l 740 343 b 471 276 699 271 576 256 b 158 26 415 156 326 6 m -7 -150 b 132 -40 19 -131 72 -97 b 246 -121 153 -64 193 -99 b 88 -261 204 -169 146 -226 b -7 -150 54 -231 17 -189 m 136 121 b 390 301 219 79 343 176 b 300 354 369 293 325 324 b 292 446 289 386 288 418 b 136 121 114 411 21 179 m 176 711 b 363 886 251 763 318 826 b 436 860 394 881 426 871 b 551 700 440 815 463 781 b 486 635 536 674 514 647 b 400 806 468 678 436 742 b 217 635 372 776 306 714 b 176 711 197 654 181 681 "},"ồ":{"ha":690,"x_min":0,"x_max":0,"o":"m 158 26 b 256 572 -187 68 4 572 b 310 501 283 572 299 538 b 469 486 346 567 419 583 b 486 333 488 454 490 392 b 696 372 560 314 649 314 l 740 343 b 471 276 699 271 576 256 b 158 26 415 156 326 6 m 136 121 b 390 301 219 79 343 176 b 300 354 369 293 325 324 b 292 446 289 386 288 418 b 136 121 114 411 21 179 m 158 717 b 344 892 233 768 300 832 b 418 865 376 886 408 876 b 533 706 422 821 444 786 b 468 640 518 679 496 653 b 382 811 450 683 418 747 b 199 640 354 782 288 719 b 158 717 179 660 163 686 m 339 1043 b 453 1154 351 1096 401 1150 b 615 988 482 1083 554 1026 b 597 950 615 974 607 957 b 339 1043 499 961 388 989 "},"ổ":{"ha":690,"x_min":0,"x_max":0,"o":"m 158 26 b 256 572 -187 68 4 572 b 310 501 283 572 299 538 b 469 486 346 567 419 583 b 486 333 488 454 490 392 b 696 372 560 314 649 314 l 740 343 b 471 276 699 271 576 256 b 158 26 415 156 326 6 m 136 121 b 390 301 219 79 343 176 b 300 354 369 293 325 324 b 292 446 289 386 288 418 b 136 121 114 411 21 179 m 182 731 b 368 906 257 782 324 846 b 442 879 400 900 432 890 b 557 719 446 835 468 800 b 492 654 542 693 519 667 b 406 825 474 697 442 761 b 222 654 378 796 311 733 b 182 731 203 674 186 700 m 333 965 b 561 1226 543 1043 601 1176 b 438 1246 522 1271 468 1258 b 435 1261 433 1249 432 1254 b 706 1311 542 1356 653 1374 b 342 950 771 1235 685 1057 l 333 965 "},"ỗ":{"ha":690,"x_min":0,"x_max":0,"o":"m 158 26 b 256 572 -187 68 4 572 b 310 501 283 572 299 538 b 469 486 346 567 419 583 b 486 333 488 454 490 392 b 696 372 560 314 649 314 l 740 343 b 471 276 699 271 576 256 b 158 26 415 156 326 6 m 136 121 b 390 301 219 79 343 176 b 300 354 369 293 325 324 b 292 446 289 386 288 418 b 136 121 114 411 21 179 m 176 742 b 363 917 251 793 318 857 b 436 890 394 911 426 901 b 551 731 440 846 463 811 b 486 665 536 704 514 678 b 400 836 468 708 436 772 b 217 665 372 807 306 744 b 176 742 197 685 181 711 m 278 1090 b 550 1082 513 1297 464 1049 b 625 1161 592 1097 615 1132 b 738 1115 683 1183 744 1178 b 489 990 644 1013 525 982 b 426 1111 447 997 464 1115 b 349 986 392 1107 357 1038 b 278 1090 301 982 272 1047 "},"ö":{"ha":690,"x_min":0,"x_max":0,"o":"m 158 26 b 256 572 -187 68 4 572 b 310 501 283 572 299 538 b 469 486 346 567 419 583 b 486 333 488 454 490 392 b 696 372 560 314 649 314 l 740 343 b 471 276 699 271 576 256 b 158 26 415 156 326 6 m 136 121 b 390 301 219 79 343 176 b 300 354 369 293 325 324 b 292 446 289 386 288 418 b 136 121 114 411 21 179 m 144 767 b 283 876 171 786 225 821 b 383 801 303 854 339 824 b 500 896 411 822 454 851 b 614 815 521 872 561 838 b 456 675 572 767 514 710 b 372 767 429 699 396 732 b 239 656 339 733 293 688 b 144 767 206 686 167 728 "},"ȫ":{"ha":690,"x_min":0,"x_max":0,"o":"m 158 26 b 256 572 -187 68 4 572 b 310 501 283 572 299 538 b 469 486 346 567 419 583 b 486 333 488 454 490 392 b 696 372 560 314 649 314 l 740 343 b 471 276 699 271 576 256 b 158 26 415 156 326 6 m 136 121 b 390 301 219 79 343 176 b 300 354 369 293 325 324 b 292 446 289 386 288 418 b 136 121 114 411 21 179 m 144 767 b 283 876 171 786 225 821 b 383 801 303 854 339 824 b 500 896 411 822 454 851 b 614 815 521 872 561 838 b 456 675 572 767 514 710 b 372 767 429 699 396 732 b 239 656 339 733 293 688 b 144 767 206 686 167 728 m 250 1006 b 285 1072 254 1024 268 1049 b 631 1071 408 1060 540 1054 b 611 964 647 1047 629 993 b 250 1006 461 936 297 988 "},"ọ":{"ha":690,"x_min":0,"x_max":0,"o":"m 158 26 b 256 572 -187 68 4 572 b 310 501 283 572 299 538 b 469 486 346 567 419 583 b 486 333 488 454 490 392 b 696 372 560 314 649 314 l 740 343 b 471 276 699 271 576 256 b 158 26 415 156 326 6 m -7 -150 b 132 -40 19 -131 72 -97 b 246 -121 153 -64 193 -99 b 88 -261 204 -169 146 -226 b -7 -150 54 -231 17 -189 m 136 121 b 390 301 219 79 343 176 b 300 354 369 293 325 324 b 292 446 289 386 288 418 b 136 121 114 411 21 179 "},"ò":{"ha":690,"x_min":0,"x_max":0,"o":"m 158 26 b 256 572 -187 68 4 572 b 310 501 283 572 299 538 b 469 486 346 567 419 583 b 486 333 488 454 490 392 b 696 372 560 314 649 314 l 740 343 b 471 276 699 271 576 256 b 158 26 415 156 326 6 m 136 121 b 390 301 219 79 343 176 b 300 354 369 293 325 324 b 292 446 289 386 288 418 b 136 121 114 411 21 179 m 244 771 b 358 882 257 824 307 878 b 521 715 388 811 460 754 b 503 678 521 701 513 685 b 244 771 404 689 293 717 "},"ỏ":{"ha":690,"x_min":0,"x_max":0,"o":"m 158 26 b 256 572 -187 68 4 572 b 310 501 283 572 299 538 b 469 486 346 567 419 583 b 486 333 488 454 490 392 b 696 372 560 314 649 314 l 740 343 b 471 276 699 271 576 256 b 158 26 415 156 326 6 m 136 121 b 390 301 219 79 343 176 b 300 354 369 293 325 324 b 292 446 289 386 288 418 b 136 121 114 411 21 179 m 215 679 b 443 940 425 757 483 890 b 319 960 404 985 350 972 b 317 975 315 963 314 968 b 588 1025 424 1069 535 1088 b 224 664 653 949 567 771 l 215 679 "},"ơ":{"ha":690,"x_min":0,"x_max":0,"o":"m 158 26 b 256 572 -187 68 4 572 b 310 501 283 572 299 538 b 450 517 340 558 401 578 l 451 521 b 819 754 563 494 742 553 l 835 746 b 488 406 746 457 619 351 b 486 333 488 382 488 357 b 696 372 560 314 649 314 l 740 343 b 471 276 699 271 576 256 b 158 26 415 156 326 6 m 136 121 b 390 301 219 79 343 176 b 300 354 369 293 325 324 b 292 446 289 386 288 418 b 136 121 114 411 21 179 "},"ớ":{"ha":690,"x_min":0,"x_max":0,"o":"m 158 26 b 256 572 -187 68 4 572 b 310 501 283 572 299 538 b 450 517 340 558 401 578 l 451 521 b 819 754 563 494 742 553 l 835 746 b 488 406 746 457 619 351 b 486 333 488 382 488 357 b 696 372 560 314 649 314 l 740 343 b 471 276 699 271 576 256 b 158 26 415 156 326 6 m 136 121 b 390 301 219 79 343 176 b 300 354 369 293 325 324 b 292 446 289 386 288 418 b 136 121 114 411 21 179 m 233 668 b 240 717 229 675 232 697 b 500 950 328 772 433 854 b 554 819 550 953 572 890 b 233 668 475 742 340 692 "},"ợ":{"ha":690,"x_min":0,"x_max":0,"o":"m 158 26 b 256 572 -187 68 4 572 b 310 501 283 572 299 538 b 450 517 340 558 401 578 l 451 521 b 819 754 563 494 742 553 l 835 746 b 488 406 746 457 619 351 b 486 333 488 382 488 357 b 696 372 560 314 649 314 l 740 343 b 471 276 699 271 576 256 b 158 26 415 156 326 6 m -7 -150 b 132 -40 19 -131 72 -97 b 246 -121 153 -64 193 -99 b 88 -261 204 -169 146 -226 b -7 -150 54 -231 17 -189 m 136 121 b 390 301 219 79 343 176 b 300 354 369 293 325 324 b 292 446 289 386 288 418 b 136 121 114 411 21 179 "},"ờ":{"ha":690,"x_min":0,"x_max":0,"o":"m 158 26 b 256 572 -187 68 4 572 b 310 501 283 572 299 538 b 450 517 340 558 401 578 l 451 521 b 819 754 563 494 742 553 l 835 746 b 488 406 746 457 619 351 b 486 333 488 382 488 357 b 696 372 560 314 649 314 l 740 343 b 471 276 699 271 576 256 b 158 26 415 156 326 6 m 136 121 b 390 301 219 79 343 176 b 300 354 369 293 325 324 b 292 446 289 386 288 418 b 136 121 114 411 21 179 m 244 771 b 358 882 257 824 307 878 b 521 715 388 811 460 754 b 503 678 521 701 513 685 b 244 771 404 689 293 717 "},"ở":{"ha":690,"x_min":0,"x_max":0,"o":"m 158 26 b 256 572 -187 68 4 572 b 310 501 283 572 299 538 b 450 517 340 558 401 578 l 451 521 b 819 754 563 494 742 553 l 835 746 b 488 406 746 457 619 351 b 486 333 488 382 488 357 b 696 372 560 314 649 314 l 740 343 b 471 276 699 271 576 256 b 158 26 415 156 326 6 m 136 121 b 390 301 219 79 343 176 b 300 354 369 293 325 324 b 292 446 289 386 288 418 b 136 121 114 411 21 179 m 215 679 b 443 940 425 757 483 890 b 319 960 404 985 350 972 b 317 975 315 963 314 968 b 588 1025 424 1069 535 1088 b 224 664 653 949 567 771 l 215 679 "},"ỡ":{"ha":690,"x_min":0,"x_max":0,"o":"m 158 26 b 256 572 -187 68 4 572 b 310 501 283 572 299 538 b 450 517 340 558 401 578 l 451 521 b 819 754 563 494 742 553 l 835 746 b 488 406 746 457 619 351 b 486 333 488 382 488 357 b 696 372 560 314 649 314 l 740 343 b 471 276 699 271 576 256 b 158 26 415 156 326 6 m 136 121 b 390 301 219 79 343 176 b 300 354 369 293 325 324 b 292 446 289 386 288 418 b 136 121 114 411 21 179 m 165 793 b 438 785 400 1000 351 751 b 513 864 479 800 503 835 b 625 818 571 886 632 881 b 376 693 532 715 413 685 b 314 814 335 700 351 818 b 236 689 279 810 244 740 b 165 793 189 685 160 750 "},"ő":{"ha":690,"x_min":0,"x_max":0,"o":"m 158 26 b 256 572 -187 68 4 572 b 310 501 283 572 299 538 b 469 486 346 567 419 583 b 486 333 488 454 490 392 b 696 372 560 314 649 314 l 740 343 b 471 276 699 271 576 256 b 158 26 415 156 326 6 m 136 121 b 390 301 219 79 343 176 b 300 354 369 293 325 324 b 292 446 289 386 288 418 b 136 121 114 411 21 179 m 165 681 b 172 729 161 688 164 710 b 432 963 260 785 365 867 b 482 819 483 965 506 897 b 618 963 535 860 579 910 b 672 832 668 965 690 903 b 351 681 593 754 458 704 b 371 753 347 689 350 719 b 165 681 297 715 217 692 "},"ō":{"ha":690,"x_min":0,"x_max":0,"o":"m 158 26 b 256 572 -187 68 4 572 b 310 501 283 572 299 538 b 469 486 346 567 419 583 b 486 333 488 454 490 392 b 696 372 560 314 649 314 l 740 343 b 471 276 699 271 576 256 b 158 26 415 156 326 6 m 136 121 b 390 301 219 79 343 176 b 300 354 369 293 325 324 b 292 446 289 386 288 418 b 136 121 114 411 21 179 m 149 724 b 183 790 153 742 167 767 b 529 789 307 778 439 772 b 510 682 546 765 528 711 b 149 724 360 654 196 706 "},"ṓ":{"ha":690,"x_min":0,"x_max":0,"o":"m 158 26 b 256 572 -187 68 4 572 b 310 501 283 572 299 538 b 469 486 346 567 419 583 b 486 333 488 454 490 392 b 696 372 560 314 649 314 l 740 343 b 471 276 699 271 576 256 b 158 26 415 156 326 6 m 136 121 b 390 301 219 79 343 176 b 300 354 369 293 325 324 b 292 446 289 386 288 418 b 136 121 114 411 21 179 m 168 724 b 203 790 172 742 186 767 b 549 789 326 778 458 772 b 529 682 565 765 547 711 b 168 724 379 654 215 706 m 296 838 b 303 886 292 844 294 867 b 563 1119 390 942 496 1024 b 617 989 613 1122 635 1060 b 296 838 538 911 403 861 "}}}
